<svg xmlns="http://www.w3.org/2000/svg" width="24.489" height="24.489" viewBox="0 0 24.489 24.489">
  <g id="vuesax_bulk_call" data-name="vuesax/bulk/call" transform="translate(0 0)">
    <g id="call" transform="translate(0 0)">
      <path id="Vector" d="M0,12.459,3.337,15.8q.551-.49,1.071-1.01a28.993,28.993,0,0,0,2.847-3.337,18.191,18.191,0,0,0,2-3.48A8.594,8.594,0,0,0,9.99,4.633a5.279,5.279,0,0,0-.367-1.969A4.7,4.7,0,0,0,8.449.959,2.99,2.99,0,0,0,6.326,0,1.918,1.918,0,0,0,5.5.184a1.663,1.663,0,0,0-.684.571L2.449,4.092a3.492,3.492,0,0,0-.408.714,1.613,1.613,0,0,0-.143.622,1.385,1.385,0,0,0,.214.724,3.471,3.471,0,0,0,.571.724l.775.806a.546.546,0,0,1,.163.408.926.926,0,0,1-.031.235c-.031.082-.061.143-.082.2a8.467,8.467,0,0,1-.949,1.306c-.459.531-.949,1.071-1.48,1.612C.714,11.806.357,12.153,0,12.459Z" transform="translate(12.459 2.041)" fill="#333c52" opacity="0.4"/>
      <path id="Vector-2" data-name="Vector" d="M0,4.377a2.591,2.591,0,0,0,.153.867,2.492,2.492,0,0,0,.1.245A4.21,4.21,0,0,0,.949,6.53a4.6,4.6,0,0,0,1.673,1.2c.01,0,.02.01.031.01a5.155,5.155,0,0,0,1.959.378,8.5,8.5,0,0,0,3.326-.745,17.922,17.922,0,0,0,3.51-2.02c.4-.3.8-.592,1.173-.908L9.286,1.112a5.733,5.733,0,0,1-.755.49c-.051.02-.112.051-.184.082a.7.7,0,0,1-.255.041.561.561,0,0,1-.418-.173L6.9.786A3.131,3.131,0,0,0,6.163.214,1.359,1.359,0,0,0,5.439,0a1.628,1.628,0,0,0-.622.133,3.946,3.946,0,0,0-.714.4L.724,2.929a1.548,1.548,0,0,0-.561.653A2.093,2.093,0,0,0,0,4.377Z" transform="translate(2.071 14.326)" fill="#333c52"/>
      <path id="Vector-3" data-name="Vector" d="M24.489,0H0V24.489H24.489Z" fill="none" opacity="0"/>
    </g>
  </g>
</svg>
