<svg id="vuesax_bulk_document-text" data-name="vuesax/bulk/document-text" xmlns="http://www.w3.org/2000/svg" width="24" height="24" viewBox="0 0 24 24">
  <g id="document-text">
    <path id="Vector" d="M0,0H24V24H0Z" fill="none" opacity="0"/>
    <path id="Vector-2" data-name="Vector" d="M18,5V15c0,3-1.5,5-5,5H5c-3.5,0-5-2-5-5V5C0,2,1.5,0,5,0h8C16.5,0,18,2,18,5Z" transform="translate(3 2)" fill="#333c52" opacity="0.4"/>
    <g id="Group">
      <path id="Vector-3" data-name="Vector" d="M4.75,5.5h-2A2.748,2.748,0,0,1,0,2.75v-2A.755.755,0,0,1,.75,0,.755.755,0,0,1,1.5.75v2A1.25,1.25,0,0,0,2.75,4h2a.75.75,0,0,1,0,1.5Z" transform="translate(13.75 3.75)" fill="#333c52"/>
    </g>
    <g id="Group-2" data-name="Group">
      <path id="Vector-4" data-name="Vector" d="M4.75,1.5h-4A.755.755,0,0,1,0,.75.755.755,0,0,1,.75,0h4A.755.755,0,0,1,5.5.75.755.755,0,0,1,4.75,1.5Z" transform="translate(7.25 12.25)" fill="#333c52"/>
    </g>
    <g id="Group-3" data-name="Group">
      <path id="Vector-5" data-name="Vector" d="M8.75,1.5h-8A.755.755,0,0,1,0,.75.755.755,0,0,1,.75,0h8A.755.755,0,0,1,9.5.75.755.755,0,0,1,8.75,1.5Z" transform="translate(7.25 16.25)" fill="#333c52"/>
    </g>
    <path id="Vector-6" data-name="Vector" d="M0,0H24V24H0Z" fill="none" opacity="0"/>
  </g>
</svg>
