<svg xmlns="http://www.w3.org/2000/svg" width="29.186" height="29.186" viewBox="0 0 29.186 29.186">
  <g id="vuesax_bulk_location" data-name="vuesax/bulk/location" transform="translate(-6.154 -3.154)">
    <g id="location" transform="translate(6.154 3.154)">
      <path id="Vector" d="M21.281,8.148A10.489,10.489,0,0,0,10.8,0h-.012A10.487,10.487,0,0,0,.3,8.135c-1.423,6.275,2.42,11.589,5.9,14.933a6.594,6.594,0,0,0,9.181,0C18.861,19.725,22.7,14.423,21.281,8.148Z" transform="translate(3.794 2.128)" fill="#9f7a32" opacity="0.4"/>
      <path id="Vector-2" data-name="Vector" d="M7.661,3.831A3.831,3.831,0,1,1,3.831,0,3.831,3.831,0,0,1,7.661,3.831Z" transform="translate(10.762 8.707)" fill="#9f7a32"/>
      <path id="Vector-3" data-name="Vector" d="M0,0H29.186V29.186H0Z" fill="none" opacity="0"/>
    </g>
  </g>
</svg>
