<svg xmlns="http://www.w3.org/2000/svg" width="99.93" height="99.929" viewBox="0 0 99.93 99.929">
  <g id="vuesax_bulk_play-cricle" data-name="vuesax/bulk/play-cricle" transform="translate(0 0)">
    <g id="play-cricle" transform="translate(0 0)">
      <path id="Vector" d="M0,0H99.93V99.929H0Z" fill="none" opacity="0"/>
      <path id="Vector-2" data-name="Vector" d="M3.112,65.11a3.088,3.088,0,0,1-2.207-.916,3.141,3.141,0,0,1,0-4.414,38.524,38.524,0,0,0,0-54.461A3.121,3.121,0,0,1,5.319.906a44.807,44.807,0,0,1,0,63.288A3.088,3.088,0,0,1,3.112,65.11Z" transform="translate(76.29 17.415)" fill="#fff" opacity="0.4"/>
      <path id="Vector-3" data-name="Vector" d="M15.291,65.11a3.088,3.088,0,0,1-2.207-.916,44.807,44.807,0,0,1,0-63.288A3.121,3.121,0,0,1,17.5,5.319a38.524,38.524,0,0,0,0,54.461,3.141,3.141,0,0,1,0,4.414A3.089,3.089,0,0,1,15.291,65.11Z" transform="translate(5.236 17.415)" fill="#fff" opacity="0.4"/>
      <path id="Vector-4" data-name="Vector" d="M16.878,8.592A45.5,45.5,0,0,1,2.1,6.093,3.134,3.134,0,1,1,4.178.181,38.949,38.949,0,0,0,16.919,2.3,38.7,38.7,0,0,0,29.619.181a3.176,3.176,0,0,1,4,1.915,3.141,3.141,0,0,1-1.915,4A44.845,44.845,0,0,1,16.878,8.592Z" transform="translate(33.087 85.966)" fill="#fff" opacity="0.4"/>
      <path id="Vector-5" data-name="Vector" d="M30.66,8.536a3.026,3.026,0,0,1-1.041-.167,39.159,39.159,0,0,0-25.44,0,3.176,3.176,0,0,1-4-1.915,3.142,3.142,0,0,1,1.915-4A44.577,44.577,0,0,1,16.878,0,44.578,44.578,0,0,1,31.659,2.457a3.142,3.142,0,0,1,1.915,4A3.036,3.036,0,0,1,30.66,8.536Z" transform="translate(33.046 5.371)" fill="#fff" opacity="0.4"/>
      <path id="Vector-6" data-name="Vector" d="M0,16.672V9.718c0-8.661,6.121-12.2,13.616-7.869l6.037,3.5,6.037,3.5c7.495,4.33,7.495,11.409,0,15.739l-6.037,3.5-6.037,3.5C6.121,35.908,0,32.369,0,23.708Z" transform="translate(36.391 33.293)" fill="#fff"/>
    </g>
  </g>
</svg>
