
<svg xmlns="http://www.w3.org/2000/svg" width="55.074" height="55.074" viewBox="0 0 55.074 55.074">
  <g id="vuesax_broken_menu-board" data-name="vuesax/broken/menu-board" opacity="0.54">
    <g id="menu-board">
      <path id="Vector" d="M.229,34.674A5.182,5.182,0,0,0,5.14,41.4H35.293a5.131,5.131,0,0,0,5-3.924L48.029,6.425a5.067,5.067,0,0,0-.252-3.259A5.122,5.122,0,0,0,43.026,0H14.8A5.115,5.115,0,0,0,9.89,3.649L3.855,23.062" transform="translate(2.295 9.087)" fill="none" stroke="#9f7a32" stroke-linecap="round" stroke-linejoin="round" stroke-width="3"/>
      <path id="Vector-2" data-name="Vector" d="M0,36.716H10.969a5.084,5.084,0,0,0,5.071-5.462L13.769,0" transform="translate(36.716 13.769)" fill="none" stroke="#9f7a32" stroke-linecap="round" stroke-linejoin="round" stroke-width="3"/>
      <path id="Vector-3" data-name="Vector" d="M0,9.913,2.387,0" transform="translate(22.213 4.727)" fill="none" stroke="#9f7a32" stroke-linecap="round" stroke-linejoin="round" stroke-width="3"/>
      <path id="Vector-4" data-name="Vector" d="M0,9.959,2.157,0" transform="translate(37.588 4.704)" fill="none" stroke="#9f7a32" stroke-linecap="round" stroke-linejoin="round" stroke-width="3"/>
      <path id="Vector-5" data-name="Vector" d="M0,0H18.358" transform="translate(17.67 27.537)" fill="none" stroke="#9f7a32" stroke-linecap="round" stroke-linejoin="round" stroke-width="3"/>
      <path id="Vector-6" data-name="Vector" d="M1.606,0H0" transform="translate(32.127 36.716)" fill="none" stroke="#9f7a32" stroke-linecap="round" stroke-linejoin="round" stroke-width="3"/>
      <path id="Vector-7" data-name="Vector" d="M0,0H9.867" transform="translate(15.375 36.716)" fill="none" stroke="#9f7a32" stroke-linecap="round" stroke-linejoin="round" stroke-width="3"/>
      <path id="Vector-8" data-name="Vector" d="M0,0H55.074V55.074H0Z" fill="none" opacity="0"/>
    </g>
  </g>
</svg>
