<svg id="vuesax_broken_calendar-2" data-name="vuesax/broken/calendar-2" xmlns="http://www.w3.org/2000/svg" width="20.488" height="20.488" viewBox="0 0 20.488 20.488">
  <g id="calendar-2">
    <path id="Vector" d="M0,0V2.561" transform="translate(6.829 1.707)" fill="none" stroke="#a1a1a1" stroke-linecap="round" stroke-linejoin="round" stroke-width="1.2"/>
    <path id="Vector-2" data-name="Vector" d="M0,0V2.561" transform="translate(13.658 1.707)" fill="none" stroke="#a1a1a1" stroke-linecap="round" stroke-linejoin="round" stroke-width="1.2"/>
    <path id="Vector-3" data-name="Vector" d="M0,0H14.512" transform="translate(2.988 7.76)" fill="none" stroke="#a1a1a1" stroke-linecap="round" stroke-linejoin="round" stroke-width="1.2"/>
    <path id="Vector-4" data-name="Vector" d="M0,0H20.488V20.488H0Z" fill="none" opacity="0"/>
    <path id="Vector-5" data-name="Vector" d="M0,8.118V4.268C0,1.707,1.28,0,4.268,0H11.1c2.988,0,4.268,1.707,4.268,4.268v7.256c0,2.561-1.28,4.268-4.268,4.268H4.268C1.28,15.793,0,14.085,0,11.524" transform="translate(2.561 2.988)" fill="none" stroke="#a1a1a1" stroke-linecap="round" stroke-linejoin="round" stroke-width="1.2"/>
    <path id="Vector-6" data-name="Vector" d="M.495.5H.5" transform="translate(9.745 11.195)" fill="none" stroke="#a1a1a1" stroke-linecap="round" stroke-linejoin="round" stroke-width="1.2"/>
    <path id="Vector-7" data-name="Vector" d="M.495.5H.5" transform="translate(6.586 11.195)" fill="none" stroke="#a1a1a1" stroke-linecap="round" stroke-linejoin="round" stroke-width="1.2"/>
    <path id="Vector-8" data-name="Vector" d="M.495.5H.5" transform="translate(6.586 13.756)" fill="none" stroke="#a1a1a1" stroke-linecap="round" stroke-linejoin="round" stroke-width="1.2"/>
  </g>
</svg>
