<svg id="Group_179061" data-name="Group 179061" xmlns="http://www.w3.org/2000/svg" width="13.366" height="23.548" viewBox="0 0 13.366 23.548">
  <path id="Path_71207" data-name="Path 71207" d="M8.756,23.548H4.985a1.144,1.144,0,0,1-1.142-1.142V13.9h-2.2A1.144,1.144,0,0,1,.5,12.758V9.113A1.143,1.143,0,0,1,1.642,7.971h2.2V6.146A6.215,6.215,0,0,1,5.486,1.693,5.919,5.919,0,0,1,9.849,0l2.876,0a1.144,1.144,0,0,1,1.14,1.142V4.531a1.143,1.143,0,0,1-1.142,1.142H10.787c-.591,0-.741.118-.773.155-.053.06-.116.23-.116.7V7.971h2.68a1.161,1.161,0,0,1,.565.143,1.146,1.146,0,0,1,.588,1v3.645A1.143,1.143,0,0,1,12.587,13.9H9.9v8.506A1.144,1.144,0,0,1,8.756,23.548ZM5.223,22.168H8.518V13.282a.764.764,0,0,1,.763-.763h3.069V9.352H9.28a.763.763,0,0,1-.762-.763V6.529a2.351,2.351,0,0,1,.462-1.614,2.34,2.34,0,0,1,1.808-.622h1.7V1.385l-2.637,0C7,1.381,5.223,3.207,5.223,6.146V8.589a.764.764,0,0,1-.763.763H1.881V12.52H4.46a.763.763,0,0,1,.763.763Zm7.5-20.783h0Zm0,0" transform="translate(-0.5 0)" fill="#333c52"/>
</svg>
