<svg id="vuesax_linear_directbox-notif" data-name="vuesax/linear/directbox-notif" xmlns="http://www.w3.org/2000/svg" width="18.512" height="18.512" viewBox="0 0 18.512 18.512">
  <g id="directbox-notif">
    <path id="Vector" d="M3.085,0C0,0,0,1.381,0,3.085v.771C0,5.985,0,7.713,3.857,7.713h6.171c3.085,0,3.857-1.728,3.857-3.857V3.085c0-1.7,0-3.085-3.085-3.085A1.821,1.821,0,0,0,9.41.463L8.623,1.3a2.313,2.313,0,0,1-3.371,0L4.474.463A1.821,1.821,0,0,0,3.085,0Z" transform="translate(2.314 9.256)" fill="none" stroke="#9f7a32" stroke-linecap="round" stroke-linejoin="round" stroke-width="1.5"/>
    <path id="Vector-2" data-name="Vector" d="M10.8,7.713V3.085C10.8,1.381,10.8,0,7.713,0H3.085C0,0,0,1.381,0,3.085V7.713" transform="translate(3.857 1.543)" fill="none" stroke="#9f7a32" stroke-linecap="round" stroke-linejoin="round" stroke-width="1.5"/>
    <path id="Vector-3" data-name="Vector" d="M0,0H2.569" transform="translate(8.137 7.119)" fill="none" stroke="#9f7a32" stroke-linecap="round" stroke-linejoin="round" stroke-width="1.5"/>
    <path id="Vector-4" data-name="Vector" d="M0,0H3.857" transform="translate(7.497 4.805)" fill="none" stroke="#9f7a32" stroke-linecap="round" stroke-linejoin="round" stroke-width="1.5"/>
    <path id="Vector-5" data-name="Vector" d="M0,0H18.512V18.512H0Z" fill="none" opacity="0"/>
  </g>
</svg>
