<svg xmlns="http://www.w3.org/2000/svg" width="22.848" height="22.849" viewBox="0 0 22.848 22.849">
  <path id="instagram_1_" data-name="instagram (1)" d="M11.65,22.851h-.227c-1.791,0-3.446-.041-5.055-.139a6.758,6.758,0,0,1-3.9-1.474,6.252,6.252,0,0,1-2.1-3.392,15.03,15.03,0,0,1-.345-3.589C.015,13.422,0,12.433,0,11.428S.015,9.43.026,8.6A15.032,15.032,0,0,1,.371,5.007a6.252,6.252,0,0,1,2.1-3.392A6.758,6.758,0,0,1,6.367.141C7.977.043,9.632,0,11.427,0s3.446.041,5.055.139a6.758,6.758,0,0,1,3.9,1.474,6.251,6.251,0,0,1,2.1,3.392A15.031,15.031,0,0,1,22.823,8.6c.012.834.024,1.823.026,2.828v0c0,1.005-.014,1.994-.026,2.828a15.023,15.023,0,0,1-.345,3.589,6.251,6.251,0,0,1-2.1,3.392,6.758,6.758,0,0,1-3.9,1.474c-1.541.094-3.124.139-4.832.139Zm-.227-1.785c1.762,0,3.38-.04,4.951-.136a4.917,4.917,0,0,0,2.876-1.076,4.507,4.507,0,0,0,1.5-2.45,13.674,13.674,0,0,0,.29-3.172c.011-.829.023-1.81.026-2.805s-.014-1.977-.026-2.805a13.676,13.676,0,0,0-.29-3.172A4.507,4.507,0,0,0,19.249,3a4.918,4.918,0,0,0-2.876-1.076c-1.572-.1-3.189-.14-4.947-.136s-3.379.04-4.951.136A4.918,4.918,0,0,0,3.6,3a4.507,4.507,0,0,0-1.5,2.45,13.676,13.676,0,0,0-.29,3.172c-.011.829-.023,1.811-.026,2.808s.014,1.974.026,2.8A13.674,13.674,0,0,0,2.1,17.4a4.507,4.507,0,0,0,1.5,2.45,4.918,4.918,0,0,0,2.876,1.076C8.047,21.025,9.665,21.069,11.422,21.065ZM11.38,17a5.578,5.578,0,1,1,5.578-5.578A5.585,5.585,0,0,1,11.38,17Zm0-9.372a3.793,3.793,0,1,0,3.793,3.793A3.8,3.8,0,0,0,11.38,7.633Zm6.2-3.57A1.339,1.339,0,1,0,18.922,5.4,1.339,1.339,0,0,0,17.583,4.062Zm0,0" transform="translate(0 -0.001)" fill="#333c52"/>
</svg>
