<svg xmlns="http://www.w3.org/2000/svg" width="500" height="372.56" viewBox="0 0 500 372.56">
  <g id="Mail-rafiki" transform="translate(0 -55)">
    <g id="freepik--background-complete--inject-2">
      <rect id="Rectangle_30510" data-name="Rectangle 30510" width="500" height="0.25" transform="translate(0 382.4)" fill="#ebebeb"/>
      <rect id="Rectangle_30511" data-name="Rectangle 30511" width="73.79" height="0.25" transform="translate(333.33 389.21)" fill="#ebebeb"/>
      <rect id="Rectangle_30512" data-name="Rectangle 30512" width="8.69" height="0.25" transform="translate(103.62 390.89)" fill="#ebebeb"/>
      <rect id="Rectangle_30513" data-name="Rectangle 30513" width="19.19" height="0.25" transform="translate(408.12 398.49)" fill="#ebebeb"/>
      <rect id="Rectangle_30514" data-name="Rectangle 30514" width="48.67" height="0.25" transform="translate(200 395.11)" fill="#ebebeb"/>
      <rect id="Rectangle_30515" data-name="Rectangle 30515" width="24.38" height="0.25" transform="translate(166.72 395.11)" fill="#ebebeb"/>
      <rect id="Rectangle_30516" data-name="Rectangle 30516" width="33.15" height="0.25" transform="translate(52.46 390.89)" fill="#ebebeb"/>
      <path id="Path_72375" data-name="Path 72375" d="M237,337.8H43.91a5.71,5.71,0,0,1-5.7-5.71V60.66A5.71,5.71,0,0,1,43.91,55H237a5.71,5.71,0,0,1,5.71,5.71V332.09A5.71,5.71,0,0,1,237,337.8ZM43.91,55.2a5.46,5.46,0,0,0-5.45,5.46V332.09a5.46,5.46,0,0,0,5.45,5.46H237a5.47,5.47,0,0,0,5.46-5.46V60.66A5.47,5.47,0,0,0,237,55.2Z" fill="#ebebeb"/>
      <path id="Path_72376" data-name="Path 72376" d="M453.31,337.8H260.21a5.72,5.72,0,0,1-5.71-5.71V60.66A5.72,5.72,0,0,1,260.21,55h193.1A5.71,5.71,0,0,1,459,60.66V332.09A5.71,5.71,0,0,1,453.31,337.8ZM260.21,55.2a5.47,5.47,0,0,0-5.46,5.46V332.09a5.47,5.47,0,0,0,5.46,5.46h193.1a5.47,5.47,0,0,0,5.46-5.46V60.66a5.47,5.47,0,0,0-5.46-5.46Z" fill="#ebebeb"/>
      <rect id="Rectangle_30517" data-name="Rectangle 30517" width="154.76" height="2.87" transform="translate(173.99 379.52)" fill="#f0f0f0"/>
      <path id="Path_72377" data-name="Path 72377" d="M388.07,263.25s12.81,18,31.59,2.63c17.44-14.25.3-48.73.3-48.73s20.27,6.37,23.54-20.36S418,176.85,418,176.85c10.25-20.38-1.5-21-10.27-19.2,2.66-5,3.5-11.14-2.83-16.31-14.49-11.83-24.37,2-24.37,2s-7.54-25.92-25.38-10.79v144.7C378.3,296.86,388.07,263.25,388.07,263.25Z" fill="#f5f5f5"/>
      <rect id="Rectangle_30518" data-name="Rectangle 30518" width="295.5" height="260.68" transform="translate(66.33 121.72)" fill="#fafafa"/>
      <path id="Path_72378" data-name="Path 72378" d="M340.57,81.22H87.59l-21.26,40.5h295.5Z" fill="#f0f0f0"/>
      <path id="Path_72379" data-name="Path 72379" d="M317.45,355.64V328.87H300.09V302.11H173.7v26.76h17.36v26.77h17.37V382.4H334.81V355.64Z" fill="#f5f5f5"/>
      <path id="Path_72380" data-name="Path 72380" d="M173.7,302.11v26.76h17.36v26.77h17.37V382.4H66.33V302.11Z" fill="#ebebeb"/>
      <rect id="Rectangle_30519" data-name="Rectangle 30519" width="126.39" height="2.87" transform="translate(173.7 326)" fill="#f0f0f0"/>
      <rect id="Rectangle_30520" data-name="Rectangle 30520" width="126.39" height="2.87" transform="translate(191.06 352.76)" fill="#f0f0f0"/>
      <rect id="Rectangle_30521" data-name="Rectangle 30521" width="83.11" height="156.78" transform="translate(81.89 145.33)" fill="#f0f0f0"/>
      <rect id="Rectangle_30522" data-name="Rectangle 30522" width="1.56" height="156.78" transform="translate(81.89 302.11) rotate(180)" fill="#e6e6e6"/>
      <circle id="Ellipse_8205" data-name="Ellipse 8205" cx="4.61" cy="4.61" r="4.61" transform="translate(147.97 219.11)" fill="#fafafa"/>
      <rect id="Rectangle_30523" data-name="Rectangle 30523" width="120.81" height="120.56" transform="translate(193.85 145.33)" fill="#f5f5f5"/>
      <rect id="Rectangle_30524" data-name="Rectangle 30524" width="109.24" height="110.73" transform="translate(309.63 150.99) rotate(90)" fill="#fff"/>
      <path id="Path_72381" data-name="Path 72381" d="M198.89,151V260.23h3.26s14.94-35.75,19.1-109.24Z" fill="#fafafa"/>
      <path id="Path_72382" data-name="Path 72382" d="M309.63,151V260.23h-3.27S291.43,224.48,287.27,151Z" fill="#fafafa"/>
      <rect id="Rectangle_30525" data-name="Rectangle 30525" width="116.64" height="7.6" transform="translate(195.94 201.81)" fill="#f5f5f5"/>
      <rect id="Rectangle_30526" data-name="Rectangle 30526" width="116.64" height="7.6" transform="translate(258.06 147.29) rotate(90)" fill="#f5f5f5"/>
    </g>
    <g id="freepik--Shadow--inject-2">
      <ellipse id="freepik--path--inject-2" cx="193.89" cy="11.32" rx="193.89" ry="11.32" transform="translate(56.11 404.92)" fill="#f5f5f5"/>
    </g>
    <g id="freepik--Mailbox--inject-2">
      <path id="Path_72383" data-name="Path 72383" d="M153.09,356.85H184.6a4.48,4.48,0,0,1,4.48,4.48v54.91H148.61V361.32A4.48,4.48,0,0,1,153.09,356.85Z" transform="translate(337.68 773.09) rotate(180)" fill="#9f7a32"/>
      <path id="Path_72384" data-name="Path 72384" d="M189.07,356.85H148.61v23.83l40.46-8.77Z" opacity="0.2"/>
      <path id="Path_72385" data-name="Path 72385" d="M206.48,284.81a57,57,0,0,1,114,0v72h-114Z" fill="#9f7a32"/>
      <path id="Path_72386" data-name="Path 72386" d="M206.48,284.81a57,57,0,0,1,114,0v72h-114Z" opacity="0.3"/>
      <path id="Path_72387" data-name="Path 72387" d="M72.29,284.8v64.95a7.1,7.1,0,0,0,7.11,7.1H206.48V284.8a57,57,0,0,1,57-57H129.29a57,57,0,0,0-57,57Z" fill="#9f7a32"/>
      <rect id="Rectangle_30527" data-name="Rectangle 30527" width="134.19" height="20" transform="translate(206.49 335.59) rotate(180)" opacity="0.2"/>
      <rect id="Rectangle_30528" data-name="Rectangle 30528" width="134.19" height="20" transform="translate(206.49 309.38) rotate(180)" opacity="0.2"/>
      <rect id="Rectangle_30529" data-name="Rectangle 30529" width="16.33" height="1" transform="translate(198.56 224.3)" fill="#9f7a32"/>
      <rect id="Rectangle_30530" data-name="Rectangle 30530" width="8.78" height="1" transform="translate(181.22 224.3)" fill="#9f7a32"/>
      <path id="Path_72388" data-name="Path 72388" d="M137.92,303.54v-81a2.22,2.22,0,0,0-2.59-2.19L107.06,225v11.73h21.61v66.63a10.61,10.61,0,1,0,9.25.19Z" fill="#263238"/>
      <path id="Path_72389" data-name="Path 72389" d="M214.59,365H360.83a4.05,4.05,0,0,0,4.06-4h0a4.06,4.06,0,0,0-4.06-4.06H206.48A8.11,8.11,0,0,0,214.59,365Z" fill="#9f7a32"/>
      <path id="Path_72390" data-name="Path 72390" d="M214.59,365h59.76a4.05,4.05,0,0,0,4.06-4h0a4.06,4.06,0,0,0-4.06-4.06H206.48A8.11,8.11,0,0,0,214.59,365Z" opacity="0.2"/>
    </g>
    <g id="freepik--Character--inject-2">
      <path id="Path_72391" data-name="Path 72391" d="M354.48,407.38l-8.46.07-2.31-19.59,8.47-.07Z" fill="#ff8b7b"/>
      <path id="Path_72392" data-name="Path 72392" d="M343.71,387.87l1.19,10.1,8.47-.08-1.19-10.09Z" opacity="0.2"/>
      <path id="Path_72393" data-name="Path 72393" d="M423.24,386.61l-7.28,4.32-11.85-15.77,7.28-4.32Z" fill="#ff8b7b"/>
      <path id="Path_72394" data-name="Path 72394" d="M404.12,375.16l6.1,8.13,7.29-4.32-6.11-8.13Z" opacity="0.2"/>
      <path id="Path_72395" data-name="Path 72395" d="M346,406.47l9.25-.08a.8.8,0,0,1,.76.57l2.24,7.51a1.15,1.15,0,0,1-1.11,1.51c-3.34,0-8.17-.18-12.37-.14-4.9,0-7.08.35-12.83.4-3.48,0-4.7-3.48-3.27-3.81,6.51-1.5,9.88-1.7,15.34-5.28a3.72,3.72,0,0,1,1.99-.68Z" fill="#263238"/>
      <path id="Path_72396" data-name="Path 72396" d="M342.51,408a13.391,13.391,0,0,0,2.71-.33.18.18,0,0,0,.15-.17.2.2,0,0,0-.11-.2c-.4-.2-4-1.9-4.93-1.3a.61.61,0,0,0-.28.54,1.19,1.19,0,0,0,.45,1,3.26,3.26,0,0,0,2.01.46Zm2-.6c-1.83.32-3.22.25-3.78-.2a.81.81,0,0,1-.3-.66.22.22,0,0,1,.09-.2c.55-.34,2.56.38,4.01,1.04Z" fill="#9f7a32"/>
      <path id="Path_72397" data-name="Path 72397" d="M345.18,407.66a.28.28,0,0,0,.12,0,.18.18,0,0,0,.07-.19c0-.16-.66-3.8-2.68-3.57-.53.06-.68.32-.71.54-.14,1,2,2.78,3.12,3.24Zm-2.32-3.41c1.21,0,1.82,2,2,2.84-1.11-.63-2.6-2.07-2.52-2.63,0,0,0-.17.36-.21Z" fill="#9f7a32"/>
      <path id="Path_72398" data-name="Path 72398" d="M358.28,173.63c-1.11,6.43-2.52,12.6-4.23,18.83q-1.28,4.66-2.83,9.29c-.54,1.55-1.05,3.09-1.66,4.63-.29.77-.58,1.54-.91,2.31l-.47,1.16-.24.57-.13.31-.18.39a27.62,27.62,0,0,1-3,5c-1,1.41-2.09,2.71-3.16,4-2.14,2.52-4.37,4.86-6.63,7.16a184.245,184.245,0,0,1-14.22,12.87l-4.51-4.49c3.85-4.89,7.73-9.83,11.48-14.72,1.87-2.44,3.69-4.92,5.39-7.37.85-1.22,1.66-2.45,2.37-3.65a20,20,0,0,0,1.64-3.22c.06-.12.2-.6.31-.92l.34-1.06c.24-.69.45-1.41.66-2.13.43-1.43.83-2.89,1.24-4.34.78-2.93,1.51-5.89,2.22-8.87,1.38-6,2.71-12.06,3.91-18Z" fill="#ff8b7b"/>
      <path id="Path_72399" data-name="Path 72399" d="M361.27,174.8c-.51,9.66-5.19,23.22-5.19,23.22l-13.14-5-5.41-2a76.331,76.331,0,0,1,4.52-18.69c4-10.3,13.27-12.81,18-5.23C361.15,168.81,361.44,171.59,361.27,174.8Z" fill="#9f7a32"/>
      <path id="Path_72400" data-name="Path 72400" d="M361.27,174.8c-.51,9.66-5.19,23.22-5.19,23.22l-13.14-5A74,74,0,0,1,346,183C349.28,174.42,356.28,171.25,361.27,174.8Z" opacity="0.2"/>
      <path id="Path_72401" data-name="Path 72401" d="M318.24,234.71l-8.92,1.46-.07,8.75s8.56-1.2,11.91-5.3Z" fill="#ff8b7b"/>
      <path id="Path_72402" data-name="Path 72402" d="M301.06,241.24l.19,5.75,8-2.07.06-8.75Z" fill="#ff8b7b"/>
      <path id="Path_72403" data-name="Path 72403" d="M351.88,236.17s-12.71,46.27-16.08,72.17c-3.5,26.94,4.76,84.71,4.76,84.71l15.29-.33S357,333.83,362,307.34c5.48-28.87,15.92-71.73,15.92-71.73Z" fill="#263238"/>
      <path id="Path_72404" data-name="Path 72404" d="M357.73,393.41l-17.98.36-1.32-5.97,19.07-.05Z" fill="#9f7a32"/>
      <path id="Path_72405" data-name="Path 72405" d="M357.73,393.41l-17.98.36-1.32-5.97,19.07-.05Z" fill="#fff" opacity="0.4"/>
      <path id="Path_72406" data-name="Path 72406" d="M415.45,390.09l7.95-4.72a.8.8,0,0,1,1,.11l5.71,5.36a1.15,1.15,0,0,1-.2,1.87c-2.9,1.66-7.15,4-10.76,6.09-4.21,2.51-6,3.87-10.89,6.8-3,1.78-5.81-.63-4.74-1.64,4.87-4.58,7.68-6.45,10.6-12.28A3.67,3.67,0,0,1,415.45,390.09Z" fill="#263238"/>
      <path id="Path_72407" data-name="Path 72407" d="M413.19,393.15a14.549,14.549,0,0,0,2.18-1.64.22.22,0,0,0,.05-.23.19.19,0,0,0-.2-.12c-.45,0-4.38.34-4.91,1.36a.58.58,0,0,0,0,.61,1.19,1.19,0,0,0,.87.61A3.28,3.28,0,0,0,413.19,393.15Zm1.45-1.54c-1.42,1.2-2.66,1.84-3.37,1.73a.81.81,0,0,1-.59-.41.22.22,0,0,1,0-.23C411,392.16,413.05,391.77,414.64,391.61Z" fill="#9f7a32"/>
      <path id="Path_72408" data-name="Path 72408" d="M415.34,391.53a.27.27,0,0,0,.08-.1.18.18,0,0,0,0-.2c-.1-.12-2.49-3-4.11-1.74-.43.32-.43.63-.35.83.36.89,3.16,1.38,4.33,1.24Zm-3.72-1.78c1.05-.61,2.57.79,3.19,1.43-1.29,0-3.29-.48-3.51-1,0,0-.06-.15.21-.35Z" fill="#9f7a32"/>
      <path id="Path_72409" data-name="Path 72409" d="M367.69,235.83s0,45.46,1.19,71.55C370.1,334.52,404,381.22,404,381.22l13.05-8s-22.9-44.44-22.55-71.39c.38-29.39,2.66-66.66,2.66-66.66Z" fill="#263238"/>
      <path id="Path_72410" data-name="Path 72410" d="M418.73,373.21l-14.45,8.82-3.61-3.59,15.9-10.6Z" fill="#9f7a32"/>
      <path id="Path_72411" data-name="Path 72411" d="M418.73,373.21l-14.45,8.82-3.61-3.59,15.9-10.6Z" fill="#fff" opacity="0.4"/>
      <path id="Path_72412" data-name="Path 72412" d="M350.83,163s-9.45,25.78,1.05,73.18l45.28-1c.16-6.95-4.93-40.76,1.08-73.65A116.585,116.585,0,0,0,383,160a163.489,163.489,0,0,0-19.24.41A84.52,84.52,0,0,0,350.83,163Z" fill="#9f7a32"/>
      <path id="Path_72413" data-name="Path 72413" d="M380.67,138.33c-1.08,6.21-2.05,17.59,2.37,21.63,0,0-1.56,6.35-13.06,6.56-9.19.17-6.18-6.15-6.18-6.15,6.87-1.8,6.58-6.92,5.27-11.7Z" fill="#ff8b7b"/>
      <path id="Path_72414" data-name="Path 72414" d="M375.94,142.54l-6.86,6.12a19.61,19.61,0,0,1,.66,3.4c2.63-.43,6.2-3.41,6.42-6.18A9.219,9.219,0,0,0,375.94,142.54Z" opacity="0.2"/>
      <path id="Path_72415" data-name="Path 72415" d="M388.14,177.93l7.55,5.44c-.33,5.79-.43,11.42-.38,16.7C390.68,195.41,388.09,186.84,388.14,177.93Z" opacity="0.2"/>
      <path id="Path_72416" data-name="Path 72416" d="M381.39,156.87s-2.17,5.22-12.3,9.66a12.62,12.62,0,0,1,7.12,7.3s7.37-7,9.34-14Z" fill="#fff"/>
      <path id="Path_72417" data-name="Path 72417" d="M361.52,171.94s3.1-4.5,7.57-5.41c-1.57-1.92-3.19-6.18-1.69-8.2a19.3,19.3,0,0,0-3.81,1.45S357.51,163.43,361.52,171.94Z" fill="#fff"/>
      <path id="Path_72418" data-name="Path 72418" d="M360.63,120.55c-4.13,1.77-6.18,12.89-.8,15.31S368.45,117.21,360.63,120.55Z" fill="#263238"/>
      <path id="Path_72419" data-name="Path 72419" d="M381.21,129c-.34,8.4-.11,13.33-4.25,17.72-6.23,6.61-16.66,3-18.84-5.33-2-7.5-1.08-20,7.05-23.48A11.46,11.46,0,0,1,381.21,129Z" fill="#ff8b7b"/>
      <path id="Path_72420" data-name="Path 72420" d="M368.54,131.61c0,.68-.33,1.24-.78,1.25s-.82-.54-.83-1.22.33-1.24.78-1.25S368.53,130.92,368.54,131.61Z" fill="#263238"/>
      <path id="Path_72421" data-name="Path 72421" d="M360.82,131.77c0,.68-.33,1.24-.78,1.25s-.82-.53-.83-1.22.33-1.24.78-1.25S360.81,131.09,360.82,131.77Z" fill="#263238"/>
      <path id="Path_72422" data-name="Path 72422" d="M363.29,132.06a24.5,24.5,0,0,1-3.14,5.91,3.93,3.93,0,0,0,3.27.54Z" fill="#ff5652"/>
      <path id="Path_72423" data-name="Path 72423" d="M365.45,140.35h0a5.71,5.71,0,0,0,4.7-2.4.19.19,0,0,0-.07-.27.2.2,0,0,0-.27.06,5.42,5.42,0,0,1-4.37,2.21.2.2,0,0,0,.01.4Z" fill="#263238"/>
      <path id="Path_72424" data-name="Path 72424" d="M370.81,129.07a.43.43,0,0,0,.25-.09.4.4,0,0,0,.06-.56,4,4,0,0,0-3.3-1.59.4.4,0,0,0,.07.8h0a3.22,3.22,0,0,1,2.6,1.28.39.39,0,0,0,.32.16Z" fill="#263238"/>
      <path id="Path_72425" data-name="Path 72425" d="M357.38,129.19a.42.42,0,0,0,.37-.23A3.15,3.15,0,0,1,360,127.1a.41.41,0,0,0,.34-.46.42.42,0,0,0-.46-.34,4,4,0,0,0-2.83,2.32.39.39,0,0,0,.19.53A.38.38,0,0,0,357.38,129.19Z" fill="#263238"/>
      <path id="Path_72426" data-name="Path 72426" d="M399.69,167.5c1.89,2.72,3.55,5.38,5.26,8.12s3.29,5.5,4.86,8.3a158.807,158.807,0,0,1,8.48,17.55c.32.75.6,1.55.89,2.33l.44,1.18.22.6.26.82a18.11,18.11,0,0,1,.68,6.65,25.241,25.241,0,0,1-3.81,11,43.566,43.566,0,0,1-6.51,8.14c-1.19,1.2-2.45,2.31-3.73,3.38a48,48,0,0,1-4.05,3l-4.07-4.88c.89-1,1.9-2.24,2.8-3.39s1.78-2.38,2.61-3.58a43.411,43.411,0,0,0,4.15-7.34,16.47,16.47,0,0,0,1.53-6.84,7.93,7.93,0,0,0-.56-2.63l-.8-1.78c-.31-.66-.59-1.33-.93-2-2.58-5.35-5.56-10.67-8.69-15.93s-6.41-10.54-9.66-15.59Z" fill="#ff8b7b"/>
      <path id="Path_72427" data-name="Path 72427" d="M398.24,161.55c7.91,1.71,19.29,26.11,19.29,26.11L396.34,198A95.119,95.119,0,0,1,387,179.64C383.31,169.33,389.77,159.71,398.24,161.55Z" fill="#9f7a32"/>
      <path id="Path_72428" data-name="Path 72428" d="M390.71,224.3,412,287.19a9.86,9.86,0,0,1-6.15,12.46L262.74,348.17A9.85,9.85,0,0,1,250.28,342L229,279.13a9.54,9.54,0,0,1-.5-3.71,9.86,9.86,0,0,1,6.65-8.75l143.14-48.52a9.84,9.84,0,0,1,10.59,2.9,9.509,9.509,0,0,1,1.83,3.25Z" fill="#9f7a32"/>
      <path id="Path_72429" data-name="Path 72429" d="M390.71,224.3,412,287.19a9.86,9.86,0,0,1-6.15,12.46L262.74,348.17A9.85,9.85,0,0,1,250.28,342L229,279.13a9.54,9.54,0,0,1-.5-3.71,9.86,9.86,0,0,1,6.65-8.75l143.14-48.52a9.84,9.84,0,0,1,10.59,2.9,9.509,9.509,0,0,1,1.83,3.25Z" fill="#fff" opacity="0.8"/>
      <path id="Path_72430" data-name="Path 72430" d="M388.84,221.05,329.63,274a29.64,29.64,0,0,1-22,7.45l-79.18-6a9.86,9.86,0,0,1,6.65-8.75l143.14-48.52a9.84,9.84,0,0,1,10.6,2.87Z" fill="#9f7a32" opacity="0.6"/>
      <path id="Path_72431" data-name="Path 72431" d="M400.75,232.52l-9.1.06,5.61,9.19s6.48-1.57,7.08-4.83Z" fill="#ff8b7b"/>
      <path id="Path_72432" data-name="Path 72432" d="M385.96,237.97l4.99,7.39,6.31-3.59-5.61-9.19Z" fill="#ff8b7b"/>
      <path id="Path_72433" data-name="Path 72433" d="M386.94,122.27c2,5.48-4.05,18.17-7.57,17.93s-4.48-13.43-2.48-16.71c-1.9.88-20,.91-19.91-1,.46-6.94,12.77-9.46,26.27-6C386.76,116.32,388.07,117.28,386.94,122.27Z" fill="#263238"/>
      <path id="Path_72434" data-name="Path 72434" d="M385.19,138.15a7.9,7.9,0,0,1-4.9,3.63c-2.72.66-4-1.79-3.14-4.31.75-2.27,3.07-5.34,5.77-4.88S386.51,135.92,385.19,138.15Z" fill="#ff8b7b"/>
      <path id="Path_72435" data-name="Path 72435" d="M346.19,119l41.54,4.8a.8.8,0,0,0,.88-.7h0a.8.8,0,0,0-.69-.88l-41.55-4.79a.8.8,0,0,0-.88.69h0A.8.8,0,0,0,346.19,119Z" fill="#9f7a32"/>
      <path id="Path_72436" data-name="Path 72436" d="M388.61,123.06l.72-6.2a2.72,2.72,0,0,0-2.5-2.68l-25.51-4.82c-1.89-.36-3.63.7-3.62,2.2v7.94Z" fill="#9f7a32"/>
      <path id="Path_72437" data-name="Path 72437" d="M360.08,117.67l10.8,1.25.37-3.15-11.16-1.28Z" fill="#fff"/>
    </g>
  </g>
</svg>
