<svg id="vuesax_broken_calendar-2" data-name="vuesax/broken/calendar-2" xmlns="http://www.w3.org/2000/svg" width="17.46" height="17.46" viewBox="0 0 17.46 17.46">
  <g id="calendar-2">
    <path id="Vector" d="M0,0V2.183" transform="translate(5.82 1.455)" fill="none" stroke="#a1a1a1" stroke-linecap="round" stroke-linejoin="round" stroke-width="1.2"/>
    <path id="Vector-2" data-name="Vector" d="M0,0V2.183" transform="translate(11.64 1.455)" fill="none" stroke="#a1a1a1" stroke-linecap="round" stroke-linejoin="round" stroke-width="1.2"/>
    <path id="Vector-3" data-name="Vector" d="M0,0H12.368" transform="translate(2.546 6.613)" fill="none" stroke="#a1a1a1" stroke-linecap="round" stroke-linejoin="round" stroke-width="1.2"/>
    <path id="Vector-4" data-name="Vector" d="M0,0H17.46V17.46H0Z" fill="none" opacity="0"/>
    <path id="Vector-5" data-name="Vector" d="M0,6.919V3.638C0,1.455,1.091,0,3.638,0h5.82C12,0,13.1,1.455,13.1,3.638V9.821C13.1,12,12,13.459,9.458,13.459H3.638C1.091,13.459,0,12,0,9.821" transform="translate(2.183 2.546)" fill="none" stroke="#a1a1a1" stroke-linecap="round" stroke-linejoin="round" stroke-width="1.2"/>
    <path id="Vector-6" data-name="Vector" d="M.495.5H.5" transform="translate(8.232 9.467)" fill="none" stroke="#a1a1a1" stroke-linecap="round" stroke-linejoin="round" stroke-width="1.2"/>
    <path id="Vector-7" data-name="Vector" d="M.495.5H.5" transform="translate(5.54 9.467)" fill="none" stroke="#a1a1a1" stroke-linecap="round" stroke-linejoin="round" stroke-width="1.2"/>
    <path id="Vector-8" data-name="Vector" d="M.495.5H.5" transform="translate(5.54 11.649)" fill="none" stroke="#a1a1a1" stroke-linecap="round" stroke-linejoin="round" stroke-width="1.2"/>
  </g>
</svg>
