<svg id="vuesax_linear_edit-2" data-name="vuesax/linear/edit-2" xmlns="http://www.w3.org/2000/svg" width="38.434" height="38.434" viewBox="0 0 38.434 38.434">
  <g id="edit-2">
    <path id="Vector" d="M14.834,2.3,1.687,16.221a4.884,4.884,0,0,0-1.073,2.29L.021,23.7a2.446,2.446,0,0,0,2.995,2.834l5.157-.881a4.6,4.6,0,0,0,2.226-1.2L23.546,10.536c2.274-2.4,3.3-5.14-.24-8.487C19.783-1.267,17.108-.1,14.834,2.3Z" transform="translate(6.4 3.46)" fill="none" stroke="#c9b58e" stroke-linecap="round" stroke-linejoin="round" stroke-width="3"/>
    <path id="Vector-2" data-name="Vector" d="M0,0A9.81,9.81,0,0,0,8.728,8.247" transform="translate(19.041 8.087)" fill="none" stroke="#c9b58e" stroke-linecap="round" stroke-linejoin="round" stroke-width="3"/>
    <path id="Vector-3" data-name="Vector" d="M0,0H28.825" transform="translate(4.804 35.231)" fill="none" stroke="#c9b58e" stroke-linecap="round" stroke-linejoin="round" stroke-width="3"/>
    <path id="Vector-4" data-name="Vector" d="M0,0H38.434V38.434H0Z" fill="none" opacity="0"/>
  </g>
</svg>
