<svg xmlns="http://www.w3.org/2000/svg" xmlns:xlink="http://www.w3.org/1999/xlink" width="419" height="281" viewBox="0 0 419 281">
  <defs>
    <clipPath id="clip-path">
      <path id="Rectangle_30588" data-name="Rectangle 30588" d="M31,0H419a0,0,0,0,1,0,0V281a0,0,0,0,1,0,0H31A31,31,0,0,1,0,250V31A31,31,0,0,1,31,0Z" transform="translate(139 3565)" fill="#2ea044" opacity="0.04"/>
    </clipPath>
  </defs>
  <g id="Mask_Group_2260" data-name="Mask Group 2260" transform="translate(-139 -3565)" opacity="0.76" clip-path="url(#clip-path)">
    <g id="Job_hunt-rafiki" data-name="Job hunt-rafiki" transform="translate(10.438 3532.807)">
      <g id="freepik--background-complete--inject-2" transform="translate(0 55)">
        <rect id="Rectangle_30533" data-name="Rectangle 30533" width="623.485" height="0.312" transform="translate(0 408.258)" fill="#ebebeb"/>
        <rect id="Rectangle_30534" data-name="Rectangle 30534" width="41.3" height="0.312" transform="translate(65.416 420.129)" fill="#ebebeb"/>
        <rect id="Rectangle_30535" data-name="Rectangle 30535" width="67.162" height="0.312" transform="translate(213.407 420.291)" fill="#ebebeb"/>
        <rect id="Rectangle_30536" data-name="Rectangle 30536" width="23.929" height="0.312" transform="translate(131.892 426.564)" fill="#ebebeb"/>
        <rect id="Rectangle_30537" data-name="Rectangle 30537" width="23.979" height="0.312" transform="translate(532.17 426.414)" fill="#ebebeb"/>
        <rect id="Rectangle_30538" data-name="Rectangle 30538" width="37.771" height="0.312" transform="translate(483.288 426.414)" fill="#ebebeb"/>
        <rect id="Rectangle_30539" data-name="Rectangle 30539" width="53.071" height="0.312" transform="translate(409.418 424.357)" fill="#ebebeb"/>
        <path id="Path_72438" data-name="Path 72438" d="M286.1,407.643H45.318a7.12,7.12,0,0,1-7.108-7.12V62.058A7.12,7.12,0,0,1,45.318,55H286.1a7.12,7.12,0,0,1,7.12,7.12v338.4A7.12,7.12,0,0,1,286.1,407.643ZM45.318,55.249a6.808,6.808,0,0,0-6.8,6.808V400.523a6.808,6.808,0,0,0,6.8,6.808H286.1a6.821,6.821,0,0,0,6.808-6.808V62.058a6.821,6.821,0,0,0-6.808-6.808Z" transform="translate(9.437 -55)" fill="#ebebeb"/>
        <path id="Path_72439" data-name="Path 72439" d="M502.41,407.643H261.62a7.133,7.133,0,0,1-7.12-7.12V62.058A7.133,7.133,0,0,1,261.62,55H502.41a7.12,7.12,0,0,1,7.1,7.058V400.523A7.12,7.12,0,0,1,502.41,407.643ZM261.62,55.249a6.821,6.821,0,0,0-6.808,6.808V400.523a6.821,6.821,0,0,0,6.808,6.808H502.41a6.821,6.821,0,0,0,6.808-6.808V62.058a6.821,6.821,0,0,0-6.808-6.808Z" transform="translate(62.854 -55)" fill="#ebebeb"/>
        <rect id="Rectangle_30540" data-name="Rectangle 30540" width="35.314" height="175.698" transform="translate(412.174 408.258) rotate(180)" fill="#e6e6e6"/>
        <path id="Path_72440" data-name="Path 72440" d="M308.919,386.179H302.21V367.1h13.742Z" transform="translate(74.637 22.08)" fill="#f0f0f0"/>
        <rect id="Rectangle_30541" data-name="Rectangle 30541" width="35.314" height="175.698" transform="translate(544.153 408.258) rotate(180)" fill="#e6e6e6"/>
        <rect id="Rectangle_30542" data-name="Rectangle 30542" width="137.84" height="163.989" transform="translate(514.7 396.549) rotate(180)" fill="#f0f0f0"/>
        <rect id="Rectangle_30543" data-name="Rectangle 30543" width="31.885" height="61.463" transform="translate(382.059 372.695) rotate(-90)" fill="#e6e6e6"/>
        <rect id="Rectangle_30544" data-name="Rectangle 30544" width="31.885" height="61.463" transform="translate(448.024 372.695) rotate(-90)" fill="#e6e6e6"/>
        <path id="Path_72441" data-name="Path 72441" d="M381.826,333.78h12.158a19.2,19.2,0,0,0,13.966-6.01H367.86A19.2,19.2,0,0,0,381.826,333.78Z" transform="translate(90.851 12.366)" fill="#f0f0f0"/>
        <path id="Path_72442" data-name="Path 72442" d="M328.426,333.78h12.158a19.2,19.2,0,0,0,13.966-6.01H314.46A19.2,19.2,0,0,0,328.426,333.78Z" transform="translate(77.662 12.366)" fill="#f0f0f0"/>
        <rect id="Rectangle_30545" data-name="Rectangle 30545" width="31.885" height="61.463" transform="translate(382.047 323.128) rotate(-90)" fill="#e6e6e6"/>
        <rect id="Rectangle_30546" data-name="Rectangle 30546" width="31.885" height="61.463" transform="translate(448.024 323.14) rotate(-90)" fill="#e6e6e6"/>
        <path id="Path_72443" data-name="Path 72443" d="M381.826,294.035h12.158A19.24,19.24,0,0,0,407.938,288H367.86a19.241,19.241,0,0,0,13.966,6.035Z" transform="translate(90.851 2.544)" fill="#f0f0f0"/>
        <path id="Path_72444" data-name="Path 72444" d="M328.426,294.028h12.158a19.241,19.241,0,0,0,13.966-6H314.46a19.241,19.241,0,0,0,13.966,6Z" transform="translate(77.662 2.552)" fill="#f0f0f0"/>
        <rect id="Rectangle_30547" data-name="Rectangle 30547" width="31.885" height="61.463" transform="translate(382.059 273.573) rotate(-90)" fill="#e6e6e6"/>
        <rect id="Rectangle_30548" data-name="Rectangle 30548" width="31.885" height="61.463" transform="translate(448.024 273.573) rotate(-90)" fill="#e6e6e6"/>
        <path id="Path_72445" data-name="Path 72445" d="M381.826,254.29h12.158a19.2,19.2,0,0,0,13.966-6.01H367.86A19.2,19.2,0,0,0,381.826,254.29Z" transform="translate(90.851 -7.266)" fill="#f0f0f0"/>
        <path id="Path_72446" data-name="Path 72446" d="M328.426,254.29h12.158a19.2,19.2,0,0,0,13.966-6.01H314.46A19.2,19.2,0,0,0,328.426,254.29Z" transform="translate(77.662 -7.265)" fill="#f0f0f0"/>
        <path id="Path_72447" data-name="Path 72447" d="M408.773,386.179h6.709V367.1H401.74Z" transform="translate(99.218 22.08)" fill="#f0f0f0"/>
        <path id="Path_72448" data-name="Path 72448" d="M418.6,144.77l5.4,14.764h-5.4L385.47,144.77Z" transform="translate(95.2 -32.829)" fill="#f5f5f5"/>
        <path id="Path_72449" data-name="Path 72449" d="M422.93,144.77v14.764L389.81,144.77Z" transform="translate(96.272 -32.829)" fill="#e6e6e6"/>
        <path id="Path_72450" data-name="Path 72450" d="M314.43,144.77l5.4,14.764h-5.4L281.31,144.77Z" transform="translate(69.475 -32.829)" fill="#f5f5f5"/>
        <path id="Path_72451" data-name="Path 72451" d="M318.76,144.77v14.764L285.64,144.77Z" transform="translate(70.545 -32.829)" fill="#e6e6e6"/>
        <rect id="Rectangle_30549" data-name="Rectangle 30549" width="36.025" height="11.235" transform="translate(507.492 101.391)" fill="#e6e6e6"/>
        <rect id="Rectangle_30550" data-name="Rectangle 30550" width="179.102" height="11.235" transform="translate(507.492 112.639) rotate(180)" fill="#f5f5f5"/>
        <path id="Path_72452" data-name="Path 72452" d="M377.81,105s.362,39.055,13.841,39.055S405.48,105,405.48,105Z" transform="translate(93.308 -42.651)" fill="#f0f0f0"/>
        <path id="Path_72453" data-name="Path 72453" d="M310.78,126.1s.948,12.732,37.21,12.732S385.2,126.1,385.2,126.1Z" transform="translate(76.754 -37.44)" fill="#f0f0f0"/>
        <path id="Path_72454" data-name="Path 72454" d="M224.36,398.112h2.407l6.9-33.98,1.247-5.961,7.482-37.035h28.9l15.625,76.976h2.419l-15.924-78.385a1.172,1.172,0,0,0-1.16-.948H241.431a1.16,1.16,0,0,0-1.147.948l-6.609,32.521-1.247,5.948Z" transform="translate(55.41 10.146)" fill="#f0f0f0"/>
        <path id="Path_72455" data-name="Path 72455" d="M187.23,398.1h2.407l15.637-76.976H234.1l7.482,37.06,1.247,5.936,6.908,33.98h2.407l-8.105-39.9-1.247-5.923-6.609-32.521a1.247,1.247,0,0,0-1.16-.948H204.313a1.172,1.172,0,0,0-1.16.948Z" transform="translate(46.24 10.153)" fill="#f0f0f0"/>
        <path id="Path_72456" data-name="Path 72456" d="M283.511,311.58H199.627a7.27,7.27,0,0,0-7.257,7.257v.249a2.656,2.656,0,0,0,2.656,2.656h93.086a2.656,2.656,0,0,0,2.656-2.656v-.249a7.27,7.27,0,0,0-7.257-7.257Z" transform="translate(47.51 8.368)" fill="#f0f0f0"/>
        <path id="Path_72457" data-name="Path 72457" d="M156.85,398.112h2.407l6.9-33.98,1.247-5.961,7.482-37.035h28.83l15.674,76.976H221.8l-15.924-78.385a1.172,1.172,0,0,0-1.16-.948h-30.8a1.16,1.16,0,0,0-1.147.948l-6.609,32.521-1.247,5.948Z" transform="translate(38.737 10.146)" fill="#f0f0f0"/>
        <path id="Path_72458" data-name="Path 72458" d="M119.72,398.112h2.419l15.625-76.976h28.842l7.482,37.06,1.247,5.936,6.908,33.98h2.407l-8.105-39.9-1.247-5.923-6.6-32.558a1.247,1.247,0,0,0-1.16-.948H136.8a1.172,1.172,0,0,0-1.16.948Z" transform="translate(29.567 10.146)" fill="#f0f0f0"/>
        <path id="Path_72459" data-name="Path 72459" d="M216.063,311.58H132.117a7.27,7.27,0,0,0-7.257,7.257v.249a2.656,2.656,0,0,0,2.656,2.656h93.1a2.644,2.644,0,0,0,2.644-2.656v-.249a7.27,7.27,0,0,0-7.2-7.257Z" transform="translate(30.837 8.368)" fill="#f0f0f0"/>
        <rect id="Rectangle_30551" data-name="Rectangle 30551" width="120.52" height="193.068" transform="translate(225.677 221.462) rotate(180)" fill="#e6e6e6"/>
        <rect id="Rectangle_30552" data-name="Rectangle 30552" width="124.71" height="193.068" transform="translate(221.998 221.462) rotate(180)" fill="#f0f0f0"/>
        <rect id="Rectangle_30553" data-name="Rectangle 30553" width="120.52" height="14.639" transform="translate(225.677 236.089) rotate(180)" fill="#e6e6e6"/>
        <rect id="Rectangle_30554" data-name="Rectangle 30554" width="124.71" height="14.639" transform="translate(208.88 236.089) rotate(180)" fill="#f0f0f0"/>
        <rect id="Rectangle_30555" data-name="Rectangle 30555" width="171.022" height="102.663" transform="translate(210.963 39.417) rotate(90)" fill="#fafafa"/>
        <path id="Path_72460" data-name="Path 72460" d="M183.093,257.62,146.981,86.61H116.43l36.112,171.01Z" transform="translate(28.755 -47.193)" fill="#fff"/>
        <path id="Path_72461" data-name="Path 72461" d="M163.376,235.93a.786.786,0,0,0,.786-.786V92.516a.786.786,0,0,0-1.571,0V235.144a.786.786,0,0,0,.786.786Z" transform="translate(40.155 -45.929)" fill="#f0f0f0"/>
        <path id="Path_72462" data-name="Path 72462" d="M149.641,257.62,113.529,86.61H101.62l36.1,171.01Z" transform="translate(25.097 -47.193)" fill="#fff"/>
        <rect id="Rectangle_30556" data-name="Rectangle 30556" width="171.022" height="1.397" transform="translate(109.709 39.417) rotate(90)" fill="#e6e6e6"/>
        <path id="Path_72463" data-name="Path 72463" d="M75.92,94.23H196.44l1.023-4.19H76.943Z" transform="translate(18.75 -46.346)" fill="#f0f0f0" opacity="0.6"/>
        <path id="Path_72464" data-name="Path 72464" d="M75.92,102.037H196.44l1.023-4.177H76.943Z" transform="translate(18.75 -44.415)" fill="#f0f0f0" opacity="0.6"/>
        <path id="Path_72465" data-name="Path 72465" d="M75.92,109.86H196.44l1.023-4.19H76.943Z" transform="translate(18.75 -42.486)" fill="#f0f0f0" opacity="0.6"/>
        <path id="Path_72466" data-name="Path 72466" d="M75.92,117.667H196.44l1.023-4.177H76.943Z" transform="translate(18.75 -40.555)" fill="#f0f0f0" opacity="0.6"/>
        <path id="Path_72467" data-name="Path 72467" d="M75.92,125.487H196.44l1.023-4.177H76.943Z" transform="translate(18.75 -38.623)" fill="#f0f0f0" opacity="0.6"/>
        <path id="Path_72468" data-name="Path 72468" d="M75.92,133.31H196.44l1.023-4.19H76.943Z" transform="translate(18.75 -36.695)" fill="#f0f0f0" opacity="0.6"/>
      </g>
      <g id="freepik--Shadow--inject-2" transform="translate(69.968 491.34)">
        <ellipse id="freepik--path--inject-2" cx="241.775" cy="14.116" rx="241.775" ry="14.116" transform="translate(0 0)" fill="#f5f5f5"/>
      </g>
      <g id="freepik--Briefcases--inject-2" transform="translate(104.746 61.609)">
        <rect id="Rectangle_30557" data-name="Rectangle 30557" width="80.068" height="35.663" rx="1.56" transform="translate(120.295 252.424)" fill="#2ea144"/>
        <rect id="Rectangle_30558" data-name="Rectangle 30558" width="80.068" height="35.663" rx="1.56" transform="translate(120.295 252.424)" fill="#fff" opacity="0.6"/>
        <path id="Path_72469" data-name="Path 72469" d="M258.588,262.73h-76.2a1.945,1.945,0,0,0-1.945,1.945v10.188l39.654,7.806a1.832,1.832,0,0,0,.736,0l39.666-7.806V264.675a1.945,1.945,0,0,0-1.908-1.945Z" transform="translate(-60.182 -10.306)" opacity="0.1"/>
        <path id="Path_72470" data-name="Path 72470" d="M260.572,254.248H237.3v-3.9a6.1,6.1,0,0,0-6.085-6.085H210.432a6.1,6.1,0,0,0-6.085,6.085v3.9H181.09a1.92,1.92,0,0,0-1.92,1.92v19.216a1.933,1.933,0,0,0,1.546,1.883l39.741,7.819a2.419,2.419,0,0,0,.736,0l39.741-7.818a1.945,1.945,0,0,0,1.559-1.883V256.169A1.92,1.92,0,0,0,260.572,254.248Zm-51.6-3.9a1.484,1.484,0,0,1,1.459-1.471h20.787a1.484,1.484,0,0,1,1.459,1.471v3.9H208.985Z" transform="translate(-60.496 -14.867)" fill="#2ea144"/>
        <path id="Path_72471" data-name="Path 72471" d="M260.572,254.248H237.3v-3.9a6.1,6.1,0,0,0-6.085-6.085H210.432a6.1,6.1,0,0,0-6.085,6.085v3.9H181.09a1.92,1.92,0,0,0-1.92,1.92v19.216a1.933,1.933,0,0,0,1.546,1.883l39.741,7.819a2.419,2.419,0,0,0,.736,0l39.741-7.818a1.945,1.945,0,0,0,1.559-1.883V256.169A1.92,1.92,0,0,0,260.572,254.248Zm-51.6-3.9a1.484,1.484,0,0,1,1.459-1.471h20.787a1.484,1.484,0,0,1,1.459,1.471v3.9H208.985Z" transform="translate(-60.496 -14.867)" fill="#fff" opacity="0.6"/>
        <rect id="Rectangle_30559" data-name="Rectangle 30559" width="11.896" height="8.878" rx="1.48" transform="translate(154.387 264.969)" fill="#2ea144"/>
        <rect id="Rectangle_30560" data-name="Rectangle 30560" width="11.896" height="8.878" rx="1.48" transform="translate(154.387 264.969)" fill="#fff" opacity="0.3"/>
        <rect id="Rectangle_30561" data-name="Rectangle 30561" width="80.068" height="35.663" rx="1.56" transform="translate(120.295 23.032)" fill="#2ea144"/>
        <rect id="Rectangle_30562" data-name="Rectangle 30562" width="80.068" height="35.663" rx="1.56" transform="translate(120.295 23.032)" fill="#fff" opacity="0.6"/>
        <path id="Path_72472" data-name="Path 72472" d="M258.588,78.77h-76.2a1.945,1.945,0,0,0-1.945,1.945V90.9l39.654,7.806a1.833,1.833,0,0,0,.736,0L260.5,90.9V80.715a1.945,1.945,0,0,0-1.908-1.945Z" transform="translate(-60.182 -55.738)" opacity="0.1"/>
        <path id="Path_72473" data-name="Path 72473" d="M260.572,70.288H237.3v-3.9a6.1,6.1,0,0,0-6.085-6.085H210.432a6.1,6.1,0,0,0-6.085,6.085v3.9H181.09a1.92,1.92,0,0,0-1.92,1.92V91.424a1.92,1.92,0,0,0,1.546,1.883l39.741,7.769a1.833,1.833,0,0,0,.736,0l39.741-7.818a1.933,1.933,0,0,0,1.571-1.833V72.209a1.92,1.92,0,0,0-1.933-1.92Zm-51.6-3.9a1.471,1.471,0,0,1,1.459-1.471h20.787a1.471,1.471,0,0,1,1.459,1.459v3.9H208.985Z" transform="translate(-60.496 -60.3)" fill="#2ea144"/>
        <path id="Path_72474" data-name="Path 72474" d="M260.572,70.288H237.3v-3.9a6.1,6.1,0,0,0-6.085-6.085H210.432a6.1,6.1,0,0,0-6.085,6.085v3.9H181.09a1.92,1.92,0,0,0-1.92,1.92V91.424a1.92,1.92,0,0,0,1.546,1.883l39.741,7.769a1.833,1.833,0,0,0,.736,0l39.741-7.818a1.933,1.933,0,0,0,1.571-1.833V72.209a1.92,1.92,0,0,0-1.933-1.92Zm-51.6-3.9a1.471,1.471,0,0,1,1.459-1.471h20.787a1.471,1.471,0,0,1,1.459,1.459v3.9H208.985Z" transform="translate(-60.496 -60.3)" fill="#fff" opacity="0.6"/>
        <rect id="Rectangle_30563" data-name="Rectangle 30563" width="11.896" height="8.878" rx="1.48" transform="translate(154.387 35.589)" fill="#2ea144"/>
        <rect id="Rectangle_30564" data-name="Rectangle 30564" width="11.896" height="8.878" rx="1.48" transform="translate(154.387 35.589)" fill="#fff" opacity="0.3"/>
        <rect id="Rectangle_30565" data-name="Rectangle 30565" width="80.068" height="35.663" rx="1.56" transform="translate(1.634 252.424)" fill="#2ea144"/>
        <rect id="Rectangle_30566" data-name="Rectangle 30566" width="80.068" height="35.663" rx="1.56" transform="translate(1.634 252.424)" fill="#fff" opacity="0.6"/>
        <path id="Path_72475" data-name="Path 72475" d="M163.483,262.73H87.255a1.945,1.945,0,0,0-1.945,1.945v10.188l39.654,7.806a1.894,1.894,0,0,0,.748,0l39.666-7.806V264.675A1.945,1.945,0,0,0,163.483,262.73Z" transform="translate(-83.676 -10.306)" opacity="0.1"/>
        <path id="Path_72476" data-name="Path 72476" d="M165.4,254.248H142.134v-3.9a6.1,6.1,0,0,0-6.085-6.085H115.274a6.1,6.1,0,0,0-6.085,6.085v3.9H85.92a1.92,1.92,0,0,0-1.92,1.92v19.216a1.933,1.933,0,0,0,1.546,1.883l39.741,7.819a2.5,2.5,0,0,0,.748,0l39.741-7.818a1.933,1.933,0,0,0,1.546-1.883V256.169A1.92,1.92,0,0,0,165.4,254.248Zm-51.6-3.9a1.5,1.5,0,0,1,1.471-1.471h20.775a1.5,1.5,0,0,1,1.471,1.471v3.9H113.828Z" transform="translate(-84 -14.867)" fill="#2ea144"/>
        <path id="Path_72477" data-name="Path 72477" d="M165.4,254.248H142.134v-3.9a6.1,6.1,0,0,0-6.085-6.085H115.274a6.1,6.1,0,0,0-6.085,6.085v3.9H85.92a1.92,1.92,0,0,0-1.92,1.92v19.216a1.933,1.933,0,0,0,1.546,1.883l39.741,7.819a2.5,2.5,0,0,0,.748,0l39.741-7.818a1.933,1.933,0,0,0,1.546-1.883V256.169A1.92,1.92,0,0,0,165.4,254.248Zm-51.6-3.9a1.5,1.5,0,0,1,1.471-1.471h20.775a1.5,1.5,0,0,1,1.471,1.471v3.9H113.828Z" transform="translate(-84 -14.867)" fill="#fff" opacity="0.6"/>
        <rect id="Rectangle_30567" data-name="Rectangle 30567" width="11.896" height="8.878" rx="1.48" transform="translate(35.713 264.969)" fill="#2ea144"/>
        <rect id="Rectangle_30568" data-name="Rectangle 30568" width="11.896" height="8.878" rx="1.48" transform="translate(35.713 264.969)" fill="#fff" opacity="0.3"/>
        <rect id="Rectangle_30569" data-name="Rectangle 30569" width="80.068" height="35.663" rx="1.56" transform="translate(1.634 23.032)" fill="#2ea144"/>
        <rect id="Rectangle_30570" data-name="Rectangle 30570" width="80.068" height="35.663" rx="1.56" transform="translate(1.634 23.032)" fill="#fff" opacity="0.6"/>
        <path id="Path_72478" data-name="Path 72478" d="M163.483,78.77H87.255a1.945,1.945,0,0,0-1.945,1.945V90.9l39.654,7.806a1.883,1.883,0,0,0,.748,0L165.378,90.9V80.715A1.945,1.945,0,0,0,163.483,78.77Z" transform="translate(-83.676 -55.738)" opacity="0.1"/>
        <path id="Path_72479" data-name="Path 72479" d="M165.4,70.288H142.134v-3.9a6.1,6.1,0,0,0-6.085-6.085H115.274a6.1,6.1,0,0,0-6.085,6.085v3.9H85.92A1.92,1.92,0,0,0,84,72.209V91.424a1.92,1.92,0,0,0,1.546,1.883l39.741,7.769a1.883,1.883,0,0,0,.748,0l39.741-7.818a1.92,1.92,0,0,0,1.546-1.883V72.209a1.92,1.92,0,0,0-1.92-1.92Zm-51.6-3.9a1.484,1.484,0,0,1,1.471-1.471h20.775a1.484,1.484,0,0,1,1.471,1.459v3.9H113.828Z" transform="translate(-84 -60.3)" fill="#2ea144"/>
        <path id="Path_72480" data-name="Path 72480" d="M165.4,70.288H142.134v-3.9a6.1,6.1,0,0,0-6.085-6.085H115.274a6.1,6.1,0,0,0-6.085,6.085v3.9H85.92A1.92,1.92,0,0,0,84,72.209V91.424a1.92,1.92,0,0,0,1.546,1.883l39.741,7.769a1.883,1.883,0,0,0,.748,0l39.741-7.818a1.92,1.92,0,0,0,1.546-1.883V72.209a1.92,1.92,0,0,0-1.92-1.92Zm-51.6-3.9a1.484,1.484,0,0,1,1.471-1.471h20.775a1.484,1.484,0,0,1,1.471,1.459v3.9H113.828Z" transform="translate(-84 -60.3)" fill="#fff" opacity="0.6"/>
        <rect id="Rectangle_30571" data-name="Rectangle 30571" width="11.896" height="8.878" rx="1.48" transform="translate(35.713 35.589)" fill="#2ea144"/>
        <rect id="Rectangle_30572" data-name="Rectangle 30572" width="11.896" height="8.878" rx="1.48" transform="translate(35.713 35.589)" fill="#fff" opacity="0.3"/>
        <path id="Path_72481" data-name="Path 72481" d="M153.509,206.413H87.258a1.958,1.958,0,0,1-1.958-1.958V172.7a1.933,1.933,0,0,1,.162-.761,2.68,2.68,0,0,1,.175-.324,1.372,1.372,0,0,1,.249-.287,1.945,1.945,0,0,1,1.372-.574h62.71a81.777,81.777,0,0,0-.511,13.118,13.346,13.346,0,0,0,.112,2.12c.087,1.309.187,2.631.337,3.94a83.548,83.548,0,0,0,3.6,16.485Z" transform="translate(-83.679 -33.022)" fill="#2ea144"/>
        <path id="Path_72482" data-name="Path 72482" d="M153.509,206.413H87.258a1.958,1.958,0,0,1-1.958-1.958V172.7a1.933,1.933,0,0,1,.162-.761,2.68,2.68,0,0,1,.175-.324,1.372,1.372,0,0,1,.249-.287,1.945,1.945,0,0,1,1.372-.574h62.71a81.777,81.777,0,0,0-.511,13.118,13.346,13.346,0,0,0,.112,2.12c.087,1.309.187,2.631.337,3.94a83.548,83.548,0,0,0,3.6,16.485Z" transform="translate(-83.679 -33.022)" fill="#fff" opacity="0.6"/>
        <path id="Path_72483" data-name="Path 72483" d="M149.965,170.75a81.779,81.779,0,0,0-.511,13.118,13.344,13.344,0,0,0,.112,2.12l-18.281,3.591-5.586,1.1a1.472,1.472,0,0,1-.736,0l-5.574-1.085-34.08-6.709v-10.2a2.108,2.108,0,0,1,.15-.748,2.681,2.681,0,0,1,.175-.324,1.371,1.371,0,0,1,.249-.287,1.945,1.945,0,0,1,1.372-.574Z" transform="translate(-83.676 -33.022)" opacity="0.1"/>
        <path id="Path_72484" data-name="Path 72484" d="M152.9,162.268H142.146v-3.9a6.11,6.11,0,0,0-6.1-6.085H115.274a6.085,6.085,0,0,0-6.085,6.085v3.9H85.92a1.92,1.92,0,0,0-1.92,1.92v19.2a1.933,1.933,0,0,0,1.559,1.9h.075l34.08,6.721,5.574,1.085a1.832,1.832,0,0,0,.736,0l5.586-1.1,18.168-3.579a81.779,81.779,0,0,1,.511-13.118,82.725,82.725,0,0,1,2.606-13.031Zm-39.093-3.9a1.484,1.484,0,0,1,1.471-1.459h20.775a1.471,1.471,0,0,1,1.459,1.459v3.9H113.815Z" transform="translate(-84 -37.584)" fill="#2ea144"/>
        <path id="Path_72485" data-name="Path 72485" d="M152.9,162.268H142.146v-3.9a6.11,6.11,0,0,0-6.1-6.085H115.274a6.085,6.085,0,0,0-6.085,6.085v3.9H85.92a1.92,1.92,0,0,0-1.92,1.92v19.2a1.933,1.933,0,0,0,1.559,1.9h.075l34.08,6.721,5.574,1.085a1.832,1.832,0,0,0,.736,0l5.586-1.1,18.168-3.579a81.779,81.779,0,0,1,.511-13.118,82.725,82.725,0,0,1,2.606-13.031Zm-39.093-3.9a1.484,1.484,0,0,1,1.471-1.459h20.775a1.471,1.471,0,0,1,1.459,1.459v3.9H113.815Z" transform="translate(-84 -37.584)" fill="#fff" opacity="0.6"/>
        <rect id="Rectangle_30573" data-name="Rectangle 30573" width="11.896" height="8.878" rx="1.48" transform="translate(35.713 150.273)" fill="#2ea144"/>
        <rect id="Rectangle_30574" data-name="Rectangle 30574" width="11.896" height="8.878" rx="1.48" transform="translate(35.713 150.273)" fill="#fff" opacity="0.3"/>
        <rect id="Rectangle_30575" data-name="Rectangle 30575" width="80.068" height="35.663" rx="1.56" transform="translate(319.025 288.075) rotate(180)" fill="#2ea144"/>
        <rect id="Rectangle_30576" data-name="Rectangle 30576" width="80.068" height="35.663" rx="1.56" transform="translate(319.025 288.075) rotate(180)" fill="#fff" opacity="0.6"/>
        <path id="Path_72486" data-name="Path 72486" d="M277.6,262.73H353.76a1.945,1.945,0,0,1,1.945,1.945v10.188L316,282.669a1.832,1.832,0,0,1-.736,0L275.6,274.863V264.675a1.945,1.945,0,0,1,2-1.945Z" transform="translate(-36.68 -10.306)" opacity="0.1"/>
        <path id="Path_72487" data-name="Path 72487" d="M276.26,254.248h23.268v-3.9a6.1,6.1,0,0,1,6.085-6.085H326.4a6.1,6.1,0,0,1,6.085,6.085v3.9h23.256a1.92,1.92,0,0,1,1.92,1.92v19.216a1.933,1.933,0,0,1-1.546,1.883l-39.791,7.818a2.5,2.5,0,0,1-.748,0l-39.741-7.818a1.933,1.933,0,0,1-1.546-1.883V256.169a1.92,1.92,0,0,1,1.97-1.92Zm51.6-3.9a1.484,1.484,0,0,0-1.459-1.471H305.614a1.5,1.5,0,0,0-1.471,1.471v3.9h23.692Z" transform="translate(-37.004 -14.867)" fill="#2ea144"/>
        <path id="Path_72488" data-name="Path 72488" d="M276.26,254.248h23.268v-3.9a6.1,6.1,0,0,1,6.085-6.085H326.4a6.1,6.1,0,0,1,6.085,6.085v3.9h23.256a1.92,1.92,0,0,1,1.92,1.92v19.216a1.933,1.933,0,0,1-1.546,1.883l-39.791,7.818a2.5,2.5,0,0,1-.748,0l-39.741-7.818a1.933,1.933,0,0,1-1.546-1.883V256.169a1.92,1.92,0,0,1,1.97-1.92Zm51.6-3.9a1.484,1.484,0,0,0-1.459-1.471H305.614a1.5,1.5,0,0,0-1.471,1.471v3.9h23.692Z" transform="translate(-37.004 -14.867)" fill="#fff" opacity="0.6"/>
        <rect id="Rectangle_30577" data-name="Rectangle 30577" width="11.896" height="8.878" rx="1.48" transform="translate(284.945 273.847) rotate(180)" fill="#2ea144"/>
        <rect id="Rectangle_30578" data-name="Rectangle 30578" width="11.896" height="8.878" rx="1.48" transform="translate(284.945 273.847) rotate(180)" fill="#fff" opacity="0.3"/>
        <rect id="Rectangle_30579" data-name="Rectangle 30579" width="80.068" height="35.663" rx="1.56" transform="translate(319.025 58.683) rotate(180)" fill="#2ea144"/>
        <rect id="Rectangle_30580" data-name="Rectangle 30580" width="80.068" height="35.663" rx="1.56" transform="translate(319.025 58.683) rotate(180)" fill="#fff" opacity="0.6"/>
        <path id="Path_72489" data-name="Path 72489" d="M277.585,78.77H353.75a1.945,1.945,0,0,1,1.945,1.945V90.9l-39.7,7.806a1.833,1.833,0,0,1-.736,0L275.64,90.9V80.715a1.945,1.945,0,0,1,1.945-1.945Z" transform="translate(-36.671 -55.738)" opacity="0.1"/>
        <path id="Path_72490" data-name="Path 72490" d="M276.26,70.288h23.268v-3.9a6.1,6.1,0,0,1,6.085-6.085H326.4a6.1,6.1,0,0,1,6.135,6.085v3.9h23.256a1.92,1.92,0,0,1,1.92,1.92V91.424a1.92,1.92,0,0,1-1.546,1.883l-39.841,7.769a1.883,1.883,0,0,1-.748,0l-39.741-7.818a1.92,1.92,0,0,1-1.546-1.883V72.209a1.92,1.92,0,0,1,1.97-1.92Zm51.6-3.9a1.471,1.471,0,0,0-1.459-1.471H305.614a1.484,1.484,0,0,0-1.471,1.459v3.9h23.692Z" transform="translate(-37.004 -60.3)" fill="#2ea144"/>
        <path id="Path_72491" data-name="Path 72491" d="M276.26,70.288h23.268v-3.9a6.1,6.1,0,0,1,6.085-6.085H326.4a6.1,6.1,0,0,1,6.135,6.085v3.9h23.256a1.92,1.92,0,0,1,1.92,1.92V91.424a1.92,1.92,0,0,1-1.546,1.883l-39.841,7.769a1.883,1.883,0,0,1-.748,0l-39.741-7.818a1.92,1.92,0,0,1-1.546-1.883V72.209a1.92,1.92,0,0,1,1.97-1.92Zm51.6-3.9a1.471,1.471,0,0,0-1.459-1.471H305.614a1.484,1.484,0,0,0-1.471,1.459v3.9h23.692Z" transform="translate(-37.004 -60.3)" fill="#fff" opacity="0.6"/>
        <rect id="Rectangle_30581" data-name="Rectangle 30581" width="11.896" height="8.878" rx="1.48" transform="translate(284.945 44.455) rotate(180)" fill="#2ea144"/>
        <rect id="Rectangle_30582" data-name="Rectangle 30582" width="11.896" height="8.878" rx="1.48" transform="translate(284.945 44.455) rotate(180)" fill="#fff" opacity="0.3"/>
        <path id="Path_72492" data-name="Path 72492" d="M285.19,206.413H351.4a1.958,1.958,0,0,0,1.945-1.958V172.7a1.932,1.932,0,0,0-.162-.761,1.621,1.621,0,0,0-.175-.324,1.372,1.372,0,0,0-.249-.287,1.92,1.92,0,0,0-1.372-.574h-62.7a81.782,81.782,0,0,1,.511,13.118,13.344,13.344,0,0,1-.112,2.12c-.075,1.309-.187,2.631-.337,3.94a83.548,83.548,0,0,1-3.566,16.485Z" transform="translate(-34.312 -33.022)" fill="#2ea144"/>
        <path id="Path_72493" data-name="Path 72493" d="M285.19,206.413H351.4a1.958,1.958,0,0,0,1.945-1.958V172.7a1.932,1.932,0,0,0-.162-.761,1.621,1.621,0,0,0-.175-.324,1.372,1.372,0,0,0-.249-.287,1.92,1.92,0,0,0-1.372-.574h-62.7a81.782,81.782,0,0,1,.511,13.118,13.344,13.344,0,0,1-.112,2.12c-.075,1.309-.187,2.631-.337,3.94a83.548,83.548,0,0,1-3.566,16.485Z" transform="translate(-34.312 -33.022)" fill="#fff" opacity="0.6"/>
        <path id="Path_72494" data-name="Path 72494" d="M288,170.75a81.782,81.782,0,0,1,.511,13.118,13.344,13.344,0,0,1-.112,2.12l18.306,3.591,5.586,1.1a1.472,1.472,0,0,0,.736,0l5.574-1.085,34.08-6.709v-10.2a2.108,2.108,0,0,0-.15-.748,1.623,1.623,0,0,0-.175-.324,1.371,1.371,0,0,0-.249-.287,1.92,1.92,0,0,0-1.372-.574Z" transform="translate(-33.618 -33.022)" opacity="0.1"/>
        <path id="Path_72495" data-name="Path 72495" d="M285.91,162.268h10.761v-3.9a6.1,6.1,0,0,1,6.085-6.085h20.775a6.1,6.1,0,0,1,6.1,6.085v3.9h23.256a1.92,1.92,0,0,1,1.92,1.92v19.2a1.933,1.933,0,0,1-1.546,1.9h-.087l-34.08,6.721-5.624,1.072a1.833,1.833,0,0,1-.736,0l-5.586-1.1L288.977,188.4a83.548,83.548,0,0,0-3.117-26.186Zm39.093-3.9a1.484,1.484,0,0,0-1.471-1.459H302.756a1.471,1.471,0,0,0-1.459,1.459v3.9H324.99Z" transform="translate(-34.147 -37.584)" fill="#2ea144"/>
        <path id="Path_72496" data-name="Path 72496" d="M285.91,162.268h10.761v-3.9a6.1,6.1,0,0,1,6.085-6.085h20.775a6.1,6.1,0,0,1,6.1,6.085v3.9h23.256a1.92,1.92,0,0,1,1.92,1.92v19.2a1.933,1.933,0,0,1-1.546,1.9h-.087l-34.08,6.721-5.624,1.072a1.833,1.833,0,0,1-.736,0l-5.586-1.1L288.977,188.4a83.548,83.548,0,0,0-3.117-26.186Zm39.093-3.9a1.484,1.484,0,0,0-1.471-1.459H302.756a1.471,1.471,0,0,0-1.459,1.459v3.9H324.99Z" transform="translate(-34.147 -37.584)" fill="#fff" opacity="0.6"/>
        <rect id="Rectangle_30583" data-name="Rectangle 30583" width="11.896" height="8.878" rx="1.48" transform="translate(284.945 159.163) rotate(180)" fill="#2ea144"/>
        <rect id="Rectangle_30584" data-name="Rectangle 30584" width="11.896" height="8.878" rx="1.48" transform="translate(284.945 159.163) rotate(180)" fill="#fff" opacity="0.3"/>
        <rect id="Rectangle_30585" data-name="Rectangle 30585" width="115.046" height="51.238" rx="2.24" transform="translate(106.84 129.984)" fill="#2ea144"/>
        <path id="Path_72497" data-name="Path 72497" d="M235.387,162.9H205.522a8.554,8.554,0,0,1-8.542-8.542v-7.669a8.554,8.554,0,0,1,8.542-8.542h29.865a8.542,8.542,0,0,1,8.542,8.542v7.631a8.542,8.542,0,0,1-8.542,8.579Zm-29.865-18.48a2.307,2.307,0,0,0-2.282,2.27v7.631a2.307,2.307,0,0,0,2.307,2.307h29.865a2.307,2.307,0,0,0,2.307-2.307v-7.631a2.307,2.307,0,0,0-2.307-2.307Z" transform="translate(-56.097 -41.073)" fill="#2ea144"/>
        <path id="Path_72498" data-name="Path 72498" d="M281.92,164.54H172.486a2.793,2.793,0,0,0-2.806,2.793v14.652l56.987,11.223a2.493,2.493,0,0,0,1.06,0l57-11.223V167.333a2.793,2.793,0,0,0-2.806-2.793Z" transform="translate(-62.84 -34.556)" opacity="0.2"/>
        <path id="Path_72499" data-name="Path 72499" d="M285.272,182.54l-57.1,11.223a3.093,3.093,0,0,1-1.072,0L170,182.54a2.768,2.768,0,0,1-2.232-2.706V152.276a2.756,2.756,0,0,1,2.756-2.756H284.773a2.756,2.756,0,0,1,2.756,2.756v27.608a2.756,2.756,0,0,1-2.257,2.656Z" transform="translate(-63.311 -38.265)" fill="#2ea144"/>
        <rect id="Rectangle_30586" data-name="Rectangle 30586" width="17.096" height="12.757" rx="2.12" transform="translate(155.821 148.028)" fill="#2ea144"/>
        <rect id="Rectangle_30587" data-name="Rectangle 30587" width="17.096" height="12.757" rx="2.12" transform="translate(155.821 148.028)" opacity="0.4"/>
      </g>
      <g id="freepik--Character--inject-2" transform="translate(165.479 102.546)">
        <path id="Path_72500" data-name="Path 72500" d="M383.407,187.21c1.434,2.955,2.494,5.749,3.741,8.666s2.157,5.823,3.13,8.8a112.446,112.446,0,0,1,4.352,18.53c.125.786.187,1.634.274,2.494l.125,1.247v1.459a26.184,26.184,0,0,1-.486,5.636,60.465,60.465,0,0,1-2.631,9.477,103.505,103.505,0,0,1-7.931,16.9l-6.335-2.681c1.409-5.686,2.831-11.485,3.9-17.083a71.69,71.69,0,0,0,1.11-8.118,18.928,18.928,0,0,0-.075-3.342l-.137-.786-.175-1c-.137-.661-.224-1.322-.387-2a127.181,127.181,0,0,0-4.813-16.211c-.948-2.706-2-5.4-3.043-8.105s-2.207-5.424-3.28-7.918Z" transform="translate(-73.915 -69.894)" fill="#ff8883"/>
        <path id="Path_72501" data-name="Path 72501" d="M377.463,242.44l-4.863,4.738,10.612,4.988s2.569-4.489.8-8.554Z" transform="translate(-73.458 -56.254)" fill="#ff8883"/>
        <path id="Path_72502" data-name="Path 72502" d="M369.46,253.31l8.953,3.666,5.574-5.8-10.612-4.938Z" transform="translate(-74.233 -55.315)" fill="#7f3e3b"/>
        <path id="Path_72503" data-name="Path 72503" d="M243.573,283.265a89.782,89.782,0,1,0-99.221-79.27,89.782,89.782,0,0,0,99.221,79.27Z" transform="translate(-129.967 -90.383)" fill="#2ea144" opacity="0.2"/>
        <path id="Path_72504" data-name="Path 72504" d="M171.42,122.39,307.963,231.45c.586-1.247,1.135-2.494,1.671-3.741a88.612,88.612,0,0,0,6.484-25.538h0L198.18,108a89.021,89.021,0,0,0-26.76,14.39Z" transform="translate(-123.143 -89.457)" fill="#fff" opacity="0.1"/>
        <path id="Path_72505" data-name="Path 72505" d="M146.16,165,274.523,267.563a89.781,89.781,0,0,0,30.9-26.536L165.239,129A89.782,89.782,0,0,0,146.16,165Z" transform="translate(-129.382 -84.27)" fill="#fff" opacity="0.1"/>
        <path id="Path_72506" data-name="Path 72506" d="M457.5,297.621a13.318,13.318,0,0,0-2.157-6.36,9.2,9.2,0,0,0-3.679-3.255l-8.517-4.177c-5.661-2.806-11.36-5.537-17.059-8.267s-11.435-5.412-17.146-8.118-11.472-5.337-17.246-7.918q-17.283-7.831-34.79-15.238c-5.836-2.494-11.684-4.888-17.582-7.232h0a7.3,7.3,0,0,1-4.277-9,103.586,103.586,0,1,0-13.866,28.069,7.307,7.307,0,0,1,9.764-2.082h0q8.18,4.863,16.435,9.564,16.5,9.4,33.244,18.33c5.574,3.018,11.223,5.923,16.772,8.878s11.223,5.836,16.872,8.729,11.223,5.724,16.946,8.517l8.492,4.215a9.153,9.153,0,0,0,4.826.948,13.193,13.193,0,0,0,6.347-2.157,14.053,14.053,0,0,0,6.621-13.442ZM200.16,270.038a81.726,81.726,0,1,1,109.447-37.11A81.726,81.726,0,0,1,200.16,270.038Z" transform="translate(-132.705 -93.129)" fill="#2ea144"/>
        <path id="Path_72507" data-name="Path 72507" d="M343.536,156.567c0,.736-.387,1.334-.873,1.334s-.873-.6-.873-1.334.387-1.347.873-1.347S343.536,155.819,343.536,156.567Z" transform="translate(-81.067 -77.795)" fill="#263238"/>
        <path id="Path_72508" data-name="Path 72508" d="M343.626,157.37a26.385,26.385,0,0,1-3.516,6.322,4.252,4.252,0,0,0,3.529.661Z" transform="translate(-81.482 -77.264)" fill="#ff8883"/>
        <path id="Path_72509" data-name="Path 72509" d="M346.077,153.328a.436.436,0,0,0,.249-.786,4.352,4.352,0,0,0-3.9-.673.436.436,0,1,0,.312.811h0a3.479,3.479,0,0,1,3.092.561A.387.387,0,0,0,346.077,153.328Z" transform="translate(-80.99 -78.671)" fill="#263238"/>
        <path id="Path_72510" data-name="Path 72510" d="M367.508,160.76c-1.322,6.709-2.631,18.991,2.057,23.456,0,0-1.833,6.8-14.278,6.8-13.717,0-6.547-6.8-6.547-6.8,7.482-1.783,7.282-7.332,5.973-12.47Z" transform="translate(-79.813 -76.426)" fill="#ff8883"/>
        <path id="Path_72511" data-name="Path 72511" d="M371.794,176.3c1.035.337-.312,6.5-.312,6.5s-1.708,4.3-22.932,2.806c-1.634-.125-1.01-6.035.549-6.9C354.124,175.959,368.452,175.2,371.794,176.3Z" transform="translate(-79.635 -72.709)" fill="#263238"/>
        <path id="Path_72512" data-name="Path 72512" d="M401.76,383.468c1.147-.112,2.818-2.22,3.292-2.993a.212.212,0,0,0,0-.224.2.2,0,0,0-.212-.1c-.125,0-3.142.574-3.878,1.746a1.047,1.047,0,0,0-.125.835c.162.549.474.7.723.736Zm2.631-2.781c-.81,1.122-2.145,2.432-2.781,2.344-.062,0-.249,0-.362-.424a.574.574,0,0,1,.075-.486,5.873,5.873,0,0,1,3.068-1.434Z" transform="translate(-66.493 -22.244)" fill="#2ea144"/>
        <path id="Path_72513" data-name="Path 72513" d="M404.33,381.006a4.017,4.017,0,0,0,.661-.112.216.216,0,0,0,.075-.374c-.075-.075-2.095-1.8-3.467-1.659h0a1.172,1.172,0,0,0-.848.449.686.686,0,0,0-.087.885C401.113,380.907,403.083,381.131,404.33,381.006Zm.1-.436c-1.247.15-3.068-.1-3.417-.611a.345.345,0,0,1,.075-.387.823.823,0,0,1,.561-.287h0a5.262,5.262,0,0,1,2.781,1.284Z" transform="translate(-66.557 -22.564)" fill="#2ea144"/>
        <path id="Path_72514" data-name="Path 72514" d="M333.378,409.547a16.746,16.746,0,0,0,2.818-.249.249.249,0,0,0,.175-.175.212.212,0,0,0-.112-.224c-.137-.087-3.329-1.908-4.863-1.5a1.122,1.122,0,0,0-.686.511.823.823,0,0,0,0,.948C331.109,409.41,332.206,409.547,333.378,409.547Zm2.12-.574c-1.708.237-4.028.224-4.452-.362-.062-.075-.112-.212,0-.486a.635.635,0,0,1,.424-.3c.985-.262,2.905.574,4.028,1.147Z" transform="translate(-83.841 -15.528)" fill="#2ea144"/>
        <path id="Path_72515" data-name="Path 72515" d="M335.646,409.725a.164.164,0,0,0,.224-.2c0-.1-.262-2.569-1.422-3.529a1.659,1.659,0,0,0-1.247-.374c-.6.062-.761.362-.811.611-.162,1.035,2.033,3.018,3.13,3.516Zm-2.232-3.741a1.247,1.247,0,0,1,.761.287,5.175,5.175,0,0,1,1.247,2.818c-1.135-.673-2.619-2.232-2.494-2.856,0,0,0-.2.424-.237Z" transform="translate(-83.39 -15.955)" fill="#2ea144"/>
        <path id="Path_72516" data-name="Path 72516" d="M345.116,412.943h-9.153l-.923-21.223h9.165Z" transform="translate(-82.734 -19.386)" fill="#7f3e3b"/>
        <path id="Path_72517" data-name="Path 72517" d="M415.646,377.529l-7.145,5.724L390.32,370.634l7.158-5.724Z" transform="translate(-69.082 -26.007)" fill="#7f3e3b"/>
        <path id="Path_72518" data-name="Path 72518" d="M405.089,380.81l7.307-7.245a.811.811,0,0,1,1-.1l7.02,4.514a1.334,1.334,0,0,1,.187,2.095c-2.594,2.494-3.978,3.566-7.2,6.746-1.97,1.97-6.8,7.831-9.527,10.537s-5.773.362-4.888-1c3.928-6.06,5.262-11.061,5.437-14.1a2.257,2.257,0,0,1,.661-1.447Z" transform="translate(-66.979 -23.926)" fill="#263238"/>
        <path id="Path_72519" data-name="Path 72519" d="M340.207,407.89h9.976a.786.786,0,0,1,.773.623l1.808,8.143a1.322,1.322,0,0,1-1.309,1.621c-3.616,0-8.829-.262-13.368-.262-5.3,0-9.876.287-16.1.287-3.741,0-4.8-3.8-3.23-4.152,7.17-1.559,13.018-1.733,19.2-5.549A4.289,4.289,0,0,1,340.207,407.89Z" transform="translate(-86.928 -15.393)" fill="#263238"/>
        <path id="Path_72520" data-name="Path 72520" d="M382.4,181.976c7.943,3.741,11.223,29.379,11.223,29.379l-18.268,7.17a146.147,146.147,0,0,1-6.871-21.385C365.927,185.567,374.232,178.085,382.4,181.976Z" transform="translate(-74.591 -71.443)" fill="#2ea144"/>
        <path id="Path_72521" data-name="Path 72521" d="M382.4,181.976c7.943,3.741,11.223,29.379,11.223,29.379l-18.268,7.17a146.147,146.147,0,0,1-6.871-21.385C365.927,185.567,374.232,178.085,382.4,181.976Z" transform="translate(-74.591 -71.443)" fill="#fff" opacity="0.3"/>
        <path id="Path_72522" data-name="Path 72522" d="M370.557,187.941a10.2,10.2,0,0,0-1.945-.711,16.784,16.784,0,0,0-.075,8.355A145.242,145.242,0,0,0,375.4,216.97l6.023-2.357C380.309,207.917,376.9,190.983,370.557,187.941Z" transform="translate(-74.583 -69.889)" opacity="0.2"/>
        <path id="Path_72523" data-name="Path 72523" d="M337.961,182.173s-9.751,11.011-.549,79.183h49.006c.337-7.482-4.389-44.218,2.868-79.657a128.267,128.267,0,0,0-16.41-2.07,181.149,181.149,0,0,0-20.824,0,91.648,91.648,0,0,0-14.091,2.544Z" transform="translate(-83.124 -71.84)" fill="#2ea144"/>
        <path id="Path_72524" data-name="Path 72524" d="M337.961,182.173s-9.751,11.011-.549,79.183h49.006c.337-7.482-4.389-44.218,2.868-79.657a128.267,128.267,0,0,0-16.41-2.07,181.149,181.149,0,0,0-20.824,0,91.648,91.648,0,0,0-14.091,2.544Z" transform="translate(-83.124 -71.84)" fill="#fff" opacity="0.3"/>
        <path id="Path_72525" data-name="Path 72525" d="M347.845,194.681c-2.22-6.659-7.557-8.791-12.993-4.838-1.1,6.459-1.87,16.872-.985,33.381l9.564-.087S351.124,204.594,347.845,194.681Z" transform="translate(-83.119 -69.734)" opacity="0.2"/>
        <path id="Path_72526" data-name="Path 72526" d="M353.029,191.5c-.4,3.342-.948,6.372-1.559,9.527s-1.322,6.235-2.132,9.34a107.057,107.057,0,0,1-6.509,18.48c-.711,1.534-1.534,3.043-2.407,4.551-.449.761-.9,1.521-1.409,2.27a15.766,15.766,0,0,1-2.332,2.856,16.548,16.548,0,0,1-5.985,3.554,26.987,26.987,0,0,1-5.574,1.309,46.038,46.038,0,0,1-10.213.125,47.934,47.934,0,0,1-4.863-.636c-1.621-.287-3.155-.586-4.826-1.023l.811-6.833a81.378,81.378,0,0,0,16.859-2.494,19.192,19.192,0,0,0,3.255-1.3,4.675,4.675,0,0,0,1.746-1.384c-.1.087.81-1.422,1.347-2.494s1.135-2.494,1.646-3.741c1.047-2.569,1.945-5.287,2.768-8.068s1.546-5.611,2.22-8.479,1.247-5.761,1.87-8.729,1.072-5.911,1.521-8.666Z" transform="translate(-90.099 -69.287)" fill="#ff8883"/>
        <path id="Path_72527" data-name="Path 72527" d="M352.822,188.44c2.581,8.367-7.893,33.307-7.893,33.307L322.87,216.2a102.029,102.029,0,0,1,6.771-22.932C336.749,177.7,349.717,178.352,352.822,188.44Z" transform="translate(-85.74 -71.386)" fill="#2ea144"/>
        <path id="Path_72528" data-name="Path 72528" d="M352.822,188.44c2.581,8.367-7.893,33.307-7.893,33.307L322.87,216.2a102.029,102.029,0,0,1,6.771-22.932C336.749,177.7,349.717,178.352,352.822,188.44Z" transform="translate(-85.74 -71.386)" fill="#fff" opacity="0.3"/>
        <path id="Path_72529" data-name="Path 72529" d="M308.175,226.122,297.8,225.86l4.988,10.786s4.215.561,7.681-5.138l3.654-4.352-4.2-.848a10.248,10.248,0,0,0-1.746-.187Z" transform="translate(-91.931 -60.349)" fill="#ff8883"/>
        <path id="Path_72530" data-name="Path 72530" d="M292.55,227.868l5.948,8.941,5.6-.162-5-10.786Z" transform="translate(-93.228 -60.349)" fill="#ff8883"/>
        <path id="Path_72531" data-name="Path 72531" d="M335.05,391.73l.461,10.936h9.165L344.2,391.73Z" transform="translate(-82.732 -19.384)" opacity="0.2"/>
        <path id="Path_72532" data-name="Path 72532" d="M397.478,364.91l-7.158,5.724,9.377,6.509,7.158-5.724Z" transform="translate(-69.082 -26.007)" opacity="0.2"/>
        <path id="Path_72533" data-name="Path 72533" d="M368.16,157.644c-.549,9.078-.4,14.415-4.988,19.079-6.883,7.008-18.094,2.868-20.263-6.235-1.958-8.155-.723-21.622,8.155-25.251a12.395,12.395,0,0,1,17.1,12.407Z" transform="translate(-80.989 -80.493)" fill="#ff8883"/>
        <path id="Path_72534" data-name="Path 72534" d="M375.332,150.561s4.776,1.422,3.28,6.871c-2.257,8.28-7.569,17.807-14.427,18.405-8.542.761-12.395-8.055-13.517-17.171-5.113-3.5-8.9-6.784-7.681-10.425,1.87-5.611,8.654-10.45,19.453-9.2S378.612,147.269,375.332,150.561Z" transform="translate(-80.829 -81.84)" fill="#263238"/>
        <path id="Path_72535" data-name="Path 72535" d="M354.672,157a10.275,10.275,0,0,1-2.569,6.073c-2,2.195-4.09.823-4.439-1.846-.312-2.419.337-6.472,2.781-7.681S354.834,154.278,354.672,157Z" transform="translate(-79.634 -78.3)" fill="#f0726d"/>
        <path id="Path_72536" data-name="Path 72536" d="M350.727,245.11s-3.092,61.75,2.93,87.911c9.539,41.424,51.475,74.619,51.475,74.619L418.6,396.854s-34.5-25.675-37.609-60.166c-2.781-30.975,1.334-66.551,1.334-91.578Z" transform="translate(-79.056 -55.595)" fill="#2ea144"/>
        <path id="Path_72537" data-name="Path 72537" d="M350.727,245.11s-3.092,61.75,2.93,87.911c9.539,41.424,51.475,74.619,51.475,74.619L418.6,396.854s-34.5-25.675-37.609-60.166c-2.781-30.975,1.334-66.551,1.334-91.578Z" transform="translate(-79.056 -55.595)" opacity="0.2"/>
        <path id="Path_72538" data-name="Path 72538" d="M355.324,259.873c-1.247-2.407-3.679,4.763-5.374,13.966,0,12.694.224,27.134,1.334,39.367C359.751,297.556,357.956,264.861,355.324,259.873Z" transform="translate(-79.052 -52.064)" opacity="0.2"/>
        <path id="Path_72539" data-name="Path 72539" d="M389.3,375.869l5.113,3.965,15.55-12.607L405.3,363Z" transform="translate(-69.333 -26.479)" fill="#2c6bdb"/>
        <path id="Path_72540" data-name="Path 72540" d="M389.3,375.869l5.113,3.965,15.55-12.607L405.3,363Z" transform="translate(-69.333 -26.479)" fill="#fafafa" opacity="0.4"/>
        <path id="Path_72541" data-name="Path 72541" d="M339.569,245.11s-13.791,58.483-14.764,86.415c-1.085,31.336,9.839,105.232,9.839,105.232h15.525s1.908-74.469,2.606-103.012c.748-31.112,19-88.635,19-88.635Z" transform="translate(-85.281 -55.595)" fill="#2ea144"/>
        <path id="Path_72542" data-name="Path 72542" d="M339.569,245.11s-13.791,58.483-14.764,86.415c-1.085,31.336,9.839,105.232,9.839,105.232h15.525s1.908-74.469,2.606-103.012c.748-31.112,19-88.635,19-88.635Z" transform="translate(-85.281 -55.595)" opacity="0.2"/>
        <path id="Path_72543" data-name="Path 72543" d="M330.291,393.84c-.075,0,.873,6.447.873,6.447h18.879l.511-5.749Z" transform="translate(-83.908 -18.863)" fill="#2c6bdb"/>
        <path id="Path_72544" data-name="Path 72544" d="M330.291,393.84c-.075,0,.873,6.447.873,6.447h18.879l.511-5.749Z" transform="translate(-83.908 -18.863)" fill="#fafafa" opacity="0.4"/>
      </g>
    </g>
  </g>
</svg>
