<svg id="vuesax_bold_verify" data-name="vuesax/bold/verify" xmlns="http://www.w3.org/2000/svg" width="19.255" height="19.255" viewBox="0 0 19.255 19.255">
  <g id="verify">
    <path id="Vector" d="M15.689,7.014,14.6,5.746a1.778,1.778,0,0,1-.377-1.011V3.372a1.555,1.555,0,0,0-1.548-1.548H11.308A1.8,1.8,0,0,1,10.3,1.446L9.03.355a1.617,1.617,0,0,0-2.022,0l-1.26,1.1a1.851,1.851,0,0,1-1.011.369H3.35A1.555,1.555,0,0,0,1.8,3.372V4.744a1.826,1.826,0,0,1-.369,1L.349,7.022a1.615,1.615,0,0,0,0,2.006L1.432,10.3a1.826,1.826,0,0,1,.369,1v1.372A1.555,1.555,0,0,0,3.35,14.227H4.738a1.8,1.8,0,0,1,1.011.377l1.268,1.091a1.617,1.617,0,0,0,2.022,0L10.305,14.6a1.778,1.778,0,0,1,1.011-.377H12.68a1.555,1.555,0,0,0,1.548-1.548V11.314a1.8,1.8,0,0,1,.377-1.011L15.7,9.036A1.628,1.628,0,0,0,15.689,7.014Zm-4.332-.505L7.481,10.384a.6.6,0,0,1-.85,0L4.689,8.442a.6.6,0,0,1,.85-.85L7.056,9.108l3.45-3.45a.6.6,0,0,1,.85.85Z" transform="translate(1.609 1.603)" fill="#13bf34"/>
    <path id="Vector-2" data-name="Vector" d="M0,0H19.255V19.255H0Z" transform="translate(19.255 19.255) rotate(180)" fill="none" opacity="0"/>
  </g>
</svg>
