<svg id="vuesax_bold_arrow-circle-right" data-name="vuesax/bold/arrow-circle-right" xmlns="http://www.w3.org/2000/svg" width="39.522" height="39.522" viewBox="0 0 39.522 39.522">
  <g id="arrow-circle-right">
    <path id="Vector" d="M16.467,32.935A16.468,16.468,0,1,0,0,16.468,16.495,16.495,0,0,0,16.467,32.935Zm-4.594-17.34,5.813-5.813a1.232,1.232,0,0,1,1.746,0,1.242,1.242,0,0,1,0,1.746l-4.94,4.94,4.94,4.94a1.234,1.234,0,0,1-1.746,1.746L11.873,17.34A1.213,1.213,0,0,1,11.873,15.595Z" transform="translate(3.293 3.294)" fill="#9f7a32"/>
    <path id="Vector-2" data-name="Vector" d="M0,0H39.522V39.522H0Z" fill="none" opacity="0"/>
  </g>
</svg>
