<svg xmlns="http://www.w3.org/2000/svg" width="22.439" height="22.439" viewBox="0 0 22.439 22.439">
  <g id="vuesax_bulk_location" data-name="vuesax/bulk/location" transform="translate(-6.154 -3.154)">
    <g id="location" transform="translate(6.154 3.154)">
      <path id="Vector" d="M16.362,6.264A8.065,8.065,0,0,0,8.3,0H8.293A8.063,8.063,0,0,0,.234,6.255c-1.094,4.824,1.861,8.91,4.535,11.482a5.069,5.069,0,0,0,7.059,0C14.5,15.165,17.456,11.089,16.362,6.264Z" transform="translate(2.917 1.636)" fill="#9f7a32" opacity="0.4"/>
      <path id="Vector-2" data-name="Vector" d="M5.89,2.945A2.945,2.945,0,1,1,2.945,0,2.945,2.945,0,0,1,5.89,2.945Z" transform="translate(8.275 6.694)" fill="#9f7a32"/>
      <path id="Vector-3" data-name="Vector" d="M0,0H22.439V22.439H0Z" fill="none" opacity="0"/>
    </g>
  </g>
</svg>
