<svg xmlns="http://www.w3.org/2000/svg" xmlns:xlink="http://www.w3.org/1999/xlink" width="1366" height="736" viewBox="0 0 1366 736">
  <defs>
    <clipPath id="clip-path">
      <rect id="Rectangle_30669" data-name="Rectangle 30669" width="1366" height="736" fill="#fff"/>
    </clipPath>
    <clipPath id="clip-path-2">
      <rect id="Rectangle_30458" data-name="Rectangle 30458" width="810" height="768" fill="#9f7a32"/>
    </clipPath>
  </defs>
  <g id="Mask_Group_2265" data-name="Mask Group 2265" clip-path="url(#clip-path)">
    <g id="Group_182925" data-name="Group 182925" transform="translate(-130)">
      <g id="Mask_Group_2255" data-name="Mask Group 2255" opacity="0.2" clip-path="url(#clip-path-2)">
        <path id="Path_72372" data-name="Path 72372" d="M358.185,527.5a15.209,15.209,0,0,0,1.593-1.381c5.559-5.559,2.439-12.121,1.362-14.4a2.109,2.109,0,0,0-.6-.754l-.079-.1a5.143,5.143,0,0,0-2.9-1.514l-3.357,3.357c.091.049.164.061.262.116a6.863,6.863,0,0,0,1.989.675,2.909,2.909,0,0,1,.821.243,1.525,1.525,0,0,0,.14.14c2.153,4.707,1.63,7.578-1.812,10.181-1.3.973-7.031.693-7.876-.164a16.383,16.383,0,0,0-.924-2.743c-.122-.3-.195-.517-.292-.772l-3.351,3.345a7.921,7.921,0,0,1,.365,1.046c.213,1.022.973,2.427,3.388,3.333C350.139,529.341,355.771,529.329,358.185,527.5ZM911.844,316.8l-4.282-1.143c-4.215-1.125-9.172-2.475-13.976-4.02-4.349-1.393-7.08.724-8.953,2.548-10.753,10.923-22.941,23.306-35.227,35.135-3.5,3.461-4.568,6.952-3.223,11.635,2.183,7.59,4.257,15.2,6.331,22.826l3.108,11.355c.462,1.666.864,3.351,1.265,5.03a64.05,64.05,0,0,0,3.886,12.413,2.167,2.167,0,0,0,.6.766,2.082,2.082,0,0,0,.389.377c2.554,1.916,5.486,2.457,8.071,2.931a30.807,30.807,0,0,1,3.339.742c5.711,1.709,11.556,3.223,17.212,4.683,7.815,2.019,15.886,4.105,23.629,6.733,5.486,1.867,9.33-.9,11.805-3.375.584-.584,1.089-1.149,1.52-1.636,5.091-5.687,10.589-11.2,15.935-16.5,2.4-2.4,4.8-4.786,7.183-7.213,1.235-1.3,2.615-2.469,3.971-3.649a42.238,42.238,0,0,0,7.511-7.864,6.456,6.456,0,0,0,1.32-5.936c-1.454-6.27-3.175-12.553-4.841-18.629-1.636-5.96-3.327-12.121-4.744-18.222-.413-1.758-.937-3.491-1.46-5.224a54.64,54.64,0,0,1-1.745-6.751c-.851-5.036-3.515-7.943-8.387-9.147C931.981,322.165,921.909,319.483,911.844,316.8Zm34.405,17.729a59,59,0,0,0,1.879,7.286c.5,1.642,1,3.278,1.387,4.945,1.435,6.185,3.138,12.389,4.786,18.392,1.655,6.033,3.369,12.279,4.8,18.465.267,1.162.146,1.35-.8,2.731a39.275,39.275,0,0,1-6.672,6.873c-1.435,1.259-2.852,2.536-4.208,3.874-2.366,2.408-4.768,4.793-7.146,7.177-5.377,5.346-10.935,10.893-16.105,16.677-3.071,3.448-5.291,4.987-8.746,3.813-7.895-2.682-16.051-4.793-23.939-6.824-5.614-1.448-11.422-2.95-17.048-4.641a34.6,34.6,0,0,0-3.8-.845c-2.262-.42-4.4-.815-6.124-2.037a61.384,61.384,0,0,1-3.436-11.233c-.414-1.733-.827-3.467-1.3-5.182l-3.1-11.337c-2.08-7.639-4.16-15.278-6.35-22.886-.9-3.138-.456-5.036,2.074-7.359,12.322-11.866,24.528-24.273,35.306-35.221,1.77-1.794,2.755-2.05,4.58-1.472,4.9,1.569,9.92,2.944,14.189,4.081l4.276,1.137c10.09,2.688,20.186,5.383,30.318,7.888C944.315,329.64,945.671,331.124,946.249,334.53ZM722.525,409.758l-.973-.17c-4-.748-9.688,2.366-11.069,6.058a10.8,10.8,0,0,0,14.1,14.086,7.916,7.916,0,0,0,2.737-1.843c2.494-2.494,4-6.623,3.29-9.944-.249-1.15-.59-2.281-.931-3.406l-.426-1.435a2.147,2.147,0,0,0-.724-1.089,2.019,2.019,0,0,0-.5-.456A13.613,13.613,0,0,0,722.525,409.758Zm3.06,6.027c.31,1.016.62,2.025.839,3.059.5,2.366-1.332,6.088-3.369,6.879a6.517,6.517,0,0,1-8.557-8.576,3.231,3.231,0,0,1,.773-1.1c1.356-1.356,3.978-2.524,5.5-2.238l1.046.182a11.808,11.808,0,0,1,3.522.955ZM320.568,565.82c13.38,3.357,27.223,6.836,40.658,10.789,5.224,1.539,8.9.706,12.511-2.9.164-.164.328-.334.5-.511,5.808-6.234,12.1-12.742,20.4-21.1,3.7-3.655,7.663-7.487,13-12.334,3.448-3.108,4.5-6.672,3.327-10.917-2.974-10.747-5.875-21.506-8.782-32.271l-4.7-17.352a12.384,12.384,0,0,0-.785-1.977l-.3-.663a2.153,2.153,0,0,0-.633-.827,2.085,2.085,0,0,0-.389-.377A11.994,11.994,0,0,0,392.932,474l-3.339,3.339a9.629,9.629,0,0,1,3.053,1.368l.176.383a8.179,8.179,0,0,1,.523,1.265l4.7,17.346q4.361,16.157,8.782,32.3c.748,2.706.176,4.525-2.074,6.6-5.395,4.9-9.482,8.734-13.167,12.486-8.326,8.393-14.645,14.931-20.49,21.2-2.652,2.846-4.75,3.382-8.655,2.232-13.514-3.984-27.4-7.469-40.822-10.838L316.1,560.28a6.1,6.1,0,0,1-4.945-4.507l-3.3,3.3a10.386,10.386,0,0,0,7.207,5.364ZM960.56,132.591l-4.865-1.35c-4.057-1.125-8.119-2.256-12.2-3.3-4.513-1.162-6.927.2-9.53,2.755-11.732,11.854-23.683,23.811-35.543,35.543-2.53,2.427-4,5.121-2.682,9.591,2.646,8.953,5,18.173,7.28,27.1q1.277,5.018,2.579,10.029l3.023,11.738a9.089,9.089,0,0,0,6.927,6.9c5.395,1.338,10.759,2.8,16.117,4.251,5.03,1.368,10.059,2.737,15.113,4,2.585.651,5.158,1.368,7.724,2.086,3.321.931,6.641,1.855,10,2.64,4.555,1.064,7.146-.292,9.476-2.779,11.732-11.86,23.689-23.817,35.537-35.537l.11-.109c2.512-2.512,3.813-4.993,2.6-9.439q-2.409-8.795-4.756-17.607-2.673-9.98-5.395-19.949c-.42-1.533-.815-3.071-1.216-4.61-.87-3.375-1.77-6.86-2.932-10.254a2.1,2.1,0,0,0-.687-.979,2.179,2.179,0,0,0-.924-.675,232.683,232.683,0,0,0-24.705-7.183C967.925,134.525,964.227,133.6,960.56,132.591Zm36.151,23.026c.4,1.563.8,3.12,1.235,4.677,1.831,6.635,3.607,13.277,5.389,19.918q2.363,8.822,4.762,17.625c.7,2.561.152,3.57-1.587,5.364q-8.9,8.8-17.839,17.741-8.913,8.913-17.741,17.838c-1.77,1.648-2.773,2.244-5.45,1.618-3.3-.766-6.556-1.679-9.817-2.591-2.609-.73-5.218-1.46-7.84-2.117-5.024-1.265-10.029-2.621-15.029-3.984-5.388-1.466-10.783-2.931-16.2-4.276a4.839,4.839,0,0,1-3.807-3.819l-3.023-11.744q-1.3-5-2.573-10.011c-2.287-8.959-4.653-18.222-7.323-27.247-.736-2.506-.3-3.528,1.581-5.322,11.872-11.738,23.841-23.707,35.573-35.573,1.831-1.806,2.81-2.293,5.407-1.618,4.05,1.04,8.089,2.165,12.121,3.284l4.878,1.35c3.7,1.016,7.426,1.952,11.148,2.889A236.4,236.4,0,0,1,994.12,146.4C995.112,149.42,995.92,152.564,996.711,155.617ZM662.928,597.039c-1.575,1.636-2.433,4.361-2.348,7.469s1.095,5.79,2.767,7.335c3.558,3.3,10.023,2.634,13.836-.061a14,14,0,0,0,1.745-1.46c4.342-4.342,2.414-9.415.967-13.222a2.117,2.117,0,0,0-.669-.912,2.175,2.175,0,0,0-.8-.614C670.487,591.979,668.091,591.742,662.928,597.039Zm11.775,11.24c-2.329,1.648-6.526,2.189-8.442.414a8.085,8.085,0,0,1-.249-8.673c.328-.341.626-.645.9-.924,2.524-2.524,3.333-2.5,9.2.134C677.792,603.76,678.053,605.931,674.7,608.279ZM956,176.271l-.973-.17c-4-.742-9.689,2.366-11.07,6.058a10.805,10.805,0,0,0,14.117,14.086,8.014,8.014,0,0,0,2.743-1.849c2.494-2.494,4-6.623,3.29-9.944-.249-1.162-.6-2.3-.943-3.436l-.42-1.4a2.133,2.133,0,0,0-.718-1.083,2.021,2.021,0,0,0-.5-.456A13.94,13.94,0,0,0,956,176.271Zm3.053,6c.31,1.022.626,2.05.852,3.09.5,2.366-1.32,6.094-3.369,6.879a6.517,6.517,0,0,1-8.558-8.576,3.229,3.229,0,0,1,.773-1.1c1.356-1.356,3.971-2.524,5.5-2.238l1.046.182a11.862,11.862,0,0,1,3.522.955Zm-62.65,181.291a12.027,12.027,0,0,0,.42,14.81c3.564,3.3,10.029,2.627,13.836-.061a13.126,13.126,0,0,0,1.745-1.466c4.342-4.342,2.415-9.415.961-13.222a2.135,2.135,0,0,0-.669-.918,2.2,2.2,0,0,0-.791-.614C903.974,358.5,901.547,358.14,896.407,363.559ZM908.188,374.8c-2.329,1.648-6.526,2.189-8.442.414a8.064,8.064,0,0,1-.25-8.679c.329-.341.62-.645.9-.924,2.524-2.524,3.339-2.5,9.2.134C911.278,370.273,911.54,372.439,908.188,374.8ZM678.333,550.275l-4.251-1.131c-4.44-1.186-9.208-2.494-13.976-4.026-4.349-1.393-7.043.633-8.953,2.548-10.753,10.923-22.941,23.312-35.227,35.135-3.473,3.436-4.568,6.952-3.223,11.635,2.183,7.59,4.258,15.2,6.331,22.826l3.108,11.355c.462,1.66.858,3.339,1.259,5.018a63.368,63.368,0,0,0,3.892,12.425,2.132,2.132,0,0,0,.6.76,2.085,2.085,0,0,0,.389.377c2.554,1.916,5.48,2.457,8.071,2.938a32.084,32.084,0,0,1,3.345.742c5.711,1.709,11.556,3.217,17.212,4.683,7.815,2.019,15.886,4.1,23.622,6.733,5.486,1.867,9.324-.9,11.805-3.375.584-.584,1.089-1.149,1.52-1.636,4.914-5.5,10.248-10.808,15.381-15.941,2.481-2.469,4.957-4.945,7.4-7.444,1.326-1.326,2.719-2.567,4.124-3.8a43.365,43.365,0,0,0,7.681-8.04,6.471,6.471,0,0,0,1.332-5.948c-1.448-6.27-3.175-12.553-4.841-18.629-1.636-5.96-3.327-12.121-4.744-18.228-.407-1.752-.936-3.485-1.46-5.212a54.58,54.58,0,0,1-1.752-6.763c-.852-5.03-3.516-7.937-8.387-9.147C698.489,555.645,688.411,552.957,678.333,550.275Zm34.43,17.735a59.525,59.525,0,0,0,1.879,7.292c.5,1.636,1,3.278,1.381,4.932,1.441,6.185,3.138,12.389,4.781,18.392,1.654,6.033,3.369,12.279,4.8,18.465.268,1.168.146,1.35-.809,2.731a38.434,38.434,0,0,1-6.848,7.055c-1.49,1.308-2.968,2.639-4.373,4.026-2.433,2.494-4.9,4.945-7.359,7.408-5.182,5.182-10.546,10.534-15.545,16.117-3.09,3.461-5.291,4.981-8.746,3.807-7.895-2.682-16.05-4.786-23.932-6.824-5.614-1.448-11.428-2.95-17.054-4.641a34.373,34.373,0,0,0-3.8-.845c-2.256-.42-4.391-.815-6.118-2.037a61.507,61.507,0,0,1-3.436-11.245c-.414-1.727-.827-3.461-1.3-5.17l-3.1-11.337c-2.08-7.639-4.16-15.278-6.349-22.886-.9-3.138-.432-5.054,2.074-7.359,12.322-11.866,24.529-24.273,35.306-35.221,1.6-1.654,2.755-2.056,4.579-1.472,4.86,1.557,9.683,2.883,14.183,4.081l4.251,1.131c10.1,2.694,20.2,5.382,30.349,7.894C710.835,563.12,712.191,564.61,712.763,568.01Zm61.659-322.131a9.2,9.2,0,0,0,2.469-1.782c2.609-2.609,4.136-6.812,3.333-10.047-.091-.371-.17-.754-.249-1.137a11.438,11.438,0,0,0-1.715-4.628,2.281,2.281,0,0,0-.322-.359,3.925,3.925,0,0,0-3.515-1.727c-6.514-1.952-11.379-.03-14.463,5.717-2.1,3.911-.055,7.748,1.435,10.546l.231.432C763.335,246.123,771.965,247.059,774.422,245.879Zm-9.238-5.437c-1.484-2.786-2.39-4.744-1.442-6.5a10.086,10.086,0,0,1,1.727-2.408c1.892-1.891,4.33-2.25,7.724-1.229a5.819,5.819,0,0,0,1.289.195,2.118,2.118,0,0,0,.347.353,8.169,8.169,0,0,1,.949,2.913c.091.444.182.882.292,1.32.541,2.2-1.326,5.881-3.467,6.915-1.283.468-6.4-.432-7.177-1.119Zm-2.305,48.8,4.02,1.07c4.2,1.113,9.147,2.469,13.976,4.02,4.336,1.393,6.976-.681,8.953-2.548,12.432-12.632,23.665-24,35.226-35.135.085-.085.176-.17.268-.262,3.388-3.382,4.27-6.806,2.95-11.379-3.181-11.057-6.179-22.163-9.178-33.268l-.243-.906c-.42-1.551-.815-3.12-1.21-4.683a123.627,123.627,0,0,0-3.558-12.261,2.14,2.14,0,0,0-.675-.943,2.438,2.438,0,0,0-.3-.31c-3.041-2.542-6.678-3.205-9.889-3.789a35.662,35.662,0,0,1-3.984-.876c-4.537-1.356-9.2-2.524-13.7-3.649A195.852,195.852,0,0,1,764.6,178.26c-9.98-3.722-15.618,1.375-20.539,6.9a315.339,315.339,0,0,1-24.644,24.674,67.312,67.312,0,0,0-6,6.392l-1.569,1.812a4.765,4.765,0,0,0-.76,4.738l.122.517c1.46,6.623,3.284,13.24,5.048,19.645,1.551,5.638,3.163,11.471,4.5,17.248.407,1.758.931,3.491,1.46,5.218a53.585,53.585,0,0,1,1.745,6.751c.857,5.036,3.522,7.943,8.393,9.147C742.571,283.831,752.728,286.537,762.878,289.244Zm-34.661-17.8a59.591,59.591,0,0,0-1.873-7.28c-.5-1.642-1-3.278-1.387-4.945-1.362-5.863-2.98-11.732-4.549-17.413-1.751-6.35-3.558-12.912-5-19.432l-.146-.614a5.5,5.5,0,0,1-.182-.87l1.6-1.849a65.779,65.779,0,0,1,5.614-6,315.608,315.608,0,0,0,24.979-25.015c4.543-5.109,8.344-8.521,15.837-5.729a200.546,200.546,0,0,0,21.384,6.21c4.458,1.113,9.068,2.269,13.514,3.594a41.392,41.392,0,0,0,4.452.985c2.883.529,5.614,1.022,7.767,2.743,1.314,3.7,2.305,7.6,3.26,11.385.4,1.587.8,3.169,1.228,4.75l.243.906c3,11.13,6,22.26,9.19,33.335.906,3.144.359,4.993-2.068,7.359-5.6,5.395-11.118,10.838-16.731,16.452-6.015,6.015-12.134,12.219-18.574,18.763-1.563,1.709-2.761,2.062-4.586,1.472-4.92-1.581-9.932-2.95-14.189-4.081l-4.02-1.07c-10.181-2.713-20.356-5.425-30.58-7.955C730.145,276.338,728.8,274.848,728.217,271.448Zm9.9,97.482c-3.686-.924-7.377-1.849-11.039-2.852l-4.726-1.308c-4.111-1.143-8.217-2.281-12.34-3.345-4.458-1.149-6.933.158-9.439,2.67l-.091.091C688.757,376.045,676.8,388,664.941,399.728c-2.682,2.506-4,5.115-2.676,9.585,2.646,8.959,5,18.185,7.286,27.107q1.277,5.018,2.573,10.017l3.023,11.738a9.081,9.081,0,0,0,6.927,6.9c5.395,1.338,10.759,2.8,16.117,4.257,5.03,1.368,10.054,2.731,15.108,4,2.585.651,5.158,1.368,7.724,2.086,3.321.931,6.642,1.855,10,2.64,4.561,1.064,6.879-.377,9.476-2.78,11.726-11.86,23.689-23.817,35.537-35.543l.11-.109c2.512-2.512,3.813-4.993,2.6-9.439-1.612-5.869-3.181-11.744-4.762-17.619-1.782-6.648-3.564-13.3-5.395-19.937-.426-1.545-.821-3.1-1.222-4.641-.864-3.357-1.764-6.836-2.919-10.218a3.583,3.583,0,0,0-1.612-1.654A230.017,230.017,0,0,0,738.119,368.929Zm25.1,20.137c.407,1.575.809,3.144,1.241,4.707,1.825,6.629,3.6,13.265,5.383,19.906q2.363,8.822,4.762,17.644c.705,2.56.146,3.576-1.581,5.364q-8.9,8.8-17.838,17.741-8.913,8.913-17.741,17.838c-1.672,1.752-2.773,2.244-5.449,1.618-3.3-.766-6.556-1.679-9.816-2.591-2.609-.73-5.218-1.46-7.84-2.117-5.024-1.259-10.023-2.621-15.029-3.984-5.389-1.466-10.783-2.932-16.214-4.282a4.832,4.832,0,0,1-3.807-3.813l-3.023-11.744q-1.3-4.99-2.573-10c-2.287-8.959-4.659-18.228-7.323-27.265-.742-2.5-.359-3.467,1.581-5.322,11.872-11.738,23.841-23.707,35.573-35.573,1.7-1.837,2.81-2.287,5.407-1.618,4.1,1.052,8.186,2.19,12.267,3.327l4.732,1.308c3.7,1.016,7.414,1.946,11.136,2.883a235.158,235.158,0,0,1,23.562,6.787C761.626,382.894,762.434,386.026,763.219,389.067ZM625.6,778.141c-6.66-3.746-10.193.985-12.553,4.117l-.882,1.156c-2.451,3.1-1.156,6.3-.3,8.418a12.012,12.012,0,0,1,.7,2.013c.219,1.022.979,2.433,3.4,3.333,3.23,1.21,8.849,1.2,11.264-.626a15.226,15.226,0,0,0,1.594-1.381c5.559-5.559,2.439-12.121,1.362-14.4a2.11,2.11,0,0,0-.6-.754,1.237,1.237,0,0,0-.085-.1,5.349,5.349,0,0,0-3.1-1.557A4.3,4.3,0,0,1,625.6,778.141Zm.852,4.8c2.153,4.707,1.642,7.584-1.813,10.181-1.3.973-7.037.687-7.882-.17a16.84,16.84,0,0,0-.918-2.737c-.882-2.177-1.138-3.1-.31-4.142l.949-1.247a23.655,23.655,0,0,1,2.05-2.481c1.508-1.508,2.761-1.709,4.963-.468a6.685,6.685,0,0,0,1.989.675,3.053,3.053,0,0,1,.821.243C626.357,782.843,626.4,782.891,626.454,782.94Zm453.2-656.127c2.414,8.387,4.659,16.829,6.9,25.264l2.555,9.567c.371,1.381.766,2.761,1.162,4.136.894,3.1,1.818,6.307,2.4,9.47.718,3.886,3.223,6.35,7.432,7.329,16.549,3.826,32.514,8.132,47.458,12.8,5.547,1.733,9.342-1.016,11.781-3.455.572-.572,1.07-1.119,1.5-1.6,1.362-1.527,2.767-3.011,4.172-4.495l-3.035-3.035c-1.459,1.539-2.913,3.084-4.33,4.671-2.992,3.321-5.267,4.92-8.807,3.813-15.041-4.7-31.115-9.032-47.768-12.882-2.567-.6-3.777-1.733-4.185-3.929-.62-3.363-1.575-6.672-2.494-9.871-.389-1.356-.778-2.706-1.143-4.063l-2.555-9.561c-2.25-8.466-4.507-16.932-6.921-25.35-.8-2.773-.5-3.923,1.46-6.009q3.366-3.284,6.848-6.721l-3.035-3.035q-3.467,3.421-6.806,6.684C1079.091,119.484,1078.416,122.525,1079.651,126.813Zm-423.3,614.673a31.668,31.668,0,0,1-3.339-.742c-5.833-1.746-11.805-3.3-17.583-4.793-7.688-1.995-15.637-4.051-23.282-6.6-4.543-1.514-8.569-.414-12.036,3.54-6.246,6.836-12.675,13.368-18.7,19.414-4.689,4.713-9.518,9.311-14.347,13.66-4.13,3.649-5.091,7.456-3.449,13.021,3.953,13.435,7.432,27.271,10.789,40.658l1.387,5.516a10.5,10.5,0,0,0,8.314,8.308l5.535,1.393c13.374,3.357,27.211,6.83,40.64,10.783,5.224,1.539,8.9.705,12.5-2.889.17-.17.34-.341.5-.523,5.863-6.282,12.34-12.985,20.4-21.1,3.649-3.594,7.633-7.456,13-12.334,3.418-3.114,4.5-6.672,3.333-10.917q-4.516-16.33-8.892-32.691l-4.58-16.938a12.561,12.561,0,0,0-.779-1.964l-.3-.669a2.127,2.127,0,0,0-.633-.833,2.082,2.082,0,0,0-.389-.377C661.863,742.5,658.932,741.966,656.347,741.486Zm5.516,6.647a8.1,8.1,0,0,1,.523,1.259l4.58,16.926q4.416,16.367,8.9,32.715c.754,2.712.134,4.574-2.074,6.6-5.425,4.926-9.476,8.837-13.161,12.486-8.095,8.144-14.6,14.883-20.5,21.2-2.646,2.883-4.744,3.376-8.655,2.232-13.508-3.978-27.387-7.463-40.8-10.832l-5.528-1.393c-3.029-.76-4.434-2.165-5.194-5.194l-1.387-5.516c-3.37-13.423-6.854-27.308-10.838-40.822-1.083-3.68-.7-5.747,1.618-8.065.182-.182.383-.371.584-.56,4.884-4.4,9.761-9.08,14.518-13.818,6.051-6.082,12.517-12.657,18.818-19.553,2.457-2.615,4.6-3.333,7.517-2.36,7.779,2.591,15.8,4.671,23.561,6.678,5.741,1.49,11.671,3.023,17.431,4.75a35.752,35.752,0,0,0,3.8.845c2.263.42,4.4.815,6.118,2.031ZM889.821,508a30.8,30.8,0,0,1-3.339-.742c-5.833-1.745-11.805-3.3-17.577-4.793-7.688-1.995-15.643-4.051-23.282-6.6-4.543-1.508-8.551-.4-12.042,3.546-6.246,6.83-12.675,13.368-18.7,19.414-4.689,4.714-9.524,9.318-14.347,13.66-4.124,3.625-5.091,7.45-3.448,13.021,3.953,13.429,7.426,27.265,10.789,40.646l1.387,5.529a10.5,10.5,0,0,0,8.314,8.308l5.541,1.393c13.374,3.357,27.2,6.83,40.628,10.783,5.224,1.539,8.9.706,12.5-2.889.17-.17.334-.341.5-.523,5.863-6.283,12.34-12.985,20.4-21.1,3.643-3.643,7.639-7.457,13-12.334,3.375-3.084,4.5-6.672,3.333-10.917-3.035-10.972-6-21.962-8.959-32.946l-4.513-16.683a12.271,12.271,0,0,0-.778-1.958l-.31-.669a2.124,2.124,0,0,0-.633-.833,2.086,2.086,0,0,0-.389-.377C895.343,509.021,892.412,508.48,889.821,508Zm5.529,6.654a7.589,7.589,0,0,1,.517,1.247l4.507,16.677q4.452,16.494,8.971,32.97c.748,2.713.14,4.562-2.074,6.6-5.419,4.926-9.457,8.813-13.161,12.486-8.1,8.144-14.6,14.883-20.5,21.2-2.639,2.877-4.75,3.382-8.648,2.226-13.508-3.971-27.381-7.456-40.8-10.826l-5.541-1.393a6.221,6.221,0,0,1-5.194-5.194l-1.393-5.529c-3.369-13.423-6.854-27.3-10.832-40.816-1.083-3.68-.706-5.747,1.618-8.065.182-.182.383-.371.584-.56,4.884-4.4,9.768-9.086,14.524-13.824,6.052-6.082,12.523-12.657,18.818-19.553,2.457-2.615,4.6-3.333,7.517-2.366,7.779,2.591,15.807,4.671,23.568,6.684,5.735,1.484,11.665,3.023,17.419,4.744a35.973,35.973,0,0,0,3.789.852c2.263.42,4.4.809,6.119,2.031ZM540.936,479.365a9.077,9.077,0,0,0,2.463-1.782c2.609-2.609,4.142-6.812,3.339-10.053-.091-.371-.17-.754-.249-1.137a11.5,11.5,0,0,0-1.715-4.634,2.031,2.031,0,0,0-.322-.359,3.927,3.927,0,0,0-3.509-1.727c-6.514-1.958-11.379-.03-14.469,5.723-2.1,3.911-.055,7.754,1.441,10.552l.225.42C529.854,479.609,538.479,480.545,540.936,479.365Zm-9.232-5.437c-1.484-2.786-2.39-4.744-1.448-6.508a10.391,10.391,0,0,1,1.727-2.408c1.892-1.891,4.33-2.25,7.724-1.229a5.49,5.49,0,0,0,1.289.195,2.111,2.111,0,0,0,.347.353,8.206,8.206,0,0,1,.949,2.919c.085.438.182.882.286,1.314.541,2.2-1.326,5.887-3.467,6.921-1.283.474-6.4-.432-7.183-1.119Zm327.379,70.733c-6.66-3.746-10.193.991-12.553,4.111l-.882,1.156c-2.451,3.1-1.156,6.307-.3,8.424a12.7,12.7,0,0,1,.7,2.007c.213,1.022.979,2.433,3.4,3.333,3.23,1.21,8.849,1.2,11.264-.62a15.944,15.944,0,0,0,1.594-1.375c5.559-5.559,2.439-12.121,1.362-14.4a2.184,2.184,0,0,0-.6-.76c-.03-.037-.055-.067-.085-.1a5.364,5.364,0,0,0-3.1-1.557A4.843,4.843,0,0,1,859.083,544.661Zm.852,4.793c2.159,4.707,1.593,7.59-1.806,10.187-1.3.979-7.031.687-7.876-.17a17.037,17.037,0,0,0-.918-2.737c-.882-2.177-1.138-3.1-.31-4.148l.949-1.247a23.654,23.654,0,0,1,2.05-2.481c1.508-1.508,2.761-1.709,4.963-.468a7.052,7.052,0,0,0,1.989.675,3.056,3.056,0,0,1,.821.243C859.843,549.363,859.892,549.411,859.934,549.454ZM1033.653,447.32c-9.981-3.716-15.606,1.368-20.545,6.9A314.245,314.245,0,0,1,988.47,478.9a67.337,67.337,0,0,0-5.972,6.356l-1.606,1.849a4.77,4.77,0,0,0-.754,4.726l.128.523c1.466,6.629,3.284,13.253,5.054,19.657,1.2,4.361,2.4,8.837,3.521,13.313l3.54-3.54c-.949-3.68-1.934-7.335-2.919-10.911-1.752-6.356-3.564-12.924-5-19.444l-.146-.62a8.259,8.259,0,0,1-.189-.864l1.636-1.885a65.856,65.856,0,0,1,5.589-5.966,318.735,318.735,0,0,0,24.979-25.015c4.537-5.115,8.35-8.515,15.843-5.729a201.725,201.725,0,0,0,21.372,6.2c.809.2,1.642.42,2.457.626l3.527-3.528c-1.654-.426-3.315-.851-4.945-1.259A199.023,199.023,0,0,1,1033.653,447.32Zm-726.2,265.526a9.075,9.075,0,0,0,2.463-1.782c2.609-2.609,4.142-6.812,3.339-10.053-.091-.377-.17-.76-.249-1.143a11.538,11.538,0,0,0-1.715-4.622,2.287,2.287,0,0,0-.322-.359,3.944,3.944,0,0,0-3.515-1.727c-6.514-1.952-11.379-.03-14.469,5.717-2.1,3.911-.055,7.748,1.435,10.546l.231.432C296.374,713.089,305,714.025,307.456,712.845Zm-9.239-5.437c-1.484-2.786-2.39-4.744-1.441-6.5A10.206,10.206,0,0,1,298.5,698.5c1.892-1.891,4.33-2.25,7.73-1.229a5.836,5.836,0,0,0,1.283.189,2.11,2.11,0,0,0,.347.353,8.3,8.3,0,0,1,.949,2.907c.091.444.183.888.292,1.32.541,2.2-1.32,5.887-3.467,6.921-1.283.474-6.4-.432-7.177-1.119Zm1.721,49.872c4.2,1.113,9.147,2.469,13.976,4.02,4.336,1.393,7.1-.6,8.953-2.548,12.432-12.632,23.665-24,35.227-35.135.085-.085.177-.17.262-.255,3.388-3.388,4.269-6.812,2.956-11.379-3.181-11.051-6.228-22.351-9.178-33.274l-.243-.9c-.42-1.557-.815-3.12-1.21-4.683a124.2,124.2,0,0,0-3.558-12.267,2.085,2.085,0,0,0-.675-.937,2.43,2.43,0,0,0-.3-.31c-3.041-2.542-6.678-3.205-9.889-3.789a37.538,37.538,0,0,1-3.99-.876c-4.537-1.356-9.2-2.524-13.7-3.649a198.692,198.692,0,0,1-20.928-6.064c-9.981-3.722-15.618,1.375-20.539,6.9A315.418,315.418,0,0,1,252.45,676.8a67.182,67.182,0,0,0-6,6.392l-1.569,1.812a4.765,4.765,0,0,0-.76,4.738l.122.517c1.466,6.629,3.284,13.253,5.054,19.657,1.551,5.632,3.157,11.458,4.5,17.23.408,1.758.937,3.5,1.46,5.231a54.491,54.491,0,0,1,1.746,6.739c.858,5.036,3.515,7.943,8.393,9.147,10.193,2.518,20.35,5.23,30.507,7.937Zm-38.687-18.866a59.231,59.231,0,0,0-1.873-7.274c-.5-1.642-1-3.284-1.387-4.951-1.362-5.857-2.98-11.726-4.543-17.4-1.752-6.356-3.564-12.924-5.005-19.444l-.146-.614a6.694,6.694,0,0,1-.189-.87l1.606-1.849a63.333,63.333,0,0,1,5.614-6A316.68,316.68,0,0,0,280.306,655c4.537-5.109,8.344-8.521,15.837-5.729a200.392,200.392,0,0,0,21.378,6.2c4.458,1.119,9.068,2.269,13.514,3.6a41.382,41.382,0,0,0,4.452.985c2.883.529,5.614,1.022,7.767,2.743,1.314,3.7,2.3,7.6,3.26,11.385.4,1.587.8,3.169,1.229,4.75l.243.894c2.95,10.941,6,22.26,9.2,33.341.906,3.144.359,4.993-2.068,7.365-5.6,5.395-11.118,10.838-16.731,16.452-6.015,6.015-12.134,12.219-18.574,18.763-1.751,1.739-2.761,2.056-4.586,1.472-4.92-1.581-9.932-2.95-14.183-4.081l-4.02-1.07c-10.181-2.713-20.356-5.425-30.58-7.955C263.179,743.3,261.829,741.814,261.251,738.414ZM443.7,845.268a14,14,0,0,0,1.746-1.46c4.343-4.342,2.409-9.415.967-13.222a2.135,2.135,0,0,0-.669-.918,2.176,2.176,0,0,0-.8-.614c-7.949-3.588-10.358-3.813-15.509,1.472-1.575,1.636-2.427,4.355-2.342,7.469a10.386,10.386,0,0,0,2.767,7.341C433.425,848.625,439.89,847.956,443.7,845.268Zm-12.316-7.4a6.6,6.6,0,0,1,1.143-4.361c.329-.341.626-.645.9-.924,2.524-2.524,3.339-2.5,9.2.128,1.685,4.531,1.934,6.708-1.411,9.05-2.329,1.648-6.526,2.19-8.448.414A6.584,6.584,0,0,1,431.388,837.866Zm-25.161,46.5c5.711,1.709,11.555,3.223,17.212,4.683,7.815,2.019,15.892,4.105,23.628,6.733,5.486,1.867,9.324-.9,11.805-3.375.584-.584,1.089-1.149,1.52-1.636,4.908-5.5,10.23-10.8,15.381-15.941,2.469-2.475,4.951-4.945,7.4-7.444,1.314-1.314,2.719-2.567,4.13-3.8a43.6,43.6,0,0,0,7.688-8.04,6.447,6.447,0,0,0,1.326-5.942c-1.454-6.277-3.175-12.559-4.841-18.647-1.636-5.954-3.327-12.109-4.738-18.209-.413-1.758-.937-3.491-1.46-5.224a54.656,54.656,0,0,1-1.746-6.751c-.851-5.036-3.515-7.943-8.393-9.147-10.12-2.5-20.2-5.188-30.27-7.87l-4.251-1.131c-4.215-1.125-9.172-2.481-13.976-4.02-4.342-1.4-7.073.669-8.953,2.548-10.753,10.923-22.941,23.306-35.227,35.135-3.54,3.448-4.567,6.952-3.217,11.635,2.19,7.609,4.27,15.241,6.35,22.88l3.1,11.3c.462,1.66.858,3.339,1.259,5.024a64.034,64.034,0,0,0,3.886,12.425,2.156,2.156,0,0,0,.6.766,2.081,2.081,0,0,0,.389.377c2.554,1.916,5.486,2.457,8.071,2.932A31.316,31.316,0,0,1,406.227,884.369Zm-12.121-18.234c-.414-1.733-.827-3.461-1.3-5.17l-3.09-11.282c-2.086-7.663-4.172-15.314-6.368-22.941-.9-3.138-.462-5.024,2.074-7.359,12.316-11.866,24.528-24.273,35.306-35.221,1.636-1.752,2.755-2.062,4.58-1.472,4.9,1.569,9.92,2.944,14.189,4.081l4.251,1.131c10.1,2.694,20.2,5.383,30.349,7.894,3.26.809,4.61,2.3,5.188,5.7a58.927,58.927,0,0,0,1.879,7.286c.5,1.642,1,3.278,1.387,4.945,1.435,6.179,3.138,12.377,4.78,18.374,1.655,6.039,3.37,12.286,4.8,18.477.268,1.162.146,1.35-.809,2.731a39.025,39.025,0,0,1-6.848,7.055c-1.49,1.308-2.962,2.64-4.373,4.026-2.433,2.487-4.908,4.945-7.359,7.408-5.176,5.176-10.552,10.534-15.545,16.117-3.077,3.448-5.291,4.987-8.746,3.813-7.894-2.682-16.05-4.786-23.939-6.824-5.613-1.448-11.422-2.95-17.048-4.641a36.07,36.07,0,0,0-3.795-.845c-2.263-.42-4.4-.815-6.125-2.038A61.347,61.347,0,0,1,394.105,866.135Zm172.581,48.151c-9.98-3.722-15.606,1.368-20.545,6.9a314.3,314.3,0,0,1-24.638,24.68,66.486,66.486,0,0,0-5.967,6.356l-1.612,1.855a4.755,4.755,0,0,0-.754,4.726l.128.517c1.466,6.629,3.284,13.253,5.054,19.657,1.2,4.361,2.4,8.837,3.521,13.313l3.54-3.54c-.949-3.68-1.934-7.335-2.919-10.911-1.752-6.356-3.564-12.924-5-19.444l-.146-.62a7.964,7.964,0,0,1-.189-.87l1.636-1.885a65.812,65.812,0,0,1,5.583-5.96,315.614,315.614,0,0,0,24.979-25.021c4.537-5.109,8.35-8.521,15.843-5.729a200.526,200.526,0,0,0,21.366,6.2c.815.207,1.642.42,2.463.626l3.527-3.528c-1.66-.426-3.321-.852-4.951-1.259A199.613,199.613,0,0,1,566.687,914.286ZM800.167,680.8c-9.98-3.716-15.618,1.362-20.545,6.9a315.349,315.349,0,0,1-24.638,24.681,66.468,66.468,0,0,0-5.966,6.356l-1.612,1.855a4.768,4.768,0,0,0-.754,4.726l.122.517c1.466,6.629,3.29,13.253,5.054,19.657,1.2,4.361,2.4,8.837,3.515,13.313l3.54-3.54c-.949-3.68-1.934-7.341-2.92-10.917-1.752-6.35-3.558-12.918-5-19.438l-.146-.62a6.87,6.87,0,0,1-.189-.864l1.636-1.885a64.1,64.1,0,0,1,5.583-5.96,316.681,316.681,0,0,0,24.978-25.021c4.531-5.109,8.35-8.515,15.838-5.723a200.123,200.123,0,0,0,21.366,6.2c.809.2,1.642.42,2.463.626l3.527-3.528c-1.66-.426-3.321-.851-4.951-1.259A200.571,200.571,0,0,1,800.167,680.8Zm96.4-709.222-.973-.255-3.516,3.515,3.284.858,5.65,20.819c5.717,21.019,11.623,42.744,17.224,64.171.456,1.739.973,3.461,1.49,5.188A64.766,64.766,0,0,1,922.4,77.123a7.19,7.19,0,0,0,.62,2.2c-24.778,25.648-50.334,51.2-75.982,75.982a7.339,7.339,0,0,0-2.2-.614A65.413,65.413,0,0,1,833.6,152.01c-1.727-.523-3.448-1.034-5.188-1.5-21.421-5.6-43.151-11.507-64.171-17.218l-20.818-5.65-.858-3.284-3.515,3.515.255.973-76.219,76.219-.973-.255-3.515,3.515,3.284.858,5.748,21.183c5.68,20.9,11.555,42.507,17.121,63.8.462,1.746.973,3.473,1.5,5.206a64.686,64.686,0,0,1,2.67,11.233,7.194,7.194,0,0,0,.62,2.2c-24.778,25.648-50.334,51.2-75.982,75.982a7.341,7.341,0,0,0-2.2-.614,64.931,64.931,0,0,1-11.239-2.676c-1.727-.517-3.454-1.04-5.2-1.5-21.3-5.571-42.9-11.44-63.8-17.121l-21.19-5.754-.858-3.284-3.515,3.515.255.973-76.219,76.219-.973-.255-3.515,3.515,3.284.858,5.729,21.117c5.687,20.922,11.568,42.549,17.139,63.867.456,1.74.979,3.473,1.5,5.2a64.916,64.916,0,0,1,2.67,11.239,7.184,7.184,0,0,0,.62,2.2c-24.784,25.648-50.334,51.2-75.982,75.982a7.545,7.545,0,0,0-2.2-.62,64.729,64.729,0,0,1-11.233-2.676c-1.733-.523-3.461-1.04-5.206-1.5-21.421-5.6-43.151-11.507-64.171-17.218l-20.818-5.65-.858-3.284-3.515,3.515.256.973-76.2,76.213-.973-.255-3.515,3.515,3.284.857,5.65,20.819c2.6,9.549,5.237,19.268,7.864,29.011l6.064,6.064c-3.272-12.176-6.556-24.31-9.792-36.206l-5.62-20.709L275.44,598.76l20.709,5.62c21.025,5.717,42.768,11.629,64.213,17.236,1.691.444,3.375.949,5.054,1.454a68.643,68.643,0,0,0,11.975,2.828c1.046.122,1.843.566,2.305,2.329,7.833,29.771,16.245,61.227,26.462,98.99.614,2.275.164,3.71-1.776,5.65l-.03.03c-23.647,23.543-47.184,47.2-70.867,70.7l-.055.055a12.5,12.5,0,0,0-2.293,3.156l-1.77-.5c-1.837-.517-3.667-1.04-5.51-1.533l-16.391-4.391c-11.179-3-22.369-5.948-33.548-8.935l6.052,6.052c8.794,2.354,17.6,4.671,26.39,7.025l16.391,4.391c1.825.487,3.637,1,5.45,1.514l1.885.529a13.377,13.377,0,0,0,.468,3.844c4.567,16.744,8.624,31.7,12.365,45.633l6.07,6.07c-4.263-15.941-8.928-33.177-14.293-52.834-.845-3.1-.419-4.811,1.77-6.994l.049-.049c23.683-23.507,47.226-47.159,70.867-70.7l.043-.043a13.22,13.22,0,0,0,2.177-2.749l18.507,4.969q41.92,11.258,83.876,22.4a2.887,2.887,0,0,1,2.427,2.56c4.628,18.976,9.859,38.122,14.913,56.641q3.494,12.781,6.939,25.587c1.277,4.781,2.524,9.567,3.753,14.3l1.362,5.224L465.13,941.1,451,937.294q-11.139-2.992-22.266-6.039c-6.775-1.843-13.7-3.7-20.594-5.565l6.088,6.088c4.458,1.21,8.971,2.415,13.374,3.613q11.139,3.038,22.284,6.045l14.08,3.789,5.7,21.019c2.573,9.464,5.188,19.1,7.8,28.768l6.07,6.07c-3.248-12.1-6.508-24.145-9.725-35.963l-5.687-20.952,76.353-76.353,20.794,5.644c19.474,5.3,39.551,10.741,59.445,15.971l3.509-3.509c-20.66-5.419-41.576-11.094-61.829-16.6l-20.91-5.674-1.332-5.1c-1.235-4.744-2.488-9.543-3.765-14.329q-3.421-12.818-6.939-25.611c-5.048-18.489-10.266-37.6-14.883-56.526a9.773,9.773,0,0,0-.663-1.885c25.076-25.757,50.839-51.526,76.6-76.59l.03-.024c.018-.024.031-.049.049-.073a16.311,16.311,0,0,0,5.236,2.22c20.5,5.078,41.248,10.729,61.3,16.19q11.121,3.029,22.254,6.039l14.08,3.8,5.729,21.1c5.48,20.174,11.136,41,16.537,61.592l3.509-3.509c-5.212-19.821-10.637-39.818-15.911-59.214l-5.7-21.031,76.359-76.359,21.165,5.741c19.353,5.261,39.308,10.668,59.08,15.874l3.509-3.509c-20.539-5.383-41.327-11.027-61.458-16.5l-21.275-5.778-1.217-4.671c-1.271-4.89-2.56-9.828-3.88-14.761q-3.43-12.863-6.964-25.7c-5.042-18.453-10.248-37.538-14.858-56.428a9.63,9.63,0,0,0-.663-1.885c25.082-25.763,50.839-51.526,76.6-76.59l.018-.018c.024-.018.03-.049.049-.073a16.311,16.311,0,0,0,5.237,2.22c20.49,5.078,41.223,10.722,61.263,16.184q11.139,3.038,22.284,6.045l14.08,3.789,5.723,21.1c5.486,20.174,11.142,41,16.537,61.6l3.509-3.509c-5.212-19.821-10.637-39.819-15.9-59.214l-5.711-21.031,76.359-76.359,20.794,5.644c19.475,5.291,39.551,10.735,59.445,15.971l3.509-3.509c-20.66-5.419-41.576-11.093-61.829-16.6l-20.909-5.674-1.3-4.975c-1.253-4.787-2.512-9.628-3.8-14.463q-3.431-12.845-6.958-25.678C995.361,333.1,990.148,314,985.538,295.107a9.765,9.765,0,0,0-.663-1.885c25.076-25.757,50.839-51.526,76.6-76.59l.018-.018c.024-.018.031-.049.049-.073a16.289,16.289,0,0,0,5.243,2.22c20.49,5.078,41.224,10.723,61.264,16.184q11.139,3.038,22.284,6.045l14.08,3.789,5.723,21.092c5.486,20.174,11.142,41,16.537,61.6l3.509-3.509c-5.212-19.821-10.637-39.819-15.9-59.214l-5.711-21.025,27.162-27.162-3.035-3.035-27.125,27.126-14.135-3.8q-11.139-2.992-22.266-6.039c-20.07-5.468-40.822-11.118-61.361-16.2-5.395-1.338-6.593-3.807-7.876-8.74-7.061-27.083-14.712-55.644-24.808-92.616-.845-3.1-.42-4.811,1.77-6.994l.048-.049q12.152-12.061,24.255-24.176L1058.157,79q-12.116,12.1-24.243,24.164l-.055.055a12.507,12.507,0,0,0-2.293,3.157l-1.612-.456c-1.885-.529-3.771-1.07-5.668-1.575L1007.9,99.949q-39.439-10.573-78.914-21.013c-1.764-.462-2.208-1.259-2.329-2.305a68.845,68.845,0,0,0-2.828-11.994c-.5-1.679-1.01-3.351-1.448-5.042-5.607-21.439-11.519-43.188-17.236-64.213l-5.62-20.709,27.162-27.162-3.035-3.035ZM693.185,310.111a68.657,68.657,0,0,0-2.828-11.975c-.5-1.679-1.01-3.363-1.454-5.054-5.577-21.317-11.452-42.939-17.139-63.842l-5.717-21.074,76.359-76.359,20.709,5.62c21.025,5.717,42.768,11.629,64.207,17.23,1.691.444,3.363.949,5.042,1.454a68.9,68.9,0,0,0,11.987,2.828c1.046.122,1.837.566,2.305,2.329,7.834,29.771,16.245,61.227,26.463,98.99.614,2.275.164,3.71-1.776,5.656l-.03.03c-23.647,23.537-47.184,47.19-70.867,70.7l-.055.055a12.5,12.5,0,0,0-2.293,3.157l-1.77-.5c-1.837-.517-3.667-1.04-5.51-1.533l-17.437-4.671q-38.918-10.427-77.867-20.733C693.751,311.954,693.307,311.157,693.185,310.111ZM459.705,543.6a68.687,68.687,0,0,0-2.828-11.981c-.5-1.685-1.01-3.357-1.447-5.048-5.583-21.335-11.464-42.981-17.157-63.909l-5.7-21.013,76.353-76.353,21.074,5.717c20.9,5.681,42.525,11.562,63.842,17.139,1.691.444,3.369.943,5.048,1.454a69.26,69.26,0,0,0,11.982,2.828c1.046.122,1.837.566,2.3,2.329,7.815,29.7,16.47,62.078,26.463,98.984.62,2.287.158,3.771-1.812,5.687-23.647,23.543-47.184,47.2-70.867,70.7a11.189,11.189,0,0,0-2.372,3.205l-1.587-.45c-1.885-.529-3.771-1.07-5.668-1.575l-16.519-4.428q-39.375-10.555-78.786-20.977C460.271,545.434,459.821,544.643,459.705,543.6ZM591.532,680.514c-.006.006-.006.006-.012.006-25.757,25.07-51.514,50.833-76.6,76.584a8.492,8.492,0,0,0-1.849-.73Q471.109,745.3,429.216,733.98l-18.532-4.975a10.523,10.523,0,0,0-.389-2.9c-10.218-37.751-18.629-69.2-26.457-98.959a9.444,9.444,0,0,0-.718-1.861q19.231-18.583,38.31-37.653,19.03-19.03,37.647-38.31a9.066,9.066,0,0,0,1.861.718q39.42,10.355,78.767,20.977l16.519,4.428q2.81.757,5.607,1.563l1.721.487a13.746,13.746,0,0,0,.468,3.85c9.908,36.279,17.784,65.691,24.8,92.567A20.713,20.713,0,0,0,591.532,680.514ZM747.893,529.608c4.622,18.945,9.841,38.061,14.889,56.544q3.5,12.836,6.964,25.684c1.314,4.926,2.6,9.859,3.874,14.737l1.247,4.8-76.249,76.25-14.128-3.807q-11.121-2.992-22.236-6.033c-20.083-5.468-40.846-11.124-61.4-16.215-5.395-1.338-6.593-3.807-7.876-8.74-7.013-26.895-14.895-56.325-24.808-92.616-.846-3.1-.42-4.811,1.77-6.994l.049-.049c23.683-23.507,47.227-47.159,70.873-70.7a10.92,10.92,0,0,0,2.268-2.779l19.237,5.164Q703.9,516,745.465,527.042A2.894,2.894,0,0,1,747.893,529.608Zm77.125-82.581c-.006.006-.012.006-.012.012-25.757,25.064-51.514,50.827-76.6,76.584a8.5,8.5,0,0,0-1.849-.73q-41.573-10.966-83.08-22.181l-19.3-5.182a10.984,10.984,0,0,0-.389-2.907c-9.987-36.9-18.641-69.267-26.456-98.96a9.43,9.43,0,0,0-.718-1.861q19.231-18.583,38.31-37.647,19.031-19.04,37.653-38.31a9.064,9.064,0,0,0,1.861.718Q733.4,326.8,772.287,337.291l17.437,4.671c1.825.487,3.637,1,5.449,1.514l1.885.529a13.373,13.373,0,0,0,.468,3.844c10.09,36.954,17.735,65.509,24.8,92.567A20.017,20.017,0,0,0,825.018,447.028ZM981.372,296.122c4.622,18.957,9.847,38.079,14.895,56.574,2.329,8.551,4.671,17.1,6.952,25.654,1.289,4.823,2.548,9.652,3.789,14.432l1.332,5.1L932.1,474.129l-14.135-3.8q-11.139-2.992-22.266-6.039c-20.07-5.462-40.822-11.118-61.361-16.2-5.395-1.338-6.593-3.807-7.876-8.74C819.4,412.263,811.747,383.7,801.65,346.73c-.845-3.1-.42-4.811,1.77-6.994l.049-.049c23.683-23.5,47.22-47.16,70.867-70.7l.042-.043a13.223,13.223,0,0,0,2.177-2.749l19.14,5.139q41.61,11.176,83.25,22.23A2.863,2.863,0,0,1,981.372,296.122ZM1006.8,104.091l16.391,4.391q2.81.757,5.608,1.563l1.721.487a13.587,13.587,0,0,0,.468,3.844c10.09,36.954,17.735,65.509,24.8,92.567a20.517,20.517,0,0,0,2.706,6.6c-.006.006-.012.006-.012.012-25.757,25.064-51.514,50.821-76.59,76.584a8.491,8.491,0,0,0-1.849-.73q-41.646-10.984-83.231-22.223l-19.158-5.145a10.557,10.557,0,0,0-.389-2.907c-10.218-37.751-18.623-69.2-26.456-98.959a9.422,9.422,0,0,0-.718-1.861q19.231-18.583,38.31-37.647,19.03-19.04,37.653-38.31a9.062,9.062,0,0,0,1.861.718Q967.387,93.46,1006.8,104.091ZM504.657,602.422c-3.692-.931-7.39-1.855-11.063-2.865l-4.7-1.3c-4.111-1.143-8.235-2.287-12.365-3.351-4.513-1.162-7.013.292-9.53,2.755-11.726,11.854-23.683,23.811-35.543,35.543-2.6,2.421-4,5.115-2.682,9.591,2.646,8.953,5,18.173,7.28,27.1q1.277,5.018,2.579,10.029l3.023,11.738a9.089,9.089,0,0,0,6.927,6.9c5.407,1.338,10.783,2.8,16.154,4.263,5.018,1.362,10.035,2.731,15.077,3.99,2.585.651,5.157,1.368,7.724,2.086,3.321.931,6.642,1.855,10,2.64,4.555,1.064,6.921-.42,9.476-2.779,11.726-11.854,23.683-23.817,35.537-35.537l.109-.11c2.512-2.512,3.813-4.993,2.6-9.439q-2.409-8.8-4.762-17.619c-1.782-6.648-3.564-13.3-5.395-19.937-.426-1.545-.821-3.1-1.222-4.641-.864-3.357-1.764-6.836-2.919-10.218a3.583,3.583,0,0,0-1.612-1.654A229.672,229.672,0,0,0,504.657,602.422Zm25.082,20.125c.408,1.575.809,3.144,1.241,4.707,1.825,6.629,3.6,13.265,5.383,19.906q2.363,8.822,4.762,17.644c.7,2.567.134,3.582-1.587,5.364q-8.9,8.8-17.838,17.735-8.913,8.913-17.741,17.838c-1.685,1.764-2.773,2.244-5.449,1.618-3.3-.766-6.556-1.679-9.816-2.591-2.609-.73-5.218-1.46-7.84-2.117-5.018-1.259-10-2.615-15-3.972-5.407-1.472-10.808-2.938-16.245-4.282a4.839,4.839,0,0,1-3.807-3.82l-3.023-11.744q-1.3-5-2.573-10.011c-2.287-8.959-4.653-18.221-7.317-27.247-.742-2.506-.334-3.5,1.581-5.328,11.872-11.738,23.841-23.707,35.573-35.573,1.758-1.733,2.81-2.293,5.407-1.624,4.111,1.058,8.2,2.2,12.292,3.333l4.708,1.3c3.7,1.022,7.432,1.952,11.16,2.889a234.71,234.71,0,0,1,23.537,6.781C528.145,616.374,528.954,619.506,529.739,622.547Zm61.927-328.523a15.214,15.214,0,0,0,1.594-1.381c5.559-5.559,2.439-12.121,1.362-14.4a2.186,2.186,0,0,0-.6-.76l-.079-.1a5.161,5.161,0,0,0-2.9-1.514l-3.357,3.357c.091.049.164.061.262.116a7.054,7.054,0,0,0,1.989.675,3.055,3.055,0,0,1,.821.243c.049.049.091.1.14.14,2.153,4.707,1.593,7.59-1.812,10.181-1.3.973-7.031.687-7.876-.17a16.311,16.311,0,0,0-.924-2.737c-.122-.3-.195-.523-.292-.772l-3.345,3.345a8.155,8.155,0,0,1,.365,1.04c.213,1.022.973,2.427,3.388,3.333C583.625,295.855,589.251,295.849,591.665,294.024ZM529.6,522.778l3.82,1.022c4.2,1.113,9.147,2.469,13.976,4.02,4.336,1.393,7.1-.59,8.953-2.548,12.438-12.638,23.665-24,35.227-35.135.085-.085.176-.17.262-.255,3.388-3.388,4.269-6.812,2.956-11.379-3.151-10.935-6.112-21.919-9.081-32.915l-.34-1.259c-.42-1.563-.821-3.132-1.216-4.7a123.658,123.658,0,0,0-3.552-12.237,2.12,2.12,0,0,0-.675-.937,2.445,2.445,0,0,0-.3-.31c-3.041-2.542-6.678-3.205-9.889-3.789a37.077,37.077,0,0,1-3.984-.87c-4.537-1.356-9.2-2.518-13.709-3.649a199.023,199.023,0,0,1-20.922-6.064c-9.981-3.716-15.625,1.375-20.539,6.9a316.48,316.48,0,0,1-24.644,24.681,67.26,67.26,0,0,0-6,6.392l-1.569,1.813a4.751,4.751,0,0,0-.754,4.732l.122.511c1.466,6.629,3.29,13.253,5.054,19.663,1.551,5.632,3.157,11.458,4.5,17.23.408,1.758.93,3.485,1.46,5.218a55.542,55.542,0,0,1,1.752,6.751c.858,5.036,3.521,7.943,8.387,9.147C509.151,517.329,519.552,520.1,529.6,522.778Zm-34.868-17.851a58.633,58.633,0,0,0-1.879-7.286c-.493-1.636-1-3.278-1.381-4.939-1.362-5.857-2.98-11.726-4.543-17.407-1.752-6.35-3.558-12.918-5-19.444l-.146-.614a6.908,6.908,0,0,1-.189-.87l1.606-1.849a62.626,62.626,0,0,1,5.614-6,314.617,314.617,0,0,0,24.979-25.015c4.549-5.115,8.351-8.515,15.837-5.729a201.811,201.811,0,0,0,21.378,6.2c4.464,1.119,9.074,2.275,13.52,3.6a43.154,43.154,0,0,0,4.446.985c2.889.529,5.62,1.028,7.773,2.749,1.314,3.692,2.3,7.59,3.26,11.361.4,1.593.8,3.187,1.235,4.768l.341,1.259c2.968,11.014,5.942,22.023,9.1,32.982.906,3.144.383,4.969-2.074,7.365-5.6,5.395-11.118,10.838-16.725,16.452-6.015,6.015-12.14,12.219-18.574,18.769-1.782,1.77-2.761,2.056-4.586,1.472-4.92-1.581-9.932-2.95-14.183-4.081l-3.82-1.016c-10.072-2.682-20.484-5.462-30.781-8.01C496.671,509.824,495.309,508.328,494.731,504.928ZM554.06,332.34c13.38,3.357,27.217,6.83,40.646,10.789,5.224,1.539,8.9.706,12.5-2.9.164-.164.328-.335.5-.517,5.808-6.234,12.1-12.742,20.4-21.1,3.667-3.643,7.663-7.481,13-12.334,3.485-3.187,4.519-6.617,3.327-10.917q-4.488-16.239-8.843-32.514l-4.628-17.109a11.566,11.566,0,0,0-.785-1.971l-.3-.663a2.149,2.149,0,0,0-.632-.827,2.089,2.089,0,0,0-.389-.377,12.317,12.317,0,0,0-2.445-1.387l-3.339,3.339a9.631,9.631,0,0,1,3.053,1.368l.176.389a8.07,8.07,0,0,1,.523,1.259l4.622,17.1c2.932,10.856,5.857,21.706,8.855,32.544.748,2.707.134,4.543-2.074,6.6-5.388,4.9-9.439,8.74-13.167,12.486-8.326,8.393-14.645,14.931-20.49,21.2-2.664,2.859-4.75,3.382-8.655,2.232-13.514-3.978-27.393-7.463-40.816-10.832l-5.522-1.387a6.1,6.1,0,0,1-4.945-4.507l-3.3,3.3a10.386,10.386,0,0,0,7.207,5.364Zm-65.022,310.9-.973-.17c-3.99-.742-9.688,2.366-11.069,6.058a10.8,10.8,0,0,0,14.116,14.086,8.011,8.011,0,0,0,2.743-1.849c2.494-2.494,4-6.623,3.29-9.95-.25-1.156-.59-2.287-.937-3.424l-.42-1.417a2.135,2.135,0,0,0-.718-1.083,2.022,2.022,0,0,0-.5-.456A13.953,13.953,0,0,0,489.039,643.238Zm3.059,6c.31,1.022.62,2.044.851,3.077.5,2.317-1.35,6.131-3.369,6.879a6.517,6.517,0,0,1-8.557-8.576,3.234,3.234,0,0,1,.772-1.1c1.356-1.356,3.978-2.524,5.5-2.238l1.052.182a11.468,11.468,0,0,1,3.515.955Zm723.886-397.474-1.612,1.855a4.774,4.774,0,0,0-.754,4.72l.128.529c1.46,6.623,3.284,13.24,5.048,19.639,1.2,4.367,2.4,8.843,3.522,13.326l3.54-3.54c-.949-3.686-1.934-7.347-2.925-10.929-1.745-6.343-3.558-12.906-5-19.426l-.146-.626a7.153,7.153,0,0,1-.189-.864l1.636-1.885a65.015,65.015,0,0,1,5.583-5.96c.523-.468,1.022-.949,1.539-1.423l-3.035-3.035c-.462.42-.906.851-1.374,1.265A67.9,67.9,0,0,0,1215.984,251.767Zm-92.677,22.753a30.8,30.8,0,0,1-3.339-.736c-5.833-1.746-11.805-3.3-17.583-4.793-7.688-1.995-15.637-4.051-23.282-6.6-4.543-1.514-8.563-.359-12.042,3.546-6.246,6.83-12.675,13.368-18.7,19.42-4.738,4.689-9.524,9.318-14.347,13.66-4.142,3.661-5.091,7.456-3.454,13.021,3.947,13.411,7.42,27.223,10.771,40.585l1.4,5.589a10.5,10.5,0,0,0,8.314,8.308l5.693,1.429c13.326,3.351,27.107,6.806,40.475,10.747,5.224,1.539,8.9.706,12.492-2.889.171-.17.341-.347.5-.523,5.863-6.283,12.34-12.985,20.4-21.1,3.643-3.643,7.639-7.456,13-12.334,3.412-3.1,4.5-6.672,3.333-10.917-3.01-10.887-5.948-21.786-8.892-32.69l-4.58-16.938a11.718,11.718,0,0,0-.778-1.958l-.31-.669a2.121,2.121,0,0,0-.632-.833,2.307,2.307,0,0,0-.389-.377C1128.83,275.541,1125.892,275,1123.307,274.519Zm5.529,6.654a7.6,7.6,0,0,1,.517,1.247l4.58,16.926q4.416,16.367,8.9,32.715c.748,2.713.146,4.555-2.074,6.6-5.425,4.926-9.458,8.819-13.162,12.486-8.095,8.144-14.6,14.883-20.5,21.2-2.67,2.852-4.744,3.382-8.649,2.226-13.453-3.959-27.277-7.432-40.646-10.789l-5.692-1.429c-3.023-.76-4.434-2.165-5.194-5.194l-1.4-5.589c-3.363-13.4-6.842-27.259-10.814-40.749-1.083-3.68-.7-5.747,1.618-8.065.183-.182.383-.371.584-.56,4.89-4.4,9.8-9.117,14.518-13.818,6.051-6.082,12.523-12.657,18.818-19.553,2.421-2.609,4.6-3.339,7.517-2.366,7.779,2.591,15.8,4.671,23.562,6.678,5.741,1.49,11.671,3.023,17.431,4.75a35.977,35.977,0,0,0,3.789.851c2.263.42,4.4.815,6.119,2.031ZM946.912-17.238l-1.569,1.812a4.782,4.782,0,0,0-.76,4.732l.128.517c1.466,6.629,3.284,13.253,5.054,19.657,1.551,5.632,3.157,11.458,4.5,17.23.407,1.758.936,3.5,1.46,5.23a54.477,54.477,0,0,1,1.745,6.739c.852,5.036,3.516,7.943,8.393,9.147,10.138,2.506,20.235,5.2,30.331,7.888l4.2,1.119c4.2,1.113,9.147,2.469,13.976,4.02,4.337,1.393,7.086-.578,8.953-2.548,2.4-2.439,4.719-4.793,7.037-7.14l-3.035-3.035c-2.329,2.36-4.653,4.714-7.061,7.165-1.739,1.727-2.761,2.056-4.586,1.472-4.92-1.581-9.932-2.95-14.183-4.081l-4.19-1.119c-10.12-2.7-20.241-5.395-30.41-7.913-3.254-.8-4.61-2.293-5.188-5.693a59.265,59.265,0,0,0-1.873-7.274c-.5-1.642-1-3.284-1.387-4.951-1.362-5.857-2.98-11.726-4.543-17.4-1.751-6.356-3.564-12.924-5.005-19.444l-.146-.62a6.951,6.951,0,0,1-.189-.87l1.606-1.849a63.332,63.332,0,0,1,5.614-6c.523-.468,1.021-.949,1.545-1.423l-3.053-3.053c-.462.42-.888.864-1.356,1.283A68.1,68.1,0,0,0,946.912-17.238ZM787.693,98.9c13.332,3.351,27.114,6.812,40.494,10.753,5.23,1.539,8.9.706,12.5-2.9.164-.164.328-.335.5-.517,5.808-6.234,12.1-12.742,20.4-21.1,3.7-3.661,7.663-7.487,13-12.334,3.455-3.108,4.5-6.672,3.321-10.917q-4.507-16.3-8.88-32.642l-4.592-16.981a11.57,11.57,0,0,0-.785-1.971l-.3-.663a2.149,2.149,0,0,0-.633-.827,2.087,2.087,0,0,0-.389-.377,11.9,11.9,0,0,0-2.451-1.387l-3.339,3.339a9.694,9.694,0,0,1,3.053,1.368l.182.389a7.5,7.5,0,0,1,.517,1.259l4.592,16.975q4.406,16.348,8.886,32.672c.748,2.706.189,4.513-2.074,6.6-5.395,4.9-9.451,8.752-13.167,12.486-8.326,8.393-14.645,14.931-20.49,21.2-2.664,2.889-4.75,3.382-8.655,2.232-13.459-3.965-27.29-7.438-40.664-10.8l-5.674-1.429a6.114,6.114,0,0,1-4.951-4.507l-3.3,3.3A10.4,10.4,0,0,0,782,97.48Zm37.459-38.353a15.208,15.208,0,0,0,1.593-1.381c5.559-5.559,2.439-12.121,1.362-14.4a2.109,2.109,0,0,0-.6-.754l-.079-.1a5.2,5.2,0,0,0-2.907-1.514l-3.357,3.357c.091.049.164.061.261.116a6.686,6.686,0,0,0,1.989.675,2.988,2.988,0,0,1,.821.243c.049.049.091.1.14.14,2.153,4.707,1.63,7.578-1.812,10.181-1.3.973-7.031.693-7.876-.164a16.906,16.906,0,0,0-.918-2.743c-.122-.3-.195-.517-.292-.772l-3.351,3.351a8.153,8.153,0,0,1,.365,1.04c.213,1.022.973,2.427,3.388,3.333C817.105,62.375,822.731,62.363,825.152,60.544Zm267.417,250.631c-6.66-3.747-10.193.991-12.553,4.117l-.882,1.156c-2.451,3.1-1.156,6.3-.3,8.417a12.03,12.03,0,0,1,.7,2.013c.219,1.022.979,2.433,3.4,3.333,3.23,1.21,8.849,1.2,11.263-.626a15.178,15.178,0,0,0,1.594-1.381c5.559-5.559,2.439-12.121,1.362-14.4a2.112,2.112,0,0,0-.6-.754c-.031-.036-.055-.067-.085-.1a5.385,5.385,0,0,0-3.1-1.557A3.986,3.986,0,0,1,1092.569,311.175Zm.851,4.8c2.153,4.707,1.636,7.59-1.812,10.181-1.3.979-7.037.687-7.882-.17a16.868,16.868,0,0,0-.919-2.737c-.882-2.183-1.137-3.1-.31-4.142l.949-1.247a23.818,23.818,0,0,1,2.05-2.488c1.508-1.508,2.761-1.7,4.963-.468a6.805,6.805,0,0,0,1.995.681,3.057,3.057,0,0,1,.821.243A1.623,1.623,0,0,0,1093.42,315.974Z" transform="translate(-416.673 -128.016)" fill="#9f7a32" opacity="0.15"/>
      </g>
      <g id="Mask_Group_2263" data-name="Mask Group 2263" transform="translate(816)" opacity="0.2" clip-path="url(#clip-path-2)">
        <path id="Path_72548" data-name="Path 72548" d="M1059.8,527.5a15.2,15.2,0,0,1-1.594-1.381c-5.559-5.559-2.439-12.121-1.362-14.4a2.109,2.109,0,0,1,.6-.754l.079-.1a5.142,5.142,0,0,1,2.9-1.514l3.357,3.357c-.091.049-.164.061-.262.116a6.862,6.862,0,0,1-1.989.675,2.909,2.909,0,0,0-.821.243,1.525,1.525,0,0,1-.14.14c-2.153,4.707-1.63,7.578,1.812,10.181,1.3.973,7.031.693,7.876-.164a16.385,16.385,0,0,1,.924-2.743c.122-.3.195-.517.292-.772l3.351,3.345a7.911,7.911,0,0,0-.365,1.046c-.213,1.022-.973,2.427-3.388,3.333C1067.846,529.341,1062.214,529.329,1059.8,527.5ZM506.141,316.8l4.282-1.143c4.215-1.125,9.172-2.475,13.976-4.02,4.349-1.393,7.08.724,8.953,2.548,10.753,10.923,22.941,23.306,35.227,35.135,3.5,3.461,4.568,6.952,3.223,11.635-2.183,7.59-4.257,15.2-6.331,22.826l-3.108,11.355c-.462,1.666-.864,3.351-1.265,5.03a64.05,64.05,0,0,1-3.886,12.413,2.167,2.167,0,0,1-.6.766,2.082,2.082,0,0,1-.389.377c-2.554,1.916-5.486,2.457-8.071,2.931a30.807,30.807,0,0,0-3.339.742c-5.711,1.709-11.556,3.223-17.212,4.683-7.815,2.019-15.886,4.105-23.629,6.733-5.486,1.867-9.33-.9-11.805-3.375-.584-.584-1.089-1.149-1.52-1.636-5.091-5.687-10.589-11.2-15.935-16.5-2.4-2.4-4.8-4.786-7.183-7.213-1.235-1.3-2.615-2.469-3.971-3.649a42.238,42.238,0,0,1-7.511-7.864,6.456,6.456,0,0,1-1.32-5.936c1.454-6.27,3.175-12.553,4.841-18.629,1.636-5.96,3.327-12.121,4.744-18.222.413-1.758.937-3.491,1.46-5.224a54.64,54.64,0,0,0,1.745-6.751c.851-5.036,3.515-7.943,8.387-9.147C486,322.165,496.075,319.483,506.141,316.8ZM471.735,334.53a59,59,0,0,1-1.879,7.286c-.5,1.642-1,3.278-1.387,4.945-1.435,6.185-3.138,12.389-4.786,18.392-1.655,6.033-3.369,12.279-4.8,18.465-.267,1.162-.146,1.35.8,2.731a39.275,39.275,0,0,0,6.672,6.873c1.435,1.259,2.852,2.536,4.208,3.874,2.366,2.408,4.768,4.793,7.146,7.177,5.377,5.346,10.935,10.893,16.105,16.677,3.071,3.448,5.291,4.987,8.746,3.813,7.895-2.682,16.051-4.793,23.939-6.824,5.614-1.448,11.422-2.95,17.048-4.641a34.6,34.6,0,0,1,3.8-.845c2.262-.42,4.4-.815,6.124-2.037a61.384,61.384,0,0,0,3.436-11.233c.414-1.733.827-3.467,1.3-5.182l3.1-11.337c2.08-7.639,4.16-15.278,6.35-22.886.9-3.138.456-5.036-2.074-7.359-12.322-11.866-24.528-24.273-35.306-35.221-1.77-1.794-2.755-2.05-4.58-1.472-4.9,1.569-9.92,2.944-14.189,4.081l-4.276,1.137c-10.09,2.688-20.186,5.383-30.318,7.888C473.669,329.64,472.313,331.124,471.735,334.53ZM695.46,409.758l.973-.17c4-.748,9.688,2.366,11.069,6.058a10.8,10.8,0,0,1-14.1,14.086,7.916,7.916,0,0,1-2.737-1.843c-2.494-2.494-4-6.623-3.29-9.944.249-1.15.59-2.281.931-3.406l.426-1.435a2.147,2.147,0,0,1,.724-1.089,2.019,2.019,0,0,1,.5-.456A13.613,13.613,0,0,1,695.46,409.758Zm-3.06,6.027c-.31,1.016-.62,2.025-.839,3.059-.5,2.366,1.332,6.088,3.369,6.879a6.517,6.517,0,0,0,8.557-8.576,3.231,3.231,0,0,0-.773-1.1c-1.356-1.356-3.978-2.524-5.5-2.238l-1.046.182a11.808,11.808,0,0,0-3.522.955ZM1097.416,565.82c-13.38,3.357-27.223,6.836-40.658,10.789-5.224,1.539-8.9.706-12.511-2.9-.164-.164-.328-.334-.5-.511-5.808-6.234-12.1-12.742-20.4-21.1-3.7-3.655-7.663-7.487-13-12.334-3.448-3.108-4.5-6.672-3.327-10.917,2.974-10.747,5.875-21.506,8.782-32.271l4.7-17.352a12.39,12.39,0,0,1,.785-1.977l.3-.663a2.153,2.153,0,0,1,.633-.827,2.085,2.085,0,0,1,.389-.377,11.994,11.994,0,0,1,2.445-1.381l3.339,3.339a9.629,9.629,0,0,0-3.053,1.368l-.177.383a8.179,8.179,0,0,0-.523,1.265l-4.7,17.346q-4.361,16.157-8.782,32.3c-.748,2.706-.176,4.525,2.074,6.6,5.395,4.9,9.482,8.734,13.167,12.486,8.326,8.393,14.645,14.931,20.49,21.2,2.652,2.846,4.75,3.382,8.655,2.232,13.514-3.984,27.4-7.469,40.822-10.838l5.516-1.387a6.1,6.1,0,0,0,4.945-4.507l3.3,3.3a10.386,10.386,0,0,1-7.207,5.364ZM457.425,132.591l4.865-1.35c4.057-1.125,8.119-2.256,12.2-3.3,4.513-1.162,6.927.2,9.53,2.755,11.732,11.854,23.683,23.811,35.543,35.543,2.53,2.427,4,5.121,2.682,9.591-2.646,8.953-5,18.173-7.28,27.1q-1.277,5.018-2.579,10.029l-3.023,11.738a9.089,9.089,0,0,1-6.927,6.9c-5.395,1.338-10.759,2.8-16.117,4.251-5.03,1.368-10.059,2.737-15.113,4-2.585.651-5.158,1.368-7.724,2.086-3.321.931-6.641,1.855-10,2.64-4.555,1.064-7.146-.292-9.476-2.779-11.732-11.86-23.689-23.817-35.537-35.537l-.11-.109c-2.512-2.512-3.813-4.993-2.6-9.439q2.409-8.795,4.756-17.607,2.673-9.98,5.395-19.949c.42-1.533.815-3.071,1.216-4.61.87-3.375,1.77-6.86,2.932-10.254a2.1,2.1,0,0,1,.687-.979,2.179,2.179,0,0,1,.924-.675,232.683,232.683,0,0,1,24.705-7.183C450.059,134.525,453.757,133.6,457.425,132.591Zm-36.151,23.026c-.4,1.563-.8,3.12-1.235,4.677-1.831,6.635-3.607,13.277-5.389,19.918q-2.363,8.822-4.762,17.625c-.7,2.561-.152,3.57,1.587,5.364q8.9,8.8,17.839,17.741,8.913,8.913,17.741,17.838c1.77,1.648,2.773,2.244,5.45,1.618,3.3-.766,6.556-1.679,9.817-2.591,2.609-.73,5.218-1.46,7.84-2.117,5.024-1.265,10.029-2.621,15.029-3.984,5.388-1.466,10.783-2.931,16.2-4.276a4.839,4.839,0,0,0,3.807-3.819l3.023-11.744q1.3-5,2.573-10.011c2.287-8.959,4.653-18.222,7.323-27.247.736-2.506.3-3.528-1.581-5.322-11.872-11.738-23.841-23.707-35.573-35.573-1.831-1.806-2.81-2.293-5.407-1.618-4.05,1.04-8.089,2.165-12.121,3.284l-4.878,1.35c-3.7,1.016-7.426,1.952-11.148,2.889a236.4,236.4,0,0,0-23.543,6.781C422.873,149.42,422.064,152.564,421.273,155.617ZM755.057,597.039c1.575,1.636,2.433,4.361,2.348,7.469s-1.095,5.79-2.767,7.335c-3.558,3.3-10.023,2.634-13.836-.061a14,14,0,0,1-1.745-1.46c-4.342-4.342-2.414-9.415-.967-13.222a2.117,2.117,0,0,1,.669-.912,2.175,2.175,0,0,1,.8-.614C747.5,591.979,749.893,591.742,755.057,597.039Zm-11.775,11.24c2.329,1.648,6.526,2.189,8.442.414a8.085,8.085,0,0,0,.249-8.673c-.328-.341-.626-.645-.9-.924-2.524-2.524-3.333-2.5-9.2.134C740.193,603.76,739.931,605.931,743.282,608.279ZM461.98,176.271l.973-.17c4-.742,9.689,2.366,11.07,6.058a10.805,10.805,0,0,1-14.117,14.086,8.014,8.014,0,0,1-2.743-1.849c-2.494-2.494-4-6.623-3.29-9.944.249-1.162.6-2.3.943-3.436l.42-1.4a2.133,2.133,0,0,1,.718-1.083,2.021,2.021,0,0,1,.5-.456A13.94,13.94,0,0,1,461.98,176.271Zm-3.053,6c-.31,1.022-.626,2.05-.852,3.09-.5,2.366,1.32,6.094,3.369,6.879A6.517,6.517,0,0,0,470,183.661a3.229,3.229,0,0,0-.773-1.1c-1.356-1.356-3.971-2.524-5.5-2.238l-1.046.182a11.862,11.862,0,0,0-3.522.955Zm62.65,181.291a12.027,12.027,0,0,1-.42,14.81c-3.564,3.3-10.029,2.627-13.836-.061a13.126,13.126,0,0,1-1.745-1.466c-4.342-4.342-2.415-9.415-.961-13.222a2.135,2.135,0,0,1,.669-.918,2.2,2.2,0,0,1,.791-.614C514.011,358.5,516.438,358.14,521.577,363.559ZM509.8,374.8c2.329,1.648,6.526,2.189,8.442.414a8.064,8.064,0,0,0,.25-8.679c-.329-.341-.62-.645-.9-.924-2.524-2.524-3.339-2.5-9.2.134C506.707,370.273,506.445,372.439,509.8,374.8ZM739.651,550.275l4.251-1.131c4.44-1.186,9.208-2.494,13.976-4.026,4.349-1.393,7.043.633,8.953,2.548,10.753,10.923,22.941,23.312,35.227,35.135,3.473,3.436,4.568,6.952,3.223,11.635-2.183,7.59-4.258,15.2-6.331,22.826l-3.108,11.355c-.462,1.66-.858,3.339-1.259,5.018a63.368,63.368,0,0,1-3.892,12.425,2.132,2.132,0,0,1-.6.76,2.085,2.085,0,0,1-.389.377c-2.554,1.916-5.48,2.457-8.071,2.938a32.084,32.084,0,0,0-3.345.742c-5.711,1.709-11.556,3.217-17.212,4.683-7.815,2.019-15.886,4.1-23.622,6.733-5.486,1.867-9.324-.9-11.805-3.375-.584-.584-1.089-1.149-1.52-1.636-4.914-5.5-10.248-10.808-15.381-15.941-2.481-2.469-4.957-4.945-7.4-7.444-1.326-1.326-2.719-2.567-4.124-3.8a43.365,43.365,0,0,1-7.681-8.04,6.471,6.471,0,0,1-1.332-5.948c1.448-6.27,3.175-12.553,4.841-18.629,1.636-5.96,3.327-12.121,4.744-18.228.407-1.752.936-3.485,1.46-5.212a54.58,54.58,0,0,0,1.752-6.763c.852-5.03,3.516-7.937,8.387-9.147C719.5,555.645,729.574,552.957,739.651,550.275Zm-34.43,17.735a59.525,59.525,0,0,1-1.879,7.292c-.5,1.636-1,3.278-1.381,4.932-1.441,6.185-3.138,12.389-4.781,18.392-1.654,6.033-3.369,12.279-4.8,18.465-.268,1.168-.146,1.35.809,2.731a38.434,38.434,0,0,0,6.848,7.055c1.49,1.308,2.968,2.639,4.373,4.026,2.433,2.494,4.9,4.945,7.359,7.408,5.182,5.182,10.546,10.534,15.545,16.117,3.09,3.461,5.291,4.981,8.746,3.807,7.895-2.682,16.05-4.786,23.932-6.824,5.614-1.448,11.428-2.95,17.054-4.641a34.373,34.373,0,0,1,3.8-.845c2.256-.42,4.391-.815,6.118-2.037a61.507,61.507,0,0,0,3.436-11.245c.414-1.727.827-3.461,1.3-5.17l3.1-11.337c2.08-7.639,4.16-15.278,6.349-22.886.9-3.138.432-5.054-2.074-7.359-12.322-11.866-24.529-24.273-35.306-35.221-1.6-1.654-2.755-2.056-4.579-1.472-4.86,1.557-9.683,2.883-14.183,4.081l-4.251,1.131c-10.1,2.694-20.2,5.382-30.349,7.894C707.149,563.12,705.793,564.61,705.221,568.01ZM643.563,245.879a9.2,9.2,0,0,1-2.469-1.782c-2.609-2.609-4.136-6.812-3.333-10.047.091-.371.17-.754.249-1.137a11.438,11.438,0,0,1,1.715-4.628,2.281,2.281,0,0,1,.322-.359,3.925,3.925,0,0,1,3.515-1.727c6.514-1.952,11.379-.03,14.463,5.717,2.1,3.911.055,7.748-1.435,10.546l-.231.432C654.65,246.123,646.02,247.059,643.563,245.879Zm9.238-5.437c1.484-2.786,2.39-4.744,1.442-6.5a10.086,10.086,0,0,0-1.727-2.408c-1.892-1.891-4.33-2.25-7.724-1.229a5.819,5.819,0,0,1-1.289.195,2.118,2.118,0,0,1-.347.353,8.169,8.169,0,0,0-.949,2.913c-.091.444-.182.882-.292,1.32-.541,2.2,1.326,5.881,3.467,6.915,1.283.468,6.4-.432,7.177-1.119Zm2.305,48.8-4.02,1.07c-4.2,1.113-9.147,2.469-13.976,4.02-4.336,1.393-6.976-.681-8.953-2.548-12.432-12.632-23.665-24-35.226-35.135-.085-.085-.176-.17-.268-.262-3.388-3.382-4.27-6.806-2.95-11.379,3.181-11.057,6.179-22.163,9.178-33.268l.243-.906c.42-1.551.815-3.12,1.21-4.683a123.627,123.627,0,0,1,3.558-12.261,2.14,2.14,0,0,1,.675-.943,2.438,2.438,0,0,1,.3-.31c3.041-2.542,6.678-3.205,9.889-3.789a35.662,35.662,0,0,0,3.984-.876c4.537-1.356,9.2-2.524,13.7-3.649a195.852,195.852,0,0,0,20.928-6.064c9.98-3.722,15.618,1.375,20.539,6.9a315.339,315.339,0,0,0,24.644,24.674,67.312,67.312,0,0,1,6,6.392l1.569,1.812a4.765,4.765,0,0,1,.76,4.738l-.122.517c-1.46,6.623-3.284,13.24-5.048,19.645-1.551,5.638-3.163,11.471-4.5,17.248-.407,1.758-.931,3.491-1.46,5.218a53.585,53.585,0,0,0-1.745,6.751c-.857,5.036-3.522,7.943-8.393,9.147C675.414,283.831,665.257,286.537,655.106,289.244Zm34.661-17.8a59.591,59.591,0,0,1,1.873-7.28c.5-1.642,1-3.278,1.387-4.945,1.362-5.863,2.98-11.732,4.549-17.413,1.751-6.35,3.558-12.912,5-19.432l.146-.614a5.5,5.5,0,0,0,.182-.87l-1.6-1.849a65.779,65.779,0,0,0-5.614-6,315.608,315.608,0,0,1-24.979-25.015c-4.543-5.109-8.344-8.521-15.837-5.729a200.546,200.546,0,0,1-21.384,6.21c-4.458,1.113-9.068,2.269-13.514,3.594a41.392,41.392,0,0,1-4.452.985c-2.883.529-5.614,1.022-7.767,2.743-1.314,3.7-2.305,7.6-3.26,11.385-.4,1.587-.8,3.169-1.228,4.75l-.243.906c-3,11.13-6,22.26-9.19,33.335-.906,3.144-.359,4.993,2.068,7.359,5.6,5.395,11.118,10.838,16.731,16.452,6.015,6.015,12.134,12.219,18.574,18.763,1.563,1.709,2.761,2.062,4.586,1.472,4.92-1.581,9.932-2.95,14.189-4.081l4.02-1.07c10.181-2.713,20.356-5.425,30.58-7.955C687.839,276.338,689.19,274.848,689.767,271.448Zm-9.9,97.482c3.686-.924,7.377-1.849,11.039-2.852l4.726-1.308c4.111-1.143,8.217-2.281,12.34-3.345,4.458-1.149,6.933.158,9.439,2.67l.091.091c11.726,11.86,23.683,23.811,35.543,35.543,2.682,2.506,4,5.115,2.676,9.585-2.646,8.959-5,18.185-7.286,27.107q-1.277,5.018-2.573,10.017l-3.023,11.738a9.081,9.081,0,0,1-6.927,6.9c-5.395,1.338-10.759,2.8-16.117,4.257-5.03,1.368-10.054,2.731-15.108,4-2.585.651-5.158,1.368-7.724,2.086-3.321.931-6.642,1.855-10,2.64-4.561,1.064-6.879-.377-9.476-2.78-11.726-11.86-23.689-23.817-35.537-35.543l-.11-.109c-2.512-2.512-3.813-4.993-2.6-9.439,1.612-5.869,3.181-11.744,4.762-17.619,1.782-6.648,3.564-13.3,5.395-19.937.426-1.545.821-3.1,1.222-4.641.864-3.357,1.764-6.836,2.919-10.218a3.583,3.583,0,0,1,1.612-1.654A230.017,230.017,0,0,1,679.866,368.929Zm-25.1,20.137c-.407,1.575-.809,3.144-1.241,4.707-1.825,6.629-3.6,13.265-5.383,19.906q-2.363,8.822-4.762,17.644c-.705,2.56-.146,3.576,1.581,5.364q8.9,8.8,17.838,17.741,8.913,8.913,17.741,17.838c1.672,1.752,2.773,2.244,5.449,1.618,3.3-.766,6.556-1.679,9.816-2.591,2.609-.73,5.218-1.46,7.84-2.117,5.024-1.259,10.023-2.621,15.029-3.984,5.389-1.466,10.783-2.932,16.214-4.282A4.832,4.832,0,0,0,738.7,457.1l3.023-11.744q1.3-4.99,2.573-10c2.287-8.959,4.659-18.228,7.323-27.265.742-2.5.359-3.467-1.581-5.322-11.872-11.738-23.841-23.707-35.573-35.573-1.7-1.837-2.81-2.287-5.407-1.618-4.1,1.052-8.186,2.19-12.267,3.327l-4.732,1.308c-3.7,1.016-7.414,1.946-11.136,2.883a235.158,235.158,0,0,0-23.562,6.787C656.359,382.894,655.55,386.026,654.766,389.067ZM792.382,778.141c6.66-3.746,10.193.985,12.553,4.117l.882,1.156c2.451,3.1,1.156,6.3.3,8.418a12.012,12.012,0,0,0-.7,2.013c-.219,1.022-.979,2.433-3.4,3.333-3.23,1.21-8.849,1.2-11.264-.626a15.226,15.226,0,0,1-1.594-1.381c-5.559-5.559-2.439-12.121-1.362-14.4a2.11,2.11,0,0,1,.6-.754,1.237,1.237,0,0,1,.085-.1,5.349,5.349,0,0,1,3.1-1.557A4.3,4.3,0,0,0,792.382,778.141Zm-.852,4.8c-2.153,4.707-1.642,7.584,1.813,10.181,1.3.973,7.037.687,7.882-.17a16.84,16.84,0,0,1,.918-2.737c.882-2.177,1.138-3.1.31-4.142l-.949-1.247a23.655,23.655,0,0,0-2.05-2.481c-1.508-1.508-2.761-1.709-4.963-.468a6.685,6.685,0,0,1-1.989.675,3.053,3.053,0,0,0-.821.243C791.628,782.843,791.585,782.891,791.53,782.94Zm-453.2-656.127c-2.414,8.387-4.659,16.829-6.9,25.264l-2.555,9.567c-.371,1.381-.766,2.761-1.162,4.136-.894,3.1-1.818,6.307-2.4,9.47-.718,3.886-3.223,6.35-7.432,7.329-16.549,3.826-32.514,8.132-47.458,12.8-5.547,1.733-9.342-1.016-11.781-3.455-.572-.572-1.07-1.119-1.5-1.6-1.362-1.527-2.767-3.011-4.172-4.495l3.035-3.035c1.459,1.539,2.913,3.084,4.33,4.671,2.992,3.321,5.267,4.92,8.807,3.813,15.041-4.7,31.115-9.032,47.768-12.882,2.567-.6,3.777-1.733,4.185-3.929.62-3.363,1.575-6.672,2.494-9.871.389-1.356.778-2.706,1.143-4.063l2.555-9.561c2.25-8.466,4.507-16.932,6.921-25.35.8-2.773.5-3.923-1.46-6.009q-3.366-3.284-6.848-6.721l3.035-3.035q3.467,3.421,6.806,6.684C338.894,119.484,339.568,122.525,338.334,126.813Zm423.3,614.673a31.668,31.668,0,0,0,3.339-.742c5.833-1.746,11.805-3.3,17.583-4.793,7.688-1.995,15.637-4.051,23.282-6.6,4.543-1.514,8.569-.414,12.036,3.54,6.246,6.836,12.675,13.368,18.7,19.414,4.689,4.713,9.518,9.311,14.347,13.66,4.13,3.649,5.091,7.456,3.449,13.021-3.953,13.435-7.432,27.271-10.789,40.658l-1.387,5.516a10.5,10.5,0,0,1-8.314,8.308l-5.535,1.393c-13.374,3.357-27.211,6.83-40.64,10.783-5.224,1.539-8.9.705-12.5-2.889-.17-.17-.34-.341-.5-.523-5.863-6.282-12.34-12.985-20.4-21.1-3.649-3.594-7.633-7.456-13-12.334-3.418-3.114-4.5-6.672-3.333-10.917q4.516-16.33,8.892-32.691l4.58-16.938a12.561,12.561,0,0,1,.779-1.964l.3-.669a2.127,2.127,0,0,1,.633-.833,2.082,2.082,0,0,1,.389-.377C756.121,742.5,759.053,741.966,761.638,741.486Zm-5.516,6.647a8.1,8.1,0,0,0-.523,1.259l-4.58,16.926q-4.416,16.367-8.9,32.715c-.754,2.712-.134,4.574,2.074,6.6,5.425,4.926,9.476,8.837,13.161,12.486,8.095,8.144,14.6,14.883,20.5,21.2,2.646,2.883,4.744,3.376,8.655,2.232,13.508-3.978,27.387-7.463,40.8-10.832l5.528-1.393c3.029-.76,4.434-2.165,5.194-5.194l1.387-5.516c3.37-13.423,6.854-27.308,10.838-40.822,1.083-3.68.7-5.747-1.618-8.065-.182-.182-.383-.371-.584-.56-4.884-4.4-9.761-9.08-14.518-13.818-6.051-6.082-12.517-12.657-18.818-19.553-2.457-2.615-4.6-3.333-7.517-2.36-7.779,2.591-15.8,4.671-23.561,6.678-5.741,1.49-11.671,3.023-17.431,4.75a35.752,35.752,0,0,1-3.8.845c-2.263.42-4.4.815-6.118,2.031ZM528.164,508a30.8,30.8,0,0,0,3.339-.742c5.833-1.745,11.805-3.3,17.577-4.793,7.688-1.995,15.643-4.051,23.282-6.6,4.543-1.508,8.551-.4,12.042,3.546,6.246,6.83,12.675,13.368,18.7,19.414,4.689,4.714,9.524,9.318,14.347,13.66,4.124,3.625,5.091,7.45,3.448,13.021-3.953,13.429-7.426,27.265-10.789,40.646l-1.387,5.529a10.5,10.5,0,0,1-8.314,8.308l-5.541,1.393c-13.374,3.357-27.2,6.83-40.628,10.783-5.224,1.539-8.9.706-12.5-2.889-.17-.17-.334-.341-.5-.523-5.863-6.283-12.34-12.985-20.4-21.1-3.643-3.643-7.639-7.457-13-12.334-3.375-3.084-4.5-6.672-3.333-10.917,3.035-10.972,6-21.962,8.959-32.946l4.513-16.683a12.271,12.271,0,0,1,.778-1.958l.31-.669a2.124,2.124,0,0,1,.633-.833,2.086,2.086,0,0,1,.389-.377C522.641,509.021,525.573,508.48,528.164,508Zm-5.529,6.654a7.589,7.589,0,0,0-.517,1.247l-4.507,16.677q-4.452,16.494-8.971,32.97c-.748,2.713-.14,4.562,2.074,6.6,5.419,4.926,9.457,8.813,13.161,12.486,8.1,8.144,14.6,14.883,20.5,21.2,2.639,2.877,4.75,3.382,8.648,2.226,13.508-3.971,27.381-7.456,40.8-10.826l5.541-1.393a6.221,6.221,0,0,0,5.194-5.194l1.393-5.529c3.369-13.423,6.854-27.3,10.832-40.816,1.083-3.68.706-5.747-1.618-8.065-.182-.182-.383-.371-.584-.56-4.884-4.4-9.768-9.086-14.524-13.824-6.052-6.082-12.523-12.657-18.818-19.553-2.457-2.615-4.6-3.333-7.517-2.366-7.779,2.591-15.807,4.671-23.568,6.684-5.735,1.484-11.665,3.023-17.419,4.744a35.973,35.973,0,0,1-3.789.852c-2.263.42-4.4.809-6.119,2.031Zm354.414-35.287a9.077,9.077,0,0,1-2.463-1.782c-2.609-2.609-4.142-6.812-3.339-10.053.091-.371.17-.754.249-1.137a11.5,11.5,0,0,1,1.715-4.634,2.031,2.031,0,0,1,.322-.359,3.927,3.927,0,0,1,3.509-1.727c6.514-1.958,11.379-.03,14.469,5.723,2.1,3.911.055,7.754-1.441,10.552l-.225.42C888.13,479.609,879.506,480.545,877.049,479.365Zm9.232-5.437c1.484-2.786,2.39-4.744,1.448-6.508A10.391,10.391,0,0,0,886,465.012c-1.892-1.891-4.33-2.25-7.724-1.229a5.49,5.49,0,0,1-1.289.195,2.111,2.111,0,0,1-.347.353,8.206,8.206,0,0,0-.949,2.919c-.085.438-.182.882-.286,1.314-.541,2.2,1.326,5.887,3.467,6.921,1.283.474,6.4-.432,7.183-1.119ZM558.9,544.661c6.66-3.746,10.193.991,12.553,4.111l.882,1.156c2.451,3.1,1.156,6.307.3,8.424a12.7,12.7,0,0,0-.7,2.007c-.213,1.022-.979,2.433-3.4,3.333-3.23,1.21-8.849,1.2-11.264-.62a15.944,15.944,0,0,1-1.594-1.375c-5.559-5.559-2.439-12.121-1.362-14.4a2.184,2.184,0,0,1,.6-.76c.03-.037.055-.067.085-.1a5.364,5.364,0,0,1,3.1-1.557A4.843,4.843,0,0,0,558.9,544.661Zm-.852,4.793c-2.159,4.707-1.593,7.59,1.806,10.187,1.3.979,7.031.687,7.876-.17a17.037,17.037,0,0,1,.918-2.737c.882-2.177,1.138-3.1.31-4.148l-.949-1.247a23.654,23.654,0,0,0-2.05-2.481c-1.508-1.508-2.761-1.709-4.963-.468a7.052,7.052,0,0,1-1.989.675,3.056,3.056,0,0,0-.821.243C558.142,549.363,558.093,549.411,558.05,549.454ZM384.332,447.32c9.981-3.716,15.606,1.368,20.545,6.9A314.245,314.245,0,0,0,429.515,478.9a67.337,67.337,0,0,1,5.972,6.356l1.606,1.849a4.77,4.77,0,0,1,.754,4.726l-.128.523c-1.466,6.629-3.284,13.253-5.054,19.657-1.2,4.361-2.4,8.837-3.521,13.313l-3.54-3.54c.949-3.68,1.934-7.335,2.919-10.911,1.752-6.356,3.564-12.924,5-19.444l.146-.62a8.259,8.259,0,0,0,.189-.864l-1.636-1.885a65.856,65.856,0,0,0-5.589-5.966,318.735,318.735,0,0,1-24.979-25.015c-4.537-5.115-8.35-8.515-15.843-5.729a201.725,201.725,0,0,1-21.372,6.2c-.809.2-1.642.42-2.457.626l-3.527-3.528c1.654-.426,3.315-.851,4.945-1.259A199.023,199.023,0,0,0,384.332,447.32Zm726.2,265.526a9.075,9.075,0,0,1-2.463-1.782c-2.609-2.609-4.142-6.812-3.339-10.053.091-.377.17-.76.249-1.143a11.537,11.537,0,0,1,1.715-4.622,2.283,2.283,0,0,1,.322-.359,3.944,3.944,0,0,1,3.515-1.727c6.514-1.952,11.379-.03,14.469,5.717,2.1,3.911.055,7.748-1.435,10.546l-.231.432C1121.61,713.089,1112.986,714.025,1110.529,712.845Zm9.239-5.437c1.484-2.786,2.39-4.744,1.441-6.5a10.2,10.2,0,0,0-1.727-2.408c-1.891-1.891-4.33-2.25-7.73-1.229a5.836,5.836,0,0,1-1.283.189,2.106,2.106,0,0,1-.347.353,8.3,8.3,0,0,0-.949,2.907c-.091.444-.183.888-.292,1.32-.541,2.2,1.32,5.887,3.467,6.921,1.283.474,6.4-.432,7.177-1.119Zm-1.721,49.872c-4.2,1.113-9.147,2.469-13.976,4.02-4.337,1.393-7.1-.6-8.953-2.548-12.432-12.632-23.665-24-35.227-35.135-.085-.085-.177-.17-.262-.255-3.387-3.388-4.269-6.812-2.956-11.379,3.181-11.051,6.228-22.351,9.178-33.274l.243-.9c.42-1.557.815-3.12,1.21-4.683a124.2,124.2,0,0,1,3.558-12.267,2.085,2.085,0,0,1,.675-.937,2.428,2.428,0,0,1,.3-.31c3.041-2.542,6.678-3.205,9.889-3.789a37.537,37.537,0,0,0,3.99-.876c4.537-1.356,9.2-2.524,13.7-3.649a198.691,198.691,0,0,0,20.928-6.064c9.98-3.722,15.619,1.375,20.539,6.9a315.407,315.407,0,0,0,24.644,24.674,67.2,67.2,0,0,1,6,6.392l1.569,1.812a4.765,4.765,0,0,1,.76,4.738l-.122.517c-1.466,6.629-3.284,13.253-5.054,19.657-1.551,5.632-3.156,11.458-4.5,17.23-.408,1.758-.937,3.5-1.46,5.231a54.486,54.486,0,0,0-1.746,6.739c-.858,5.036-3.515,7.943-8.393,9.147-10.193,2.518-20.35,5.23-30.507,7.937Zm38.687-18.866a59.226,59.226,0,0,1,1.873-7.274c.5-1.642,1-3.284,1.387-4.951,1.362-5.857,2.98-11.726,4.543-17.4,1.751-6.356,3.564-12.924,5.005-19.444l.146-.614a6.7,6.7,0,0,0,.189-.87l-1.606-1.849a63.341,63.341,0,0,0-5.614-6A316.675,316.675,0,0,1,1137.679,655c-4.537-5.109-8.344-8.521-15.837-5.729a200.4,200.4,0,0,1-21.378,6.2c-4.458,1.119-9.068,2.269-13.514,3.6a41.386,41.386,0,0,1-4.452.985c-2.883.529-5.614,1.022-7.767,2.743-1.314,3.7-2.3,7.6-3.26,11.385-.4,1.587-.8,3.169-1.229,4.75l-.243.894c-2.95,10.941-6,22.26-9.2,33.341-.906,3.144-.359,4.993,2.068,7.365,5.6,5.395,11.118,10.838,16.731,16.452,6.015,6.015,12.134,12.219,18.574,18.763,1.751,1.739,2.761,2.056,4.586,1.472,4.92-1.581,9.932-2.95,14.183-4.081l4.02-1.07c10.181-2.713,20.356-5.425,30.58-7.955C1154.806,743.3,1156.156,741.814,1156.733,738.414ZM974.281,845.268a14,14,0,0,1-1.746-1.46c-4.343-4.342-2.409-9.415-.967-13.222a2.136,2.136,0,0,1,.669-.918,2.176,2.176,0,0,1,.8-.614c7.949-3.588,10.358-3.813,15.509,1.472,1.575,1.636,2.427,4.355,2.342,7.469a10.386,10.386,0,0,1-2.767,7.341C984.559,848.625,978.094,847.956,974.281,845.268Zm12.316-7.4a6.605,6.605,0,0,0-1.143-4.361c-.329-.341-.626-.645-.9-.924-2.524-2.524-3.339-2.5-9.2.128-1.684,4.531-1.934,6.708,1.411,9.05,2.329,1.648,6.526,2.19,8.448.414A6.584,6.584,0,0,0,986.6,837.866Zm25.161,46.5c-5.711,1.709-11.555,3.223-17.212,4.683-7.815,2.019-15.892,4.105-23.628,6.733-5.486,1.867-9.324-.9-11.805-3.375-.584-.584-1.089-1.149-1.52-1.636-4.908-5.5-10.23-10.8-15.381-15.941-2.469-2.475-4.951-4.945-7.4-7.444-1.314-1.314-2.719-2.567-4.13-3.8a43.6,43.6,0,0,1-7.688-8.04,6.447,6.447,0,0,1-1.326-5.942c1.454-6.277,3.175-12.559,4.841-18.647,1.636-5.954,3.327-12.109,4.738-18.209.413-1.758.937-3.491,1.46-5.224a54.661,54.661,0,0,0,1.746-6.751c.851-5.036,3.515-7.943,8.393-9.147,10.12-2.5,20.2-5.188,30.27-7.87l4.251-1.131c4.215-1.125,9.172-2.481,13.976-4.02,4.342-1.4,7.073.669,8.953,2.548,10.753,10.923,22.941,23.306,35.227,35.135,3.54,3.448,4.567,6.952,3.217,11.635-2.189,7.609-4.27,15.241-6.35,22.88l-3.1,11.3c-.462,1.66-.858,3.339-1.259,5.024a64.027,64.027,0,0,1-3.886,12.425,2.157,2.157,0,0,1-.6.766,2.082,2.082,0,0,1-.389.377c-2.554,1.916-5.486,2.457-8.071,2.932A31.32,31.32,0,0,0,1011.758,884.369Zm12.121-18.234c.414-1.733.827-3.461,1.3-5.17l3.09-11.282c2.086-7.663,4.172-15.314,6.368-22.941.9-3.138.462-5.024-2.074-7.359-12.316-11.866-24.528-24.273-35.306-35.221-1.636-1.752-2.755-2.062-4.58-1.472-4.9,1.569-9.92,2.944-14.189,4.081l-4.251,1.131c-10.1,2.694-20.2,5.383-30.349,7.894-3.26.809-4.61,2.3-5.188,5.7a58.933,58.933,0,0,1-1.879,7.286c-.5,1.642-1,3.278-1.387,4.945C934,819.906,932.3,826.1,930.655,832.1c-1.655,6.039-3.37,12.286-4.8,18.477-.268,1.162-.146,1.35.809,2.731a39.026,39.026,0,0,0,6.848,7.055c1.49,1.308,2.962,2.64,4.373,4.026,2.433,2.487,4.908,4.945,7.359,7.408,5.176,5.176,10.552,10.534,15.545,16.117,3.077,3.448,5.291,4.987,8.746,3.813,7.894-2.682,16.05-4.786,23.939-6.824,5.613-1.448,11.422-2.95,17.048-4.641a36.07,36.07,0,0,1,3.795-.845c2.263-.42,4.4-.815,6.125-2.038A61.347,61.347,0,0,0,1023.879,866.135ZM851.3,914.286c9.98-3.722,15.606,1.368,20.545,6.9a314.3,314.3,0,0,0,24.638,24.68,66.486,66.486,0,0,1,5.967,6.356l1.612,1.855a4.755,4.755,0,0,1,.754,4.726l-.128.517c-1.466,6.629-3.284,13.253-5.054,19.657-1.2,4.361-2.4,8.837-3.521,13.313l-3.54-3.54c.949-3.68,1.934-7.335,2.919-10.911,1.752-6.356,3.564-12.924,5-19.444l.146-.62a7.964,7.964,0,0,0,.189-.87l-1.636-1.885a65.812,65.812,0,0,0-5.583-5.96,315.614,315.614,0,0,1-24.979-25.021c-4.537-5.109-8.35-8.521-15.843-5.729a200.526,200.526,0,0,1-21.366,6.2c-.815.207-1.642.42-2.463.626l-3.527-3.528c1.66-.426,3.321-.852,4.951-1.259A199.613,199.613,0,0,0,851.3,914.286ZM617.818,680.8c9.98-3.716,15.618,1.362,20.545,6.9A315.349,315.349,0,0,0,663,712.377a66.468,66.468,0,0,1,5.966,6.356l1.612,1.855a4.768,4.768,0,0,1,.754,4.726l-.122.517c-1.466,6.629-3.29,13.253-5.054,19.657-1.2,4.361-2.4,8.837-3.515,13.313l-3.54-3.54c.949-3.68,1.934-7.341,2.92-10.917,1.752-6.35,3.558-12.918,5-19.438l.146-.62a6.87,6.87,0,0,0,.189-.864l-1.636-1.885a64.1,64.1,0,0,0-5.583-5.96,316.681,316.681,0,0,1-24.978-25.021c-4.531-5.109-8.35-8.515-15.838-5.723a200.123,200.123,0,0,1-21.366,6.2c-.809.2-1.642.42-2.463.626l-3.527-3.528c1.66-.426,3.321-.851,4.951-1.259A200.571,200.571,0,0,0,617.818,680.8Zm-96.4-709.222.973-.255,3.516,3.515-3.284.858-5.65,20.819c-5.717,21.019-11.623,42.744-17.224,64.171-.456,1.739-.973,3.461-1.49,5.188a64.766,64.766,0,0,0-2.676,11.252,7.19,7.19,0,0,1-.62,2.2c24.778,25.648,50.334,51.2,75.982,75.982a7.339,7.339,0,0,1,2.2-.614,65.413,65.413,0,0,0,11.245-2.676c1.727-.523,3.448-1.034,5.188-1.5,21.421-5.6,43.151-11.507,64.171-17.218l20.818-5.65.858-3.284,3.515,3.515-.255.973L754.9,205.069l.973-.255,3.515,3.515-3.284.858-5.748,21.183c-5.68,20.9-11.555,42.507-17.121,63.8-.462,1.746-.973,3.473-1.5,5.206a64.686,64.686,0,0,0-2.67,11.233,7.194,7.194,0,0,1-.62,2.2c24.778,25.648,50.334,51.2,75.982,75.982a7.341,7.341,0,0,1,2.2-.614,64.931,64.931,0,0,0,11.239-2.676c1.727-.517,3.454-1.04,5.2-1.5,21.3-5.571,42.9-11.44,63.8-17.121l21.19-5.754.858-3.284,3.515,3.515-.255.973,76.219,76.219.973-.255,3.515,3.515-3.284.858-5.729,21.117c-5.687,20.922-11.568,42.549-17.139,63.867-.456,1.74-.979,3.473-1.5,5.2a64.918,64.918,0,0,0-2.67,11.239,7.182,7.182,0,0,1-.62,2.2c24.784,25.648,50.334,51.2,75.982,75.982a7.546,7.546,0,0,1,2.2-.62,64.73,64.73,0,0,0,11.233-2.676c1.733-.523,3.461-1.04,5.206-1.5,21.421-5.6,43.151-11.507,64.171-17.218l20.818-5.65.858-3.284,3.516,3.515-.256.973,76.2,76.213.973-.255,3.516,3.515-3.284.857-5.65,20.819c-2.6,9.549-5.237,19.268-7.864,29.011l-6.063,6.064c3.272-12.176,6.556-24.31,9.792-36.206l5.62-20.709-76.359-76.359-20.709,5.62c-21.025,5.717-42.768,11.629-64.213,17.236-1.691.444-3.375.949-5.054,1.454a68.643,68.643,0,0,1-11.975,2.828c-1.046.122-1.843.566-2.305,2.329-7.833,29.771-16.245,61.227-26.462,98.99-.614,2.275-.164,3.71,1.776,5.65l.03.03c23.647,23.543,47.184,47.2,70.867,70.7l.055.055a12.494,12.494,0,0,1,2.293,3.156l1.77-.5c1.837-.517,3.667-1.04,5.51-1.533l16.391-4.391c11.179-3,22.369-5.948,33.548-8.935l-6.052,6.052c-8.794,2.354-17.6,4.671-26.39,7.025l-16.391,4.391c-1.825.487-3.637,1-5.449,1.514l-1.885.529a13.379,13.379,0,0,1-.468,3.844c-4.568,16.744-8.624,31.7-12.365,45.633l-6.07,6.07c4.263-15.941,8.928-33.177,14.293-52.834.845-3.1.42-4.811-1.77-6.994l-.049-.049c-23.683-23.507-47.226-47.159-70.867-70.7l-.043-.043a13.219,13.219,0,0,1-2.177-2.749l-18.507,4.969q-41.92,11.258-83.876,22.4a2.887,2.887,0,0,0-2.427,2.56c-4.628,18.976-9.859,38.122-14.913,56.641q-3.494,12.781-6.939,25.587c-1.277,4.781-2.524,9.567-3.753,14.3l-1.362,5.224L952.854,941.1l14.135-3.8q11.139-2.992,22.266-6.039c6.775-1.843,13.7-3.7,20.594-5.565l-6.088,6.088c-4.458,1.21-8.971,2.415-13.374,3.613q-11.139,3.038-22.284,6.045l-14.08,3.789-5.7,21.019c-2.573,9.464-5.188,19.1-7.8,28.768l-6.07,6.07c3.248-12.1,6.508-24.145,9.725-35.963l5.687-20.952-76.353-76.353-20.794,5.644c-19.474,5.3-39.551,10.741-59.445,15.971l-3.509-3.509c20.66-5.419,41.576-11.094,61.829-16.6l20.91-5.674,1.332-5.1c1.235-4.744,2.488-9.543,3.765-14.329q3.421-12.818,6.939-25.611c5.048-18.489,10.266-37.6,14.883-56.526a9.773,9.773,0,0,1,.663-1.885c-25.076-25.757-50.839-51.526-76.6-76.59l-.03-.024c-.018-.024-.031-.049-.049-.073a16.311,16.311,0,0,1-5.236,2.22c-20.5,5.078-41.248,10.729-61.3,16.19q-11.121,3.029-22.254,6.039l-14.08,3.8-5.729,21.1c-5.48,20.174-11.136,41-16.537,61.592l-3.509-3.509c5.212-19.821,10.637-39.818,15.911-59.214l5.7-21.031-76.359-76.359-21.165,5.741c-19.353,5.261-39.308,10.668-59.08,15.874l-3.509-3.509c20.539-5.383,41.327-11.027,61.458-16.5L639,630.155l1.217-4.671c1.271-4.89,2.56-9.828,3.88-14.761q3.43-12.863,6.964-25.7c5.042-18.453,10.248-37.538,14.858-56.428a9.63,9.63,0,0,1,.663-1.885c-25.082-25.763-50.839-51.526-76.6-76.59l-.018-.018c-.024-.018-.03-.049-.049-.073a16.311,16.311,0,0,1-5.237,2.22c-20.49,5.078-41.223,10.722-61.263,16.184q-11.139,3.038-22.284,6.045l-14.08,3.789-5.723,21.1c-5.486,20.174-11.142,41-16.537,61.6l-3.509-3.509c5.212-19.821,10.637-39.819,15.9-59.214l5.711-21.031-76.359-76.359-20.794,5.644c-19.475,5.291-39.551,10.735-59.445,15.971l-3.509-3.509c20.66-5.419,41.576-11.093,61.829-16.6l20.909-5.674,1.3-4.975c1.253-4.787,2.512-9.628,3.8-14.463q3.431-12.845,6.958-25.678c5.042-18.465,10.254-37.562,14.864-56.459a9.765,9.765,0,0,1,.663-1.885c-25.076-25.757-50.839-51.526-76.6-76.59l-.018-.018c-.024-.018-.031-.049-.049-.073a16.289,16.289,0,0,1-5.243,2.22c-20.49,5.078-41.224,10.723-61.264,16.184q-11.139,3.038-22.284,6.045l-14.08,3.789-5.723,21.092c-5.486,20.174-11.142,41-16.537,61.6l-3.509-3.509c5.212-19.821,10.637-39.819,15.9-59.214l5.711-21.025L222.26,216.558l3.035-3.035,27.125,27.126,14.135-3.8q11.139-2.992,22.266-6.039c20.07-5.468,40.822-11.118,61.361-16.2,5.395-1.338,6.593-3.807,7.876-8.74,7.061-27.083,14.712-55.644,24.808-92.616.845-3.1.42-4.811-1.77-6.994l-.048-.049Q368.9,94.147,356.793,82.031L359.828,79q12.116,12.1,24.243,24.164l.055.055a12.507,12.507,0,0,1,2.293,3.157l1.612-.456c1.885-.529,3.771-1.07,5.668-1.575l16.391-4.391Q449.528,89.375,489,78.936c1.764-.462,2.208-1.259,2.329-2.305a68.845,68.845,0,0,1,2.828-11.994c.5-1.679,1.01-3.351,1.448-5.042,5.607-21.439,11.519-43.188,17.236-64.213l5.62-20.709L491.3-52.489l3.035-3.035ZM724.8,310.111a68.657,68.657,0,0,1,2.828-11.975c.5-1.679,1.01-3.363,1.454-5.054,5.577-21.317,11.452-42.939,17.139-63.842l5.717-21.074-76.359-76.359-20.709,5.62c-21.025,5.717-42.768,11.629-64.207,17.23-1.691.444-3.363.949-5.042,1.454a68.9,68.9,0,0,1-11.987,2.828c-1.046.122-1.837.566-2.305,2.329-7.834,29.771-16.245,61.227-26.463,98.99-.614,2.275-.164,3.71,1.776,5.656l.03.03c23.647,23.537,47.184,47.19,70.867,70.7l.055.055a12.5,12.5,0,0,1,2.293,3.157l1.77-.5c1.837-.517,3.667-1.04,5.51-1.533l17.437-4.671q38.918-10.427,77.867-20.733C724.234,311.954,724.678,311.157,724.8,310.111ZM958.28,543.6a68.687,68.687,0,0,1,2.828-11.981c.5-1.685,1.01-3.357,1.447-5.048,5.583-21.335,11.464-42.981,17.157-63.909l5.7-21.013-76.353-76.353-21.074,5.717c-20.9,5.681-42.525,11.562-63.842,17.139-1.691.444-3.369.943-5.048,1.454a69.26,69.26,0,0,1-11.982,2.828c-1.046.122-1.837.566-2.3,2.329-7.815,29.7-16.47,62.078-26.463,98.984-.62,2.287-.158,3.771,1.812,5.687,23.647,23.543,47.184,47.2,70.867,70.7a11.189,11.189,0,0,1,2.372,3.205l1.587-.45c1.885-.529,3.771-1.07,5.668-1.575l16.519-4.428q39.375-10.555,78.786-20.977C957.714,545.434,958.164,544.643,958.28,543.6ZM826.453,680.514c.006.006.006.006.012.006,25.757,25.07,51.514,50.833,76.6,76.584a8.492,8.492,0,0,1,1.849-.73q41.965-11.075,83.858-22.394l18.532-4.975a10.524,10.524,0,0,1,.389-2.9c10.218-37.751,18.629-69.2,26.457-98.959a9.442,9.442,0,0,1,.718-1.861q-19.231-18.583-38.31-37.653-19.03-19.03-37.647-38.31a9.066,9.066,0,0,1-1.861.718q-39.42,10.355-78.767,20.977l-16.519,4.428q-2.81.757-5.607,1.563l-1.721.487a13.746,13.746,0,0,1-.468,3.85c-9.908,36.279-17.784,65.691-24.8,92.567A20.713,20.713,0,0,1,826.453,680.514ZM670.092,529.608c-4.622,18.945-9.841,38.061-14.889,56.544q-3.5,12.836-6.964,25.684c-1.314,4.926-2.6,9.859-3.874,14.737l-1.247,4.8,76.249,76.25,14.128-3.807q11.121-2.992,22.236-6.033c20.083-5.468,40.846-11.124,61.4-16.215,5.395-1.338,6.593-3.807,7.876-8.74,7.013-26.895,14.895-56.325,24.808-92.616.846-3.1.42-4.811-1.77-6.994l-.049-.049c-23.683-23.507-47.227-47.159-70.873-70.7a10.92,10.92,0,0,1-2.268-2.779l-19.237,5.164Q714.09,516,672.519,527.042A2.894,2.894,0,0,0,670.092,529.608Zm-77.125-82.581c.006.006.012.006.012.012,25.757,25.064,51.514,50.827,76.6,76.584a8.5,8.5,0,0,1,1.849-.73Q713,511.928,754.5,500.713l19.3-5.182a10.984,10.984,0,0,1,.389-2.907c9.987-36.9,18.641-69.267,26.456-98.96a9.43,9.43,0,0,1,.718-1.861q-19.231-18.583-38.31-37.647-19.031-19.04-37.653-38.31a9.064,9.064,0,0,1-1.861.718Q684.582,326.8,645.7,337.291l-17.437,4.671c-1.825.487-3.637,1-5.449,1.514l-1.885.529a13.373,13.373,0,0,1-.468,3.844c-10.09,36.954-17.735,65.509-24.8,92.567A20.017,20.017,0,0,1,592.967,447.028ZM436.612,296.122c-4.622,18.957-9.847,38.079-14.895,56.574-2.329,8.551-4.671,17.1-6.952,25.654-1.289,4.823-2.548,9.652-3.789,14.432l-1.332,5.1,76.243,76.249,14.135-3.8q11.139-2.992,22.266-6.039c20.07-5.462,40.822-11.118,61.361-16.2,5.395-1.338,6.593-3.807,7.876-8.74,7.061-27.083,14.712-55.644,24.808-92.616.845-3.1.42-4.811-1.77-6.994l-.049-.049c-23.683-23.5-47.22-47.16-70.867-70.7l-.042-.043a13.223,13.223,0,0,1-2.177-2.749l-19.14,5.139q-41.61,11.176-83.25,22.23A2.863,2.863,0,0,0,436.612,296.122ZM411.184,104.091l-16.391,4.391q-2.81.757-5.608,1.563l-1.721.487a13.587,13.587,0,0,1-.468,3.844c-10.09,36.954-17.735,65.509-24.8,92.567a20.517,20.517,0,0,1-2.706,6.6c.006.006.012.006.012.012,25.757,25.064,51.514,50.821,76.59,76.584a8.491,8.491,0,0,1,1.849-.73q41.646-10.984,83.231-22.223l19.158-5.145a10.557,10.557,0,0,1,.389-2.907c10.218-37.751,18.623-69.2,26.456-98.959a9.422,9.422,0,0,1,.718-1.861q-19.231-18.583-38.31-37.647-19.03-19.04-37.653-38.31a9.062,9.062,0,0,1-1.861.718Q450.6,93.46,411.184,104.091ZM913.328,602.422c3.692-.931,7.39-1.855,11.063-2.865l4.7-1.3c4.111-1.143,8.235-2.287,12.365-3.351,4.513-1.162,7.012.292,9.53,2.755,11.726,11.854,23.683,23.811,35.543,35.543,2.6,2.421,4,5.115,2.682,9.591-2.646,8.953-5,18.173-7.28,27.1q-1.277,5.018-2.579,10.029l-3.023,11.738a9.089,9.089,0,0,1-6.927,6.9c-5.407,1.338-10.783,2.8-16.154,4.263-5.018,1.362-10.035,2.731-15.077,3.99-2.585.651-5.157,1.368-7.724,2.086-3.321.931-6.642,1.855-10,2.64-4.555,1.064-6.921-.42-9.476-2.779-11.726-11.854-23.683-23.817-35.537-35.537l-.109-.11c-2.512-2.512-3.813-4.993-2.6-9.439q2.409-8.8,4.762-17.619c1.782-6.648,3.564-13.3,5.395-19.937.426-1.545.821-3.1,1.222-4.641.864-3.357,1.764-6.836,2.919-10.218a3.583,3.583,0,0,1,1.612-1.654A229.672,229.672,0,0,1,913.328,602.422Zm-25.082,20.125c-.408,1.575-.809,3.144-1.241,4.707-1.825,6.629-3.6,13.265-5.383,19.906q-2.363,8.822-4.762,17.644c-.7,2.567-.134,3.582,1.587,5.364q8.9,8.8,17.838,17.735,8.913,8.913,17.741,17.838c1.685,1.764,2.773,2.244,5.449,1.618,3.3-.766,6.556-1.679,9.816-2.591,2.609-.73,5.218-1.46,7.84-2.117,5.018-1.259,10-2.615,15-3.972,5.407-1.472,10.808-2.938,16.245-4.282a4.839,4.839,0,0,0,3.807-3.82l3.023-11.744q1.3-5,2.573-10.011c2.287-8.959,4.653-18.221,7.317-27.247.742-2.506.334-3.5-1.581-5.328-11.872-11.738-23.841-23.707-35.573-35.573-1.758-1.733-2.81-2.293-5.407-1.624-4.111,1.058-8.2,2.2-12.292,3.333l-4.708,1.3c-3.7,1.022-7.432,1.952-11.16,2.889a234.71,234.71,0,0,0-23.537,6.781C889.839,616.374,889.03,619.506,888.246,622.547ZM826.319,294.024a15.214,15.214,0,0,1-1.594-1.381c-5.559-5.559-2.439-12.121-1.362-14.4a2.186,2.186,0,0,1,.6-.76l.079-.1a5.161,5.161,0,0,1,2.9-1.514l3.357,3.357c-.091.049-.164.061-.262.116a7.054,7.054,0,0,1-1.989.675,3.055,3.055,0,0,0-.821.243c-.049.049-.091.1-.14.14-2.153,4.707-1.593,7.59,1.813,10.181,1.3.973,7.031.687,7.876-.17a16.311,16.311,0,0,1,.924-2.737c.122-.3.195-.523.292-.772l3.345,3.345a8.155,8.155,0,0,0-.365,1.04c-.213,1.022-.973,2.427-3.388,3.333C834.359,295.855,828.734,295.849,826.319,294.024Zm62.066,228.754-3.82,1.022c-4.2,1.113-9.147,2.469-13.976,4.02-4.336,1.393-7.1-.59-8.953-2.548-12.438-12.638-23.665-24-35.227-35.135-.085-.085-.176-.17-.262-.255-3.388-3.388-4.269-6.812-2.956-11.379,3.151-10.935,6.112-21.919,9.081-32.915l.34-1.259c.42-1.563.821-3.132,1.216-4.7a123.658,123.658,0,0,1,3.552-12.237,2.12,2.12,0,0,1,.675-.937,2.445,2.445,0,0,1,.3-.31c3.041-2.542,6.678-3.205,9.889-3.789a37.077,37.077,0,0,0,3.984-.87c4.537-1.356,9.2-2.518,13.709-3.649a199.023,199.023,0,0,0,20.922-6.064c9.981-3.716,15.625,1.375,20.539,6.9a316.479,316.479,0,0,0,24.644,24.681,67.26,67.26,0,0,1,6,6.392l1.569,1.813a4.752,4.752,0,0,1,.754,4.732l-.122.511c-1.466,6.629-3.29,13.253-5.054,19.663-1.551,5.632-3.156,11.458-4.5,17.23-.408,1.758-.93,3.485-1.46,5.218a55.542,55.542,0,0,0-1.752,6.751c-.858,5.036-3.521,7.943-8.387,9.147C908.833,517.329,898.433,520.1,888.386,522.778Zm34.868-17.851a58.638,58.638,0,0,1,1.879-7.286c.493-1.636,1-3.278,1.381-4.939,1.362-5.857,2.98-11.726,4.543-17.407,1.752-6.35,3.558-12.918,5-19.444l.146-.614a6.916,6.916,0,0,0,.189-.87l-1.606-1.849a62.63,62.63,0,0,0-5.614-6,314.617,314.617,0,0,1-24.979-25.015c-4.549-5.115-8.351-8.515-15.837-5.729a201.811,201.811,0,0,1-21.378,6.2c-4.464,1.119-9.074,2.275-13.52,3.6a43.154,43.154,0,0,1-4.446.985c-2.889.529-5.62,1.028-7.773,2.749-1.314,3.692-2.3,7.59-3.26,11.361-.4,1.593-.8,3.187-1.235,4.768l-.341,1.259c-2.968,11.014-5.942,22.023-9.1,32.982-.906,3.144-.383,4.969,2.074,7.365,5.6,5.395,11.118,10.838,16.725,16.452,6.015,6.015,12.14,12.219,18.574,18.769,1.782,1.77,2.761,2.056,4.586,1.472,4.92-1.581,9.932-2.95,14.183-4.081l3.82-1.016c10.072-2.682,20.484-5.462,30.781-8.01C921.313,509.824,922.676,508.328,923.253,504.928ZM863.924,332.34c-13.38,3.357-27.217,6.83-40.646,10.789-5.224,1.539-8.9.706-12.5-2.9-.164-.164-.328-.335-.5-.517-5.808-6.234-12.1-12.742-20.4-21.1-3.667-3.643-7.663-7.481-13-12.334-3.485-3.187-4.519-6.617-3.327-10.917q4.488-16.239,8.843-32.514l4.628-17.109a11.566,11.566,0,0,1,.785-1.971l.3-.663a2.149,2.149,0,0,1,.632-.827,2.089,2.089,0,0,1,.389-.377,12.317,12.317,0,0,1,2.445-1.387l3.339,3.339a9.631,9.631,0,0,0-3.053,1.368l-.176.389a8.07,8.07,0,0,0-.523,1.259l-4.622,17.1c-2.932,10.856-5.857,21.706-8.855,32.544-.748,2.707-.134,4.543,2.074,6.6,5.388,4.9,9.439,8.74,13.167,12.486,8.326,8.393,14.645,14.931,20.49,21.2,2.664,2.859,4.75,3.382,8.655,2.232,13.514-3.978,27.393-7.463,40.816-10.832l5.522-1.387a6.1,6.1,0,0,0,4.945-4.507l3.3,3.3a10.386,10.386,0,0,1-7.207,5.364Zm65.022,310.9.973-.17c3.99-.742,9.688,2.366,11.069,6.058a10.8,10.8,0,0,1-14.116,14.086,8.011,8.011,0,0,1-2.743-1.849c-2.494-2.494-4-6.623-3.29-9.95.25-1.156.59-2.287.937-3.424l.42-1.417a2.135,2.135,0,0,1,.718-1.083,2.022,2.022,0,0,1,.5-.456A13.953,13.953,0,0,1,928.946,643.238Zm-3.059,6c-.31,1.022-.62,2.044-.851,3.077-.5,2.317,1.35,6.131,3.369,6.879a6.517,6.517,0,0,0,8.557-8.576,3.234,3.234,0,0,0-.772-1.1c-1.356-1.356-3.978-2.524-5.5-2.238l-1.052.182a11.467,11.467,0,0,0-3.515.955ZM202,251.767l1.612,1.855a4.774,4.774,0,0,1,.754,4.72l-.128.529c-1.46,6.623-3.284,13.24-5.048,19.639-1.2,4.367-2.4,8.843-3.522,13.326l-3.54-3.54c.949-3.686,1.934-7.347,2.925-10.929,1.745-6.343,3.558-12.906,5-19.426l.146-.626a7.153,7.153,0,0,0,.189-.864l-1.636-1.885a65.015,65.015,0,0,0-5.583-5.96c-.523-.468-1.022-.949-1.539-1.423l3.035-3.035c.462.42.906.851,1.374,1.265A67.9,67.9,0,0,1,202,251.767Zm92.677,22.753a30.8,30.8,0,0,0,3.339-.736c5.833-1.746,11.805-3.3,17.583-4.793,7.688-1.995,15.637-4.051,23.282-6.6,4.543-1.514,8.563-.359,12.042,3.546,6.246,6.83,12.675,13.368,18.7,19.42,4.738,4.689,9.524,9.318,14.347,13.66,4.142,3.661,5.091,7.456,3.454,13.021-3.947,13.411-7.42,27.223-10.771,40.585l-1.4,5.589a10.5,10.5,0,0,1-8.314,8.308l-5.693,1.429c-13.326,3.351-27.107,6.806-40.475,10.747-5.224,1.539-8.9.706-12.492-2.889-.171-.17-.341-.347-.5-.523-5.863-6.283-12.34-12.985-20.4-21.1-3.643-3.643-7.639-7.456-13-12.334-3.412-3.1-4.5-6.672-3.333-10.917,3.01-10.887,5.948-21.786,8.892-32.69l4.58-16.938a11.718,11.718,0,0,1,.778-1.958l.31-.669a2.121,2.121,0,0,1,.632-.833,2.307,2.307,0,0,1,.389-.377C289.155,275.541,292.093,275,294.678,274.519Zm-5.529,6.654a7.6,7.6,0,0,0-.517,1.247l-4.58,16.926q-4.416,16.367-8.9,32.715c-.748,2.713-.146,4.555,2.074,6.6,5.425,4.926,9.458,8.819,13.162,12.486,8.095,8.144,14.6,14.883,20.5,21.2,2.67,2.852,4.744,3.382,8.649,2.226,13.453-3.959,27.277-7.432,40.646-10.789l5.692-1.429c3.023-.76,4.434-2.165,5.194-5.194l1.4-5.589c3.363-13.4,6.842-27.259,10.814-40.749,1.083-3.68.7-5.747-1.618-8.065-.183-.182-.383-.371-.584-.56-4.89-4.4-9.8-9.117-14.518-13.818-6.051-6.082-12.523-12.657-18.818-19.553-2.421-2.609-4.6-3.339-7.517-2.366-7.779,2.591-15.8,4.671-23.562,6.678-5.741,1.49-11.671,3.023-17.431,4.75a35.977,35.977,0,0,1-3.789.851c-2.263.42-4.4.815-6.119,2.031ZM471.072-17.238l1.569,1.812a4.782,4.782,0,0,1,.76,4.732l-.128.517C471.808-3.548,469.99,3.076,468.22,9.48c-1.551,5.632-3.157,11.458-4.5,17.23-.407,1.758-.936,3.5-1.46,5.23a54.477,54.477,0,0,0-1.745,6.739c-.852,5.036-3.516,7.943-8.393,9.147-10.138,2.506-20.235,5.2-30.331,7.888l-4.2,1.119c-4.2,1.113-9.147,2.469-13.976,4.02-4.337,1.393-7.086-.578-8.953-2.548-2.4-2.439-4.719-4.793-7.037-7.14l3.035-3.035c2.329,2.36,4.653,4.714,7.061,7.165,1.739,1.727,2.761,2.056,4.586,1.472,4.92-1.581,9.932-2.95,14.183-4.081l4.19-1.119c10.12-2.7,20.241-5.395,30.41-7.913,3.254-.8,4.61-2.293,5.188-5.693a59.265,59.265,0,0,1,1.873-7.274c.5-1.642,1-3.284,1.387-4.951,1.362-5.857,2.98-11.726,4.543-17.4,1.751-6.356,3.564-12.924,5.005-19.444l.146-.62a6.951,6.951,0,0,0,.189-.87l-1.606-1.849a63.332,63.332,0,0,0-5.614-6c-.523-.468-1.021-.949-1.545-1.423l3.053-3.053c.462.42.888.864,1.356,1.283A68.1,68.1,0,0,1,471.072-17.238ZM630.292,98.9c-13.332,3.351-27.114,6.812-40.494,10.753-5.23,1.539-8.9.706-12.5-2.9-.164-.164-.328-.335-.5-.517-5.808-6.234-12.1-12.742-20.4-21.1-3.7-3.661-7.663-7.487-13-12.334-3.455-3.108-4.5-6.672-3.321-10.917q4.507-16.3,8.88-32.642l4.592-16.981a11.57,11.57,0,0,1,.785-1.971l.3-.663a2.149,2.149,0,0,1,.633-.827,2.087,2.087,0,0,1,.389-.377,11.9,11.9,0,0,1,2.451-1.387l3.339,3.339a9.694,9.694,0,0,0-3.053,1.368l-.182.389a7.5,7.5,0,0,0-.517,1.259L553.1,30.359q-4.406,16.348-8.886,32.672c-.748,2.706-.189,4.513,2.074,6.6,5.395,4.9,9.451,8.752,13.167,12.486,8.326,8.393,14.645,14.931,20.49,21.2,2.664,2.889,4.75,3.382,8.655,2.232,13.459-3.965,27.29-7.438,40.664-10.8l5.674-1.429a6.114,6.114,0,0,0,4.951-4.507l3.3,3.3a10.4,10.4,0,0,1-7.207,5.364ZM592.833,60.544a15.208,15.208,0,0,1-1.593-1.381c-5.559-5.559-2.439-12.121-1.362-14.4a2.109,2.109,0,0,1,.6-.754l.079-.1a5.2,5.2,0,0,1,2.907-1.514l3.357,3.357c-.091.049-.164.061-.261.116a6.686,6.686,0,0,1-1.989.675,2.988,2.988,0,0,0-.821.243c-.049.049-.091.1-.14.14-2.153,4.707-1.63,7.578,1.812,10.181,1.3.973,7.031.693,7.876-.164a16.906,16.906,0,0,1,.918-2.743c.122-.3.195-.517.292-.772l3.351,3.351a8.153,8.153,0,0,0-.365,1.04c-.213,1.022-.973,2.427-3.388,3.333C600.88,62.375,595.254,62.363,592.833,60.544ZM325.416,311.175c6.66-3.747,10.193.991,12.553,4.117l.882,1.156c2.451,3.1,1.156,6.3.3,8.417a12.03,12.03,0,0,0-.7,2.013c-.219,1.022-.979,2.433-3.4,3.333-3.23,1.21-8.849,1.2-11.263-.626a15.178,15.178,0,0,1-1.594-1.381c-5.559-5.559-2.439-12.121-1.362-14.4a2.112,2.112,0,0,1,.6-.754c.031-.036.055-.067.085-.1a5.385,5.385,0,0,1,3.1-1.557A3.986,3.986,0,0,0,325.416,311.175Zm-.851,4.8c-2.153,4.707-1.636,7.59,1.812,10.181,1.3.979,7.037.687,7.882-.17a16.868,16.868,0,0,1,.919-2.737c.882-2.183,1.137-3.1.31-4.142l-.949-1.247a23.818,23.818,0,0,0-2.05-2.488c-1.508-1.508-2.761-1.7-4.963-.468a6.805,6.805,0,0,1-1.995.681,3.057,3.057,0,0,0-.821.243A1.623,1.623,0,0,1,324.564,315.974Z" transform="translate(-191.312 -128.016)" fill="#9f7a32" opacity="0.15"/>
      </g>
    </g>
  </g>
</svg>
