<svg id="vuesax_broken_clipboard-tick" data-name="vuesax/broken/clipboard-tick" xmlns="http://www.w3.org/2000/svg" width="70" height="70" viewBox="0 0 70 70">
  <g id="clipboard-tick">
    <path id="Vector" d="M0,7.292l4.375,4.375L16.042,0" transform="translate(27.154 35.583)" fill="none" stroke="#9f7a32" stroke-linecap="round" stroke-linejoin="round" stroke-width="5"/>
    <path id="Vector-2" data-name="Vector" d="M8.633,0h-2.8C2.917,0,0,0,0,5.833s2.917,5.833,5.833,5.833H17.5c5.833,0,5.833-2.917,5.833-5.833C23.333,0,20.417,0,17.5,0" transform="translate(23.333 5.833)" fill="none" stroke="#9f7a32" stroke-linecap="round" stroke-linejoin="round" stroke-width="5"/>
    <path id="Vector-3" data-name="Vector" d="M0,17.442C0,4.142,4.871.525,14.583,0" transform="translate(8.75 11.725)" fill="none" stroke="#9f7a32" stroke-linecap="round" stroke-linejoin="round" stroke-width="5"/>
    <path id="Vector-4" data-name="Vector" d="M37.917,0C47.629.525,52.5,4.112,52.5,17.442v17.5c0,11.667-2.917,17.5-17.5,17.5H17.5C2.917,52.442,0,46.608,0,34.942v-6.1" transform="translate(8.75 11.725)" fill="none" stroke="#9f7a32" stroke-linecap="round" stroke-linejoin="round" stroke-width="5"/>
    <path id="Vector-5" data-name="Vector" d="M0,0H70V70H0Z" fill="none" opacity="0"/>
  </g>
</svg>
