<svg id="vuesax_bulk_play-cricle" data-name="vuesax/bulk/play-cricle" xmlns="http://www.w3.org/2000/svg" width="70.188" height="70.188" viewBox="0 0 70.188 70.188">
  <g id="play-cricle">
    <path id="Vector" d="M0,0H70.188V70.188H0Z" fill="none" opacity="0"/>
    <path id="Vector-2" data-name="Vector" d="M2.186,45.732a2.169,2.169,0,0,1-1.55-.643,2.207,2.207,0,0,1,0-3.1,27.059,27.059,0,0,0,0-38.253,2.192,2.192,0,0,1,3.1-3.1,31.472,31.472,0,0,1,0,44.453A2.169,2.169,0,0,1,2.186,45.732Z" transform="translate(53.585 12.232)" fill="#fff" opacity="0.4"/>
    <path id="Vector-3" data-name="Vector" d="M10.74,45.732a2.169,2.169,0,0,1-1.55-.643A31.472,31.472,0,0,1,9.19.636a2.192,2.192,0,1,1,3.1,3.1,27.059,27.059,0,0,0,0,38.253,2.207,2.207,0,0,1,0,3.1A2.169,2.169,0,0,1,10.74,45.732Z" transform="translate(3.678 12.232)" fill="#fff" opacity="0.4"/>
    <path id="Vector-4" data-name="Vector" d="M11.854,6.035A31.959,31.959,0,0,1,1.472,4.28,2.2,2.2,0,1,1,2.935.127a27.357,27.357,0,0,0,8.949,1.492A27.182,27.182,0,0,0,20.8.127a2.231,2.231,0,0,1,2.808,1.345A2.206,2.206,0,0,1,22.266,4.28,31.5,31.5,0,0,1,11.854,6.035Z" transform="translate(23.24 60.381)" fill="#fff" opacity="0.4"/>
    <path id="Vector-5" data-name="Vector" d="M21.535,6a2.125,2.125,0,0,1-.731-.117,27.5,27.5,0,0,0-17.869,0A2.231,2.231,0,0,1,.127,4.533,2.207,2.207,0,0,1,1.472,1.726,31.31,31.31,0,0,1,11.854,0,31.31,31.31,0,0,1,22.236,1.726a2.207,2.207,0,0,1,1.345,2.808A2.132,2.132,0,0,1,21.535,6Z" transform="translate(23.211 3.773)" fill="#fff" opacity="0.4"/>
    <path id="Vector-6" data-name="Vector" d="M0,11.71V6.826C0,.743,4.3-1.743,9.563,1.3L13.8,3.755l4.241,2.456c5.264,3.042,5.264,8.013,0,11.055L13.8,19.723,9.563,22.18C4.3,25.221,0,22.735,0,16.652Z" transform="translate(25.56 23.384)" fill="#fff"/>
  </g>
</svg>
