<svg id="vuesax_broken_brifecase-timer" data-name="vuesax/broken/brifecase-timer" xmlns="http://www.w3.org/2000/svg" width="52.328" height="52.328" viewBox="0 0 52.328 52.328">
  <g id="brifecase-timer">
    <path id="Vector" d="M17.443,8.721A8.721,8.721,0,1,1,8.721,0,8.721,8.721,0,0,1,17.443,8.721Z" transform="translate(17.443 22.239)" fill="none" stroke="#c9b58e" stroke-linecap="round" stroke-linejoin="round" stroke-width="3"/>
    <path id="Vector-2" data-name="Vector" d="M2.725,0V2.028A2.159,2.159,0,0,1,1.657,3.9L0,4.906" transform="translate(23.984 28.235)" fill="none" stroke="#c9b58e" stroke-linecap="round" stroke-linejoin="round" stroke-width="3"/>
    <path id="Vector-3" data-name="Vector" d="M40.774,27.1c-.458,4.273-2.028,7.784-10.793,7.784H12.539c-8.765,0-10.335-3.51-10.793-7.784L.111,9.659C-.478,4.339,1.048,0,10.358,0h21.8C41.472,0,43,4.339,42.409,9.659l-.72,7.784" transform="translate(4.904 13.082)" fill="none" stroke="#c9b58e" stroke-linecap="round" stroke-linejoin="round" stroke-width="3"/>
    <path id="Vector-4" data-name="Vector" d="M0,8.721V6.977C0,3.118,0,0,6.977,0h3.489c6.977,0,6.977,3.118,6.977,6.977V8.721" transform="translate(17.443 4.361)" fill="none" stroke="#c9b58e" stroke-linecap="round" stroke-linejoin="round" stroke-width="3"/>
    <path id="Vector-5" data-name="Vector" d="M12.3,0A35.617,35.617,0,0,1,0,5.756" transform="translate(34.907 23.984)" fill="none" stroke="#c9b58e" stroke-linecap="round" stroke-linejoin="round" stroke-width="3"/>
    <path id="Vector-6" data-name="Vector" d="M0,0A35.835,35.835,0,0,0,11.73,5.255" transform="translate(5.712 24.572)" fill="none" stroke="#c9b58e" stroke-linecap="round" stroke-linejoin="round" stroke-width="3"/>
    <path id="Vector-7" data-name="Vector" d="M0,0H52.328V52.328H0Z" fill="none" opacity="0"/>
  </g>
</svg>
