<svg id="Group_182948" data-name="Group 182948" xmlns="http://www.w3.org/2000/svg" width="27.957" height="22.114" viewBox="0 0 27.957 22.114">
  <path id="Path_72546" data-name="Path 72546" d="M27.138,71.246H.819A.819.819,0,0,0,0,72.065a3.549,3.549,0,0,0,3.549,3.549H24.407a3.549,3.549,0,0,0,3.549-3.549A.819.819,0,0,0,27.138,71.246ZM16.162,56.12v-.436a2.184,2.184,0,0,0-4.368,0v.436a14.7,14.7,0,0,1,4.368,0ZM13.978,57.6Z" transform="translate(0 -53.5)" fill="#abd9b4"/>
  <path id="Path_72547" data-name="Path 72547" d="M24.207,65.386A12.831,12.831,0,0,0,2.328,73.64h25.61A12.736,12.736,0,0,0,24.207,65.386Z" transform="translate(-1.155 -57.533)" fill="#2ea044"/>
</svg>
