<svg xmlns="http://www.w3.org/2000/svg" width="24" height="22.5" viewBox="0 0 24 22.5">
  <g id="Group_182990" data-name="Group 182990" transform="translate(0 -0.775)">
    <path id="Path_72550" data-name="Path 72550" d="M3.187,19.809c.273,1.2.566,1.7,2.14,1.439a5.008,5.008,0,0,1,1.734-.055c1.168.194,4.256,4.128,8.647.658a3.046,3.046,0,0,1,2.988-.606c.726.141,1.657-.008,2.112-1.436,4.339-.781,3.407-3.174,2.107-3.383A5.578,5.578,0,0,1,19,12.98a4.68,4.68,0,0,1,.729-.3c3.665-1.268,1.625-4.354-.867-3.4.163-2.6.21-4.683-1.917-6.68A7.7,7.7,0,0,0,8.906,1.391C4.93,3.129,4.961,6.5,5.138,9.323c-1.585-.606-2.66.267-2.833,1.162C2.043,11.9,3.391,12.37,4.2,12.653a7.636,7.636,0,0,1,.821.317A5.306,5.306,0,0,1,1.44,16.3c-.57.189-1.109.368-1.343.89a1.252,1.252,0,0,0,.036,1.039c.4.936,1.713,1.338,3.054,1.578ZM6.3,13.792c.66-1.33-.206-2.055-1.608-2.549-.3-.1-.846-.3-.918-.476a.544.544,0,0,1,.409-.189,2.128,2.128,0,0,1,.334.109c4.742,1.8-.853-5.374,4.988-7.926a6.231,6.231,0,0,1,6.409.933c2.831,2.656.6,6.534,1.832,7.093.874.4,1.71-.214,2.012-.223a.634.634,0,0,1,.462.19c0,.177-.615.391-.985.519-1.71.591-2.244,1.3-1.277,3.062a7.224,7.224,0,0,0,4.313,3.487c-1.433.828-2.521.1-2.839,1.351-.164.665-.269.642-.45.607-5.066-.992-4.72,4.27-9.869.831-1.757-1.173-2.1-1.048-4.385-.784A5.351,5.351,0,0,0,4.439,18.8c-.361-.668-1.7-.33-2.744-1a6.679,6.679,0,0,0,4.607-4Z" fill="#333c52"/>
  </g>
</svg>
