<svg xmlns="http://www.w3.org/2000/svg" width="27.934" height="28.081" viewBox="0 0 27.934 28.081">
  <path id="Vector" d="M15.912,2.242l-.073,3.97A2.18,2.18,0,0,0,16.614,7.8l2.6,1.969c1.666,1.257,1.393,2.8-.6,3.426l-3.384,1.058a2.183,2.183,0,0,0-1.309,1.372l-.807,3.08c-.639,2.43-2.231,2.671-3.551.534L7.719,16.259a2.156,2.156,0,0,0-1.76-.922l-3.5.178c-2.5.126-3.216-1.32-1.582-3.227L2.953,9.879A2.18,2.18,0,0,0,3.34,8.025L2.272,4.63c-.618-1.99.492-3.09,2.472-2.441l3.09,1.016a2.186,2.186,0,0,0,1.749-.272L12.811.608C14.56-.639,15.954.094,15.912,2.242Z" transform="translate(0 10.152) rotate(-30)" fill="#f68223"/>
</svg>
