<svg xmlns="http://www.w3.org/2000/svg" width="114" height="60.074" viewBox="0 0 114 60.074">
  <g id="Group_182929" data-name="Group 182929" transform="translate(-4 -17)">
    <g id="Group_182928" data-name="Group 182928" transform="translate(5 18)">
      <path id="Path_72549" data-name="Path 72549" d="M110.778,76.074H11.222A6.111,6.111,0,0,1,5,69.852V24.222A6.111,6.111,0,0,1,11.222,18h99.556A6.111,6.111,0,0,1,117,24.222v45.63A6.111,6.111,0,0,1,110.778,76.074ZM19.519,47.037H34.037M23.252,53.259,30.3,40.815m0,12.444L23.252,40.815m19.081,6.222H56.852M46.067,53.259l7.052-12.444m0,12.444L46.067,40.815m19.081,6.222H79.667M68.881,53.259l7.052-12.444m0,12.444L68.881,40.815m19.081,6.222h14.519M91.7,53.259l7.052-12.444m0,12.444L91.7,40.815" transform="translate(-5 -18)" fill="rgba(46,160,68,0.16)" stroke="#2ea044" stroke-linecap="round" stroke-linejoin="round" stroke-width="2"/>
    </g>
  </g>
</svg>
